# Blender 4.5.4 LTS
# www.blender.org
mtllib Ladder_2.mtl
g Ladder_2_Vert.015
v -67.373741 1.974125 -10.228631
v -67.184265 1.974125 -10.228631
v -67.373741 1.119161 -10.228631
v -67.184265 1.119161 -10.228631
v -67.279007 1.261848 -10.018703
v -67.373741 1.380561 -10.018703
v -67.373741 1.167110 -10.018703
v -67.345993 1.289596 -10.018703
v -67.279007 1.736699 -10.018703
v -67.373741 1.855412 -10.018703
v -67.373741 1.641961 -10.018703
v -67.345993 1.764448 -10.018703
v -67.184265 1.380561 -10.018703
v -67.184265 1.167110 -10.018703
v -67.212013 1.289596 -10.018703
v -67.184265 1.855412 -10.018703
v -67.184265 1.641961 -10.018703
v -67.212013 1.764448 -10.018703
v -67.373741 1.119161 -10.018703
v -67.184265 1.119161 -10.018703
v -67.279007 1.499274 -10.018703
v -67.373741 1.594012 -10.018703
v -67.345993 1.471526 -10.018703
v -67.184265 1.594012 -10.018703
v -67.212013 1.471526 -10.018703
v -67.373741 1.974125 -10.019070
v -67.345993 1.929517 -10.019070
v -67.184265 1.974125 -10.019070
v -67.212013 1.929517 -10.019070
v -67.373741 1.974125 -8.951896
v -67.184265 1.974125 -8.951896
v -67.373741 1.119161 -8.951896
v -67.184265 1.119161 -8.951896
v -67.279007 1.261848 -9.161823
v -67.373741 1.380561 -9.161823
v -67.373741 1.167110 -9.161823
v -67.345993 1.289596 -9.161823
v -67.279007 1.736699 -9.161823
v -67.373741 1.855412 -9.161823
v -67.373741 1.641961 -9.161823
v -67.345993 1.764448 -9.161823
v -67.184265 1.380561 -9.161823
v -67.184265 1.167110 -9.161823
v -67.212013 1.289596 -9.161823
v -67.184265 1.855412 -9.161823
v -67.184265 1.641961 -9.161823
v -67.212013 1.764448 -9.161823
v -67.373741 1.119161 -9.161823
v -67.184265 1.119161 -9.161823
v -67.279007 1.499274 -9.161823
v -67.373741 1.594012 -9.161823
v -67.345993 1.471526 -9.161823
v -67.184265 1.594012 -9.161823
v -67.212013 1.471526 -9.161823
v -67.373741 1.974125 -9.161457
v -67.345993 1.929517 -9.161457
v -67.184265 1.974125 -9.161457
v -67.212013 1.929517 -9.161457
v -67.279007 1.119161 -10.269525
v -67.279007 1.974125 -10.269525
v -67.279007 1.974125 -8.911002
v -67.279007 1.119161 -8.911002
v -67.279289 1.957402 -10.019070
v -67.279289 1.957402 -9.161457
v -67.373741 4.376130 -10.228631
v -67.184265 4.376130 -10.228631
v -67.373741 1.974125 -10.228631
v -67.184265 1.974125 -10.228631
v -67.279007 2.239299 -10.018703
v -67.373741 2.358012 -10.018703
v -67.373741 2.144561 -10.018703
v -67.345993 2.267047 -10.018703
v -67.279007 2.714150 -10.018703
v -67.373741 2.832863 -10.018703
v -67.373741 2.619412 -10.018703
v -67.345993 2.741899 -10.018703
v -67.279007 3.189002 -10.018703
v -67.373741 3.307715 -10.018703
v -67.373741 3.094264 -10.018703
v -67.345993 3.216750 -10.018703
v -67.279007 3.663853 -10.018703
v -67.373741 3.782566 -10.018703
v -67.373741 3.569115 -10.018703
v -67.345993 3.691601 -10.018703
v -67.279007 4.138704 -10.018703
v -67.373741 4.257417 -10.018703
v -67.373741 4.043966 -10.018703
v -67.345993 4.166452 -10.018703
v -67.184265 2.358012 -10.018703
v -67.184265 2.144561 -10.018703
v -67.212013 2.267047 -10.018703
v -67.184265 2.832863 -10.018703
v -67.184265 2.619412 -10.018703
v -67.212013 2.741899 -10.018703
v -67.184265 3.307715 -10.018703
v -67.184265 3.094264 -10.018703
v -67.212013 3.216750 -10.018703
v -67.184265 3.782566 -10.018703
v -67.184265 3.569115 -10.018703
v -67.212013 3.691601 -10.018703
v -67.184265 4.257417 -10.018703
v -67.184265 4.043966 -10.018703
v -67.212013 4.166452 -10.018703
v -67.373749 1.974125 -10.018703
v -67.184265 1.974125 -10.018703
v -67.279007 2.476725 -10.018703
v -67.373741 2.571463 -10.018703
v -67.345993 2.448976 -10.018703
v -67.184265 2.571463 -10.018703
v -67.212013 2.448976 -10.018703
v -67.279007 2.951576 -10.018703
v -67.373741 3.046314 -10.018703
v -67.345993 2.923828 -10.018703
v -67.184265 3.046314 -10.018703
v -67.212013 2.923828 -10.018703
v -67.279007 3.426428 -10.018703
v -67.373741 3.521166 -10.018703
v -67.345993 3.398679 -10.018703
v -67.184265 3.521166 -10.018703
v -67.212013 3.398679 -10.018703
v -67.279007 3.901279 -10.018703
v -67.373741 3.996017 -10.018703
v -67.345993 3.873531 -10.018703
v -67.184265 3.996017 -10.018703
v -67.212013 3.873531 -10.018703
v -67.373741 4.376130 -10.019070
v -67.345993 4.331522 -10.019070
v -67.184265 4.376130 -10.019070
v -67.212013 4.331522 -10.019070
v -67.373741 4.376130 -8.951896
v -67.184265 4.376130 -8.951896
v -67.373741 1.974125 -8.951896
v -67.184265 1.974125 -8.951896
v -67.279007 2.239299 -9.161823
v -67.373741 2.358012 -9.161823
v -67.373741 2.144561 -9.161823
v -67.345993 2.267047 -9.161823
v -67.279007 2.714150 -9.161823
v -67.373741 2.832863 -9.161823
v -67.373741 2.619412 -9.161823
v -67.345993 2.741899 -9.161823
v -67.279007 3.189002 -9.161823
v -67.373741 3.307715 -9.161823
v -67.373741 3.094264 -9.161823
v -67.345993 3.216750 -9.161823
v -67.279007 3.663853 -9.161823
v -67.373741 3.782566 -9.161823
v -67.373741 3.569115 -9.161823
v -67.345993 3.691601 -9.161823
v -67.279007 4.138704 -9.161823
v -67.373741 4.257417 -9.161823
v -67.373741 4.043966 -9.161823
v -67.345993 4.166452 -9.161823
v -67.184265 2.358012 -9.161823
v -67.184265 2.144561 -9.161823
v -67.212013 2.267047 -9.161823
v -67.184265 2.832863 -9.161823
v -67.184265 2.619412 -9.161823
v -67.212013 2.741899 -9.161823
v -67.184265 3.307715 -9.161823
v -67.184265 3.094264 -9.161823
v -67.212013 3.216750 -9.161823
v -67.184265 3.782566 -9.161823
v -67.184265 3.569115 -9.161823
v -67.212013 3.691601 -9.161823
v -67.184265 4.257417 -9.161823
v -67.184265 4.043966 -9.161823
v -67.212013 4.166452 -9.161823
v -67.373749 1.974125 -9.161823
v -67.184265 1.974125 -9.161823
v -67.279007 2.476725 -9.161823
v -67.373741 2.571463 -9.161823
v -67.345993 2.448976 -9.161823
v -67.184265 2.571463 -9.161823
v -67.212013 2.448976 -9.161823
v -67.279007 2.951576 -9.161823
v -67.373741 3.046314 -9.161823
v -67.345993 2.923828 -9.161823
v -67.184265 3.046314 -9.161823
v -67.212013 2.923828 -9.161823
v -67.279007 3.426428 -9.161823
v -67.373741 3.521166 -9.161823
v -67.345993 3.398679 -9.161823
v -67.184265 3.521166 -9.161823
v -67.212013 3.398679 -9.161823
v -67.279007 3.901279 -9.161823
v -67.373741 3.996017 -9.161823
v -67.345993 3.873531 -9.161823
v -67.184265 3.996017 -9.161823
v -67.212013 3.873531 -9.161823
v -67.373741 4.376130 -9.161457
v -67.345993 4.331522 -9.161457
v -67.184265 4.376130 -9.161457
v -67.212013 4.331522 -9.161457
v -67.279007 1.974125 -10.269525
v -67.279007 4.376130 -10.269525
v -67.279007 4.376130 -8.911002
v -67.279007 1.974125 -8.911002
v -67.279289 4.359407 -10.019070
v -67.279289 4.359407 -9.161457
v -67.373741 6.778135 -10.228631
v -67.184265 6.778135 -10.228631
v -67.373741 4.376130 -10.228631
v -67.184265 4.376130 -10.228631
v -67.279007 4.641304 -10.018703
v -67.373741 4.760016 -10.018703
v -67.373741 4.546566 -10.018703
v -67.345993 4.669052 -10.018703
v -67.279007 5.116156 -10.018703
v -67.373741 5.234868 -10.018703
v -67.373741 5.021417 -10.018703
v -67.345993 5.143903 -10.018703
v -67.279007 5.591006 -10.018703
v -67.373741 5.709720 -10.018703
v -67.373741 5.496268 -10.018703
v -67.345993 5.618755 -10.018703
v -67.279007 6.065858 -10.018703
v -67.373741 6.184571 -10.018703
v -67.373741 5.971120 -10.018703
v -67.345993 6.093606 -10.018703
v -67.279007 6.540709 -10.018703
v -67.373741 6.659422 -10.018703
v -67.373741 6.445971 -10.018703
v -67.345993 6.568458 -10.018703
v -67.184265 4.760016 -10.018703
v -67.184265 4.546566 -10.018703
v -67.212013 4.669052 -10.018703
v -67.184265 5.234868 -10.018703
v -67.184265 5.021417 -10.018703
v -67.212013 5.143903 -10.018703
v -67.184265 5.709720 -10.018703
v -67.184265 5.496268 -10.018703
v -67.212013 5.618755 -10.018703
v -67.184265 6.184571 -10.018703
v -67.184265 5.971120 -10.018703
v -67.212013 6.093606 -10.018703
v -67.184265 6.659422 -10.018703
v -67.184265 6.445971 -10.018703
v -67.212013 6.568458 -10.018703
v -67.373749 4.376130 -10.018703
v -67.184265 4.376130 -10.018703
v -67.279007 4.878729 -10.018703
v -67.373741 4.973468 -10.018703
v -67.345993 4.850982 -10.018703
v -67.184265 4.973468 -10.018703
v -67.212013 4.850982 -10.018703
v -67.279007 5.353581 -10.018703
v -67.373741 5.448319 -10.018703
v -67.345993 5.325832 -10.018703
v -67.184265 5.448319 -10.018703
v -67.212013 5.325832 -10.018703
v -67.279007 5.828433 -10.018703
v -67.373741 5.923171 -10.018703
v -67.345993 5.800684 -10.018703
v -67.184265 5.923171 -10.018703
v -67.212013 5.800684 -10.018703
v -67.279007 6.303284 -10.018703
v -67.373741 6.398022 -10.018703
v -67.345993 6.275536 -10.018703
v -67.184265 6.398022 -10.018703
v -67.212013 6.275536 -10.018703
v -67.373741 6.778135 -10.019070
v -67.345993 6.733526 -10.019070
v -67.184265 6.778135 -10.019070
v -67.212013 6.733526 -10.019070
v -67.373741 6.778135 -8.951896
v -67.184265 6.778135 -8.951896
v -67.373741 4.376130 -8.951896
v -67.184265 4.376130 -8.951896
v -67.279007 4.641304 -9.161823
v -67.373741 4.760016 -9.161823
v -67.373741 4.546566 -9.161823
v -67.345993 4.669052 -9.161823
v -67.279007 5.116156 -9.161823
v -67.373741 5.234868 -9.161823
v -67.373741 5.021417 -9.161823
v -67.345993 5.143903 -9.161823
v -67.279007 5.591006 -9.161823
v -67.373741 5.709720 -9.161823
v -67.373741 5.496268 -9.161823
v -67.345993 5.618755 -9.161823
v -67.279007 6.065858 -9.161823
v -67.373741 6.184571 -9.161823
v -67.373741 5.971120 -9.161823
v -67.345993 6.093606 -9.161823
v -67.279007 6.540709 -9.161823
v -67.373741 6.659422 -9.161823
v -67.373741 6.445971 -9.161823
v -67.345993 6.568458 -9.161823
v -67.184265 4.760016 -9.161823
v -67.184265 4.546566 -9.161823
v -67.212013 4.669052 -9.161823
v -67.184265 5.234868 -9.161823
v -67.184265 5.021417 -9.161823
v -67.212013 5.143903 -9.161823
v -67.184265 5.709720 -9.161823
v -67.184265 5.496268 -9.161823
v -67.212013 5.618755 -9.161823
v -67.184265 6.184571 -9.161823
v -67.184265 5.971120 -9.161823
v -67.212013 6.093606 -9.161823
v -67.184265 6.659422 -9.161823
v -67.184265 6.445971 -9.161823
v -67.212013 6.568458 -9.161823
v -67.373749 4.376130 -9.161823
v -67.184265 4.376130 -9.161823
v -67.279007 4.878729 -9.161823
v -67.373741 4.973468 -9.161823
v -67.345993 4.850982 -9.161823
v -67.184265 4.973468 -9.161823
v -67.212013 4.850982 -9.161823
v -67.279007 5.353581 -9.161823
v -67.373741 5.448319 -9.161823
v -67.345993 5.325832 -9.161823
v -67.184265 5.448319 -9.161823
v -67.212013 5.325832 -9.161823
v -67.279007 5.828433 -9.161823
v -67.373741 5.923171 -9.161823
v -67.345993 5.800684 -9.161823
v -67.184265 5.923171 -9.161823
v -67.212013 5.800684 -9.161823
v -67.279007 6.303284 -9.161823
v -67.373741 6.398022 -9.161823
v -67.345993 6.275536 -9.161823
v -67.184265 6.398022 -9.161823
v -67.212013 6.275536 -9.161823
v -67.373741 6.778135 -9.161457
v -67.345993 6.733526 -9.161457
v -67.184265 6.778135 -9.161457
v -67.212013 6.733526 -9.161457
v -67.279007 4.376130 -10.269525
v -67.279007 6.778135 -10.269525
v -67.279007 6.778135 -8.911002
v -67.279007 4.376130 -8.911002
v -67.279289 6.761412 -10.019070
v -67.279289 6.761412 -9.161457
v -67.373741 9.180140 -10.228631
v -67.184265 9.180140 -10.228631
v -67.373741 6.778135 -10.228631
v -67.184265 6.778135 -10.228631
v -67.279007 7.043309 -10.018703
v -67.373741 7.162022 -10.018703
v -67.373741 6.948571 -10.018703
v -67.345993 7.071057 -10.018703
v -67.279007 7.518160 -10.018703
v -67.373741 7.636874 -10.018703
v -67.373741 7.423422 -10.018703
v -67.345993 7.545909 -10.018703
v -67.279007 7.993012 -10.018703
v -67.373741 8.111725 -10.018703
v -67.373741 7.898274 -10.018703
v -67.345993 8.020760 -10.018703
v -67.279007 8.467863 -10.018703
v -67.373741 8.586576 -10.018703
v -67.373741 8.373125 -10.018703
v -67.345993 8.495611 -10.018703
v -67.279007 8.942715 -10.018703
v -67.373741 9.061428 -10.018703
v -67.373741 8.847977 -10.018703
v -67.345993 8.970463 -10.018703
v -67.184265 7.162022 -10.018703
v -67.184265 6.948571 -10.018703
v -67.212013 7.071057 -10.018703
v -67.184265 7.636874 -10.018703
v -67.184265 7.423422 -10.018703
v -67.212013 7.545909 -10.018703
v -67.184265 8.111725 -10.018703
v -67.184265 7.898274 -10.018703
v -67.212013 8.020760 -10.018703
v -67.184265 8.586576 -10.018703
v -67.184265 8.373125 -10.018703
v -67.212013 8.495611 -10.018703
v -67.184265 9.061428 -10.018703
v -67.184265 8.847977 -10.018703
v -67.212013 8.970463 -10.018703
v -67.373749 6.778135 -10.018703
v -67.184265 6.778135 -10.018703
v -67.279007 7.280735 -10.018703
v -67.373741 7.375473 -10.018703
v -67.345993 7.252986 -10.018703
v -67.184265 7.375473 -10.018703
v -67.212013 7.252986 -10.018703
v -67.279007 7.755586 -10.018703
v -67.373741 7.850324 -10.018703
v -67.345993 7.727838 -10.018703
v -67.184265 7.850324 -10.018703
v -67.212013 7.727838 -10.018703
v -67.279007 8.230438 -10.018703
v -67.373741 8.325176 -10.018703
v -67.345993 8.202690 -10.018703
v -67.184265 8.325176 -10.018703
v -67.212013 8.202690 -10.018703
v -67.279007 8.705290 -10.018703
v -67.373741 8.800028 -10.018703
v -67.345993 8.677542 -10.018703
v -67.184265 8.800028 -10.018703
v -67.212013 8.677542 -10.018703
v -67.373741 9.180140 -10.019070
v -67.345993 9.135532 -10.019070
v -67.184265 9.180140 -10.019070
v -67.212013 9.135532 -10.019070
v -67.373741 9.180140 -8.951896
v -67.184265 9.180140 -8.951896
v -67.373741 6.778135 -8.951896
v -67.184265 6.778135 -8.951896
v -67.279007 7.043309 -9.161823
v -67.373741 7.162022 -9.161823
v -67.373741 6.948571 -9.161823
v -67.345993 7.071057 -9.161823
v -67.279007 7.518160 -9.161823
v -67.373741 7.636874 -9.161823
v -67.373741 7.423422 -9.161823
v -67.345993 7.545909 -9.161823
v -67.279007 7.993012 -9.161823
v -67.373741 8.111725 -9.161823
v -67.373741 7.898274 -9.161823
v -67.345993 8.020760 -9.161823
v -67.279007 8.467863 -9.161823
v -67.373741 8.586576 -9.161823
v -67.373741 8.373125 -9.161823
v -67.345993 8.495611 -9.161823
v -67.279007 8.942715 -9.161823
v -67.373741 9.061428 -9.161823
v -67.373741 8.847977 -9.161823
v -67.345993 8.970463 -9.161823
v -67.184265 7.162022 -9.161823
v -67.184265 6.948571 -9.161823
v -67.212013 7.071057 -9.161823
v -67.184265 7.636874 -9.161823
v -67.184265 7.423422 -9.161823
v -67.212013 7.545909 -9.161823
v -67.184265 8.111725 -9.161823
v -67.184265 7.898274 -9.161823
v -67.212013 8.020760 -9.161823
v -67.184265 8.586576 -9.161823
v -67.184265 8.373125 -9.161823
v -67.212013 8.495611 -9.161823
v -67.184265 9.061428 -9.161823
v -67.184265 8.847977 -9.161823
v -67.212013 8.970463 -9.161823
v -67.373749 6.778135 -9.161823
v -67.184265 6.778135 -9.161823
v -67.279007 7.280735 -9.161823
v -67.373741 7.375473 -9.161823
v -67.345993 7.252986 -9.161823
v -67.184265 7.375473 -9.161823
v -67.212013 7.252986 -9.161823
v -67.279007 7.755586 -9.161823
v -67.373741 7.850324 -9.161823
v -67.345993 7.727838 -9.161823
v -67.184265 7.850324 -9.161823
v -67.212013 7.727838 -9.161823
v -67.279007 8.230438 -9.161823
v -67.373741 8.325176 -9.161823
v -67.345993 8.202690 -9.161823
v -67.184265 8.325176 -9.161823
v -67.212013 8.202690 -9.161823
v -67.279007 8.705290 -9.161823
v -67.373741 8.800028 -9.161823
v -67.345993 8.677542 -9.161823
v -67.184265 8.800028 -9.161823
v -67.212013 8.677542 -9.161823
v -67.373741 9.180140 -9.161457
v -67.345993 9.135532 -9.161457
v -67.184265 9.180140 -9.161457
v -67.212013 9.135532 -9.161457
v -67.279007 6.778135 -10.269525
v -67.279007 9.180140 -10.269525
v -67.279007 9.180140 -8.911002
v -67.279007 6.778135 -8.911002
v -67.279289 9.163418 -10.019070
v -67.279289 9.163418 -9.161457
vn -0.8315 0.5556 -0.0000
vn -0.0000 1.0000 -0.0000
vn 0.8315 -0.5556 -0.0000
vn -0.0000 -1.0000 -0.0000
vn -0.0000 -0.0000 1.0000
vn -0.8315 -0.5555 -0.0000
vn -0.8315 -0.5556 -0.0000
vn 0.8315 0.5556 -0.0000
vn 1.0000 -0.0000 -0.0000
vn 0.6673 -0.6019 -0.4388
vn -0.0000 -0.6278 -0.7783
vn -0.0000 -0.0000 -1.0000
vn 0.8356 -0.0000 -0.5494
vn 0.8315 -0.5555 -0.0000
vn 0.0050 0.0031 1.0000
vn 0.0028 0.0017 1.0000
vn 0.0018 0.0011 1.0000
vn -0.0028 0.0017 1.0000
vn -0.0018 0.0011 1.0000
vn -0.0050 0.0031 1.0000
vn 0.5774 -0.5774 -0.5773
vn 0.7071 -0.0000 -0.7071
vn 0.8356 -0.0000 0.5494
vn 0.6673 -0.6019 0.4388
vn -0.5774 -0.5774 -0.5773
vn -0.5774 -0.5774 0.5773
vn 0.5774 -0.5774 0.5773
vn -0.0000 -0.6278 0.7783
vn 0.0050 0.0031 -1.0000
vn 0.0018 0.0011 -1.0000
vn 0.0028 0.0017 -1.0000
vn -0.0028 0.0017 -1.0000
vn -0.0018 0.0011 -1.0000
vn -0.0050 0.0031 -1.0000
vn -1.0000 -0.0000 -0.0000
vn -1.0000 0.0001 -0.0000
vn -0.8318 0.5551 -0.0000
vn 0.8310 0.5563 -0.0000
vn 1.0000 0.0001 -0.0000
vn -0.6673 -0.6019 -0.4388
vn -0.8356 -0.0000 -0.5494
vn -0.8356 -0.0000 0.5494
vn -0.6673 -0.6019 0.4388
vn -0.0015 1.0000 -0.0000
vn -0.9338 -0.0000 -0.3578
vn -0.9338 -0.0000 0.3578
vt 0.491690 0.552172
vt 0.491690 0.445872
vt 0.500001 0.445872
vt 0.500001 0.552172
vt 0.508311 0.445872
vt 0.508311 0.552172
vt 0.491690 0.021839
vt 0.488248 0.033124
vt 0.488248 0.006644
vt 0.491690 0.080747
vt 0.488248 0.092031
vt 0.488248 0.065551
vt 0.511753 0.033124
vt 0.508311 0.021839
vt 0.511753 0.006644
vt 0.511753 0.092031
vt 0.508311 0.080747
vt 0.511753 0.065551
vt 0.500001 0.077304
vt 0.488248 0.059603
vt 0.491690 0.044408
vt 0.500001 0.047851
vt 0.508311 0.044408
vt 0.511753 0.059603
vt 0.552172 0.044408
vt 0.445872 0.044408
vt 0.445872 0.033124
vt 0.445872 0.021839
vt 0.552172 0.021839
vt 0.552172 0.033124
vt 0.511753 0.000696
vt 0.500001 0.000696
vt 0.500001 0.106758
vt 0.511753 0.106758
vt 0.491690 0.101224
vt 0.488248 0.106758
vt 0.508311 0.101224
vt 0.511753 0.106758
vt 0.499965 0.104683
vt 0.511753 0.578214
vt 0.500001 0.583287
vt 0.488248 0.578214
vt 0.488248 0.552217
vt 0.511753 0.552217
vt 0.445872 0.000696
vt 0.445872 0.006644
vt 0.445872 0.059603
vt 0.445872 0.065551
vt 0.445872 0.092031
vt 0.445826 0.106758
vt 0.419829 0.106758
vt 0.419829 0.000696
vt 0.488248 0.000696
vt 0.500001 0.018397
vt 0.511753 0.419829
vt 0.511753 0.445826
vt 0.488248 0.445826
vt 0.488248 0.419829
vt 0.500001 0.414756
vt 0.445826 0.101224
vt 0.552217 0.101224
vt 0.552172 0.092031
vt 0.552172 0.080747
vt 0.445872 0.080747
vt 0.488248 0.000696
vt 0.488248 0.106758
vt 0.491690 0.552217
vt 0.491690 0.445826
vt 0.499965 0.445826
vt 0.499965 0.552217
vt 0.508311 0.445826
vt 0.508311 0.552217
vt 0.445872 0.154381
vt 0.445872 0.143096
vt 0.552172 0.143096
vt 0.552172 0.154381
vt 0.552172 0.165665
vt 0.445872 0.165665
vt 0.488248 0.106758
vt 0.511753 0.106758
vt 0.511753 0.127901
vt 0.500001 0.139654
vt 0.488248 0.127901
vt 0.552172 0.260911
vt 0.445872 0.260911
vt 0.445872 0.272196
vt 0.445872 0.283480
vt 0.552172 0.283480
vt 0.552172 0.272196
vt 0.491690 0.143096
vt 0.488248 0.154381
vt 0.491690 0.202004
vt 0.488248 0.213288
vt 0.488248 0.186809
vt 0.491690 0.260911
vt 0.488248 0.272196
vt 0.488248 0.245716
vt 0.491690 0.319818
vt 0.488248 0.331103
vt 0.488248 0.304623
vt 0.491690 0.378726
vt 0.488248 0.390010
vt 0.488248 0.363531
vt 0.511753 0.154381
vt 0.508311 0.143096
vt 0.511753 0.213288
vt 0.508311 0.202004
vt 0.511753 0.186809
vt 0.511753 0.272196
vt 0.508311 0.260911
vt 0.511753 0.245716
vt 0.511753 0.331103
vt 0.508311 0.319818
vt 0.511753 0.304623
vt 0.500001 0.198561
vt 0.488248 0.180860
vt 0.491690 0.165665
vt 0.500001 0.169108
vt 0.508311 0.165665
vt 0.511753 0.180860
vt 0.511753 0.390010
vt 0.508311 0.378726
vt 0.511753 0.363531
vt 0.578214 0.404737
vt 0.552217 0.404737
vt 0.552172 0.390010
vt 0.552172 0.363531
vt 0.552172 0.357583
vt 0.552172 0.331103
vt 0.552172 0.304623
vt 0.552172 0.298675
vt 0.552172 0.245716
vt 0.552172 0.239768
vt 0.552172 0.213288
vt 0.552172 0.186809
vt 0.552172 0.180860
vt 0.552172 0.127901
vt 0.552172 0.106758
vt 0.578214 0.106758
vt 0.552172 0.106758
vt 0.500001 0.257469
vt 0.488248 0.239768
vt 0.491690 0.224573
vt 0.500001 0.228015
vt 0.508311 0.224573
vt 0.511753 0.239768
vt 0.500001 0.316376
vt 0.488248 0.298675
vt 0.491690 0.283480
vt 0.500001 0.286922
vt 0.508311 0.283480
vt 0.511753 0.298675
vt 0.500001 0.375283
vt 0.488248 0.357583
vt 0.491690 0.342388
vt 0.500001 0.345830
vt 0.508311 0.342388
vt 0.511753 0.357583
vt 0.445872 0.202004
vt 0.445872 0.213288
vt 0.445872 0.224573
vt 0.552172 0.224573
vt 0.552172 0.202004
vt 0.552172 0.342388
vt 0.445872 0.342388
vt 0.445872 0.331103
vt 0.445872 0.319818
vt 0.552172 0.319818
vt 0.500001 0.404737
vt 0.511753 0.404737
vt 0.491690 0.399203
vt 0.488248 0.404737
vt 0.508311 0.399203
vt 0.511753 0.404737
vt 0.499965 0.402663
vt 0.419829 0.404737
vt 0.445872 0.106758
vt 0.445872 0.127901
vt 0.445872 0.180860
vt 0.445872 0.186809
vt 0.445872 0.239768
vt 0.445872 0.245716
vt 0.445872 0.298675
vt 0.445872 0.304623
vt 0.445872 0.357583
vt 0.445872 0.363531
vt 0.445872 0.390010
vt 0.445826 0.404737
vt 0.445872 0.106758
vt 0.445826 0.399203
vt 0.552217 0.399203
vt 0.552172 0.378726
vt 0.445872 0.378726
vt 0.488248 0.404737
vt 0.445872 0.452360
vt 0.445872 0.441075
vt 0.552172 0.441075
vt 0.552172 0.452360
vt 0.552172 0.463645
vt 0.445872 0.463645
vt 0.488248 0.404737
vt 0.511753 0.404737
vt 0.511753 0.425880
vt 0.500001 0.437633
vt 0.488248 0.425880
vt 0.552172 0.558890
vt 0.445872 0.558890
vt 0.445872 0.570175
vt 0.445872 0.581459
vt 0.552172 0.581459
vt 0.552172 0.570175
vt 0.491690 0.441075
vt 0.488248 0.452360
vt 0.491690 0.499983
vt 0.488248 0.511267
vt 0.488248 0.484788
vt 0.491690 0.558890
vt 0.488248 0.570175
vt 0.488248 0.543695
vt 0.491690 0.617798
vt 0.488248 0.629082
vt 0.488248 0.602603
vt 0.491690 0.676705
vt 0.488248 0.687990
vt 0.488248 0.661510
vt 0.511753 0.452360
vt 0.508311 0.441075
vt 0.511753 0.511267
vt 0.508311 0.499983
vt 0.511753 0.484788
vt 0.511753 0.570175
vt 0.508311 0.558890
vt 0.511753 0.543695
vt 0.511753 0.629082
vt 0.508311 0.617798
vt 0.511753 0.602603
vt 0.500001 0.496541
vt 0.488248 0.478840
vt 0.491690 0.463645
vt 0.500001 0.467087
vt 0.508311 0.463645
vt 0.511753 0.478840
vt 0.511753 0.687990
vt 0.508311 0.676705
vt 0.511753 0.661510
vt 0.578214 0.702716
vt 0.552217 0.702716
vt 0.552172 0.687990
vt 0.552172 0.661510
vt 0.552172 0.655562
vt 0.552172 0.629082
vt 0.552172 0.602603
vt 0.552172 0.596654
vt 0.552172 0.543695
vt 0.552172 0.537747
vt 0.552172 0.511267
vt 0.552172 0.484788
vt 0.552172 0.478840
vt 0.552172 0.425880
vt 0.552172 0.404737
vt 0.552172 0.404737
vt 0.500001 0.555448
vt 0.488248 0.537747
vt 0.491690 0.522552
vt 0.500001 0.525994
vt 0.508311 0.522552
vt 0.511753 0.537747
vt 0.500001 0.614355
vt 0.488248 0.596654
vt 0.491690 0.581459
vt 0.500001 0.584902
vt 0.508311 0.581459
vt 0.511753 0.596654
vt 0.500001 0.673263
vt 0.488248 0.655562
vt 0.491690 0.640367
vt 0.500001 0.643809
vt 0.508311 0.640367
vt 0.511753 0.655562
vt 0.445872 0.499983
vt 0.445872 0.511267
vt 0.445872 0.522552
vt 0.552172 0.522552
vt 0.552172 0.499983
vt 0.552172 0.640367
vt 0.445872 0.640367
vt 0.445872 0.629082
vt 0.445872 0.617798
vt 0.552172 0.617798
vt 0.500001 0.702716
vt 0.511753 0.702716
vt 0.491690 0.697183
vt 0.488248 0.702716
vt 0.508311 0.697183
vt 0.511753 0.702716
vt 0.499965 0.700642
vt 0.419829 0.702716
vt 0.445872 0.404737
vt 0.445872 0.425880
vt 0.445872 0.478840
vt 0.445872 0.484788
vt 0.445872 0.537747
vt 0.445872 0.543695
vt 0.445872 0.596654
vt 0.445872 0.602603
vt 0.445872 0.655562
vt 0.445872 0.661510
vt 0.445872 0.687990
vt 0.445826 0.702716
vt 0.445872 0.404737
vt 0.445826 0.697183
vt 0.552217 0.697183
vt 0.552172 0.676705
vt 0.445872 0.676705
vt 0.488248 0.702716
vt 0.445872 0.750339
vt 0.445872 0.739055
vt 0.552172 0.739055
vt 0.552172 0.750339
vt 0.552172 0.761624
vt 0.445872 0.761624
vt 0.488248 0.702717
vt 0.511753 0.702717
vt 0.511753 0.723860
vt 0.500001 0.735613
vt 0.488248 0.723860
vt 0.552172 0.856870
vt 0.445872 0.856870
vt 0.445872 0.868154
vt 0.445872 0.879439
vt 0.552172 0.879439
vt 0.552172 0.868154
vt 0.491690 0.739055
vt 0.488248 0.750339
vt 0.491690 0.797962
vt 0.488248 0.809247
vt 0.488248 0.782767
vt 0.491690 0.856870
vt 0.488248 0.868154
vt 0.488248 0.841675
vt 0.491690 0.915777
vt 0.488248 0.927062
vt 0.488248 0.900582
vt 0.491690 0.974684
vt 0.488248 0.985969
vt 0.488248 0.959489
vt 0.511753 0.750339
vt 0.508311 0.739055
vt 0.511753 0.809247
vt 0.508311 0.797962
vt 0.511753 0.782767
vt 0.511753 0.868154
vt 0.508311 0.856870
vt 0.511753 0.841675
vt 0.511753 0.927062
vt 0.508311 0.915777
vt 0.511753 0.900582
vt 0.500001 0.794520
vt 0.488248 0.776819
vt 0.491690 0.761624
vt 0.500001 0.765066
vt 0.508311 0.761624
vt 0.511753 0.776819
vt 0.511753 0.985969
vt 0.508311 0.974684
vt 0.511753 0.959489
vt 0.578214 1.000696
vt 0.552217 1.000696
vt 0.552172 0.985969
vt 0.552172 0.959489
vt 0.552172 0.953541
vt 0.552172 0.927062
vt 0.552172 0.900582
vt 0.552172 0.894634
vt 0.552172 0.841675
vt 0.552172 0.835726
vt 0.552172 0.809247
vt 0.552172 0.782767
vt 0.552172 0.776819
vt 0.552172 0.723860
vt 0.552172 0.702717
vt 0.578214 0.702717
vt 0.500001 0.853427
vt 0.488248 0.835726
vt 0.491690 0.820531
vt 0.500001 0.823974
vt 0.508311 0.820531
vt 0.511753 0.835726
vt 0.500001 0.912335
vt 0.488248 0.894634
vt 0.491690 0.879439
vt 0.500001 0.882881
vt 0.508311 0.879439
vt 0.511753 0.894634
vt 0.500001 0.971242
vt 0.488248 0.953541
vt 0.491690 0.938346
vt 0.500001 0.941788
vt 0.508311 0.938346
vt 0.511753 0.953541
vt 0.445872 0.797962
vt 0.445872 0.809247
vt 0.445872 0.820531
vt 0.552172 0.820531
vt 0.552172 0.797962
vt 0.552172 0.938346
vt 0.445872 0.938346
vt 0.445872 0.927062
vt 0.445872 0.915777
vt 0.552172 0.915777
vt 0.511753 0.702717
vt 0.500001 0.702717
vt 0.500001 1.000696
vt 0.511753 1.000696
vt 0.491690 0.995162
vt 0.488248 1.000696
vt 0.508311 0.995162
vt 0.511753 1.000696
vt 0.499965 0.998621
vt 0.419829 1.000696
vt 0.419829 0.702717
vt 0.445872 0.702717
vt 0.445872 0.723860
vt 0.445872 0.776819
vt 0.445872 0.782767
vt 0.445872 0.835726
vt 0.445872 0.841675
vt 0.445872 0.894634
vt 0.445872 0.900582
vt 0.445872 0.953541
vt 0.445872 0.959489
vt 0.445872 0.985969
vt 0.445826 1.000696
vt 0.445826 0.995162
vt 0.552217 0.995162
vt 0.552172 0.974684
vt 0.445872 0.974684
vt 0.488248 0.702717
vt 0.488248 1.000696
vt 0.552217 0.106758
vt 0.552172 0.065551
vt 0.552172 0.059603
vt 0.552172 0.006644
vt 0.552172 0.000696
vt 0.578214 0.000696
vt 0.430263 0.184628
vt 0.569737 0.184628
vt 0.569736 0.030101
vt 0.500000 0.000000
vt 0.430264 0.030101
vt 0.430263 0.815372
vt 0.430264 0.969899
vt 0.500000 1.000000
vt 0.569736 0.969899
vt 0.569737 0.815372
s 1
g Ladder_2_Old_metal_plate
usemtl Old_metal_plate
f 23/1/1 52/2/1 50/3/2 21/4/2
f 44/5/3 34/3/4 5/4/4 15/6/3
s 2
f 8/7/5 6/8/5 7/9/5
s 3
f 12/10/5 10/11/5 11/12/5
s 2
f 13/13/5 15/14/5 14/15/5
s 3
f 16/16/5 18/17/5 17/18/5
f 9/19/5 12/10/5 11/12/5 22/20/5 23/21/5 21/22/5 25/23/5 24/24/5 17/18/5 18/17/5
f 6/8/5 23/21/5 22/20/5
f 25/23/5 13/13/5 24/24/5
s 4
f 38/3/4 41/2/6 12/1/6 9/4/4
s 1
f 5/4/4 34/3/4 37/2/7 8/1/7
f 50/3/2 54/5/8 25/6/8 21/4/2
f 25/25/8 54/26/8 42/27/9 44/28/3 15/29/3 13/30/9
s 2
f 4/31/10 59/32/11 60/33/12 2/34/13
s 4
f 18/6/14 47/5/14 38/3/4 9/4/4
s 5
f 10/11/15 27/35/16 26/36/17
f 29/37/18 28/38/19 26/36/17 27/35/16 63/39/5
f 16/16/20 28/38/19 29/37/18
s 6
f 2/40/2 60/41/2 1/42/2 26/43/2 28/44/2
s 7
f 37/7/12 36/9/12 35/8/12
s 8
f 41/10/12 40/12/12 39/11/12
s 7
f 49/45/21 43/46/22 42/27/9 53/47/9 46/48/9 45/49/9 57/50/9 31/51/23 33/52/24
f 42/13/12 43/15/22 44/14/12
s 8
f 45/16/12 46/18/12 47/17/12
f 40/12/12 41/10/12 38/19/12 47/17/12 46/18/12 53/24/12 54/23/12 50/22/12 52/21/12 51/20/12
s 7
f 48/53/25 36/9/12 37/7/12 34/54/12 44/14/12 43/15/22 49/31/21
s 2
f 14/15/5 15/14/5 5/54/5 8/7/5 7/9/5 19/53/26 20/31/27
s 8
f 35/8/12 51/20/12 52/21/12
f 54/23/12 53/24/12 42/13/12
s 7
f 61/33/5 62/32/28 33/31/24 31/34/23
s 9
f 39/11/29 55/36/30 56/35/31
f 58/37/32 64/39/12 56/35/31 55/36/30 57/38/33
f 45/16/34 58/37/32 57/38/33
s 10
f 31/55/2 57/56/2 55/57/2 30/58/2 61/59/2
s 1
f 35/27/35 52/26/1 23/25/1 6/30/35 8/29/7 37/28/7
s 4
f 39/49/36 56/60/37 27/61/37 10/62/36 12/63/6 41/64/6
f 58/60/38 45/49/39 47/64/14 18/63/14 16/62/39 29/61/38
s 2
f 60/33/12 59/32/11 3/65/40 1/66/41
s 7
f 61/33/5 30/66/42 32/65/43 62/32/28
s 4
f 27/67/37 56/68/37 64/69/44 63/70/44
f 58/71/38 29/72/38 63/70/44 64/69/44
s 11
f 173/2/1 171/3/2 106/4/2 108/1/1
f 154/73/9 156/74/3 91/75/3 89/76/9 110/77/8 175/78/8
s 12
f 123/1/1 188/2/1 186/3/2 121/4/2
s 13
f 104/79/5 105/80/5 90/81/5 69/82/5 71/83/5
s 12
f 165/5/3 146/3/4 81/4/4 100/6/3
s 14
f 80/84/7 145/85/7 143/86/35 183/87/1 118/88/1 78/89/35
s 11
f 106/4/2 171/3/2 175/5/8 110/6/8
s 14
f 185/87/8 160/86/9 162/85/3 97/84/3 95/89/9 120/88/8
s 13
f 69/82/5 72/90/5 71/83/5
f 72/90/5 70/91/5 71/83/5
s 15
f 76/92/5 74/93/5 75/94/5
s 16
f 80/95/5 78/96/5 79/97/5
s 17
f 84/98/5 82/99/5 83/100/5
s 18
f 88/101/5 86/102/5 87/103/5
s 13
f 89/104/5 91/105/5 90/81/5
f 91/105/5 69/82/5 90/81/5
s 15
f 92/106/5 94/107/5 93/108/5
s 16
f 95/109/5 97/110/5 96/111/5
s 17
f 98/112/5 100/113/5 99/114/5
s 15
f 73/115/5 76/92/5 75/94/5 107/116/5 108/117/5 106/118/5 110/119/5 109/120/5 93/108/5 94/107/5
s 18
f 101/121/5 103/122/5 102/123/5
s 2
f 66/124/13 128/125/9 101/126/9 102/127/9 124/128/9 98/129/9 99/130/9 119/131/9 95/89/9 96/132/9 114/133/9 92/134/9 93/135/9 109/136/9 89/76/9 90/137/9 105/138/9 68/139/13
f 67/139/45 104/140/35 71/137/35 70/76/35 107/136/35 75/135/35 74/134/35 112/133/35 79/132/35 78/89/35 117/131/35 83/130/35 82/129/35 122/128/35 87/127/35 86/126/35 126/125/35 65/124/41
s 15
f 70/91/5 108/117/5 107/116/5
s 16
f 77/141/5 80/95/5 79/97/5 112/142/5 113/143/5 111/144/5 115/145/5 114/146/5 96/111/5 97/110/5
s 15
f 110/119/5 89/104/5 109/120/5
s 16
f 74/93/5 113/143/5 112/142/5
s 17
f 81/147/5 84/98/5 83/100/5 117/148/5 118/149/5 116/150/5 120/151/5 119/152/5 99/114/5 100/113/5
s 16
f 115/145/5 92/106/5 114/146/5
s 17
f 78/96/5 118/149/5 117/148/5
s 18
f 85/153/5 88/101/5 87/103/5 122/154/5 123/155/5 121/156/5 125/157/5 124/158/5 102/123/5 103/122/5
s 17
f 120/151/5 95/109/5 119/152/5
s 18
f 82/99/5 123/155/5 122/154/5
f 125/157/5 98/112/5 124/158/5
s 19
f 141/159/7 139/160/35 178/161/1 113/162/1 74/134/35 76/163/7
s 20
f 150/3/4 153/2/6 88/1/6 85/4/4
s 19
f 138/3/4 141/2/7 76/1/7 73/4/4
f 113/1/1 178/2/1 176/3/2 111/4/2
s 12
f 81/4/4 146/3/4 149/2/7 84/1/7
s 11
f 72/75/7 137/74/7 135/73/35 173/78/1 108/77/1 70/76/35
s 14
f 181/3/2 185/5/8 120/6/8 116/4/2
f 97/6/3 162/5/3 142/3/4 77/4/4
f 77/4/4 142/3/4 145/2/7 80/1/7
s 12
f 186/3/2 190/5/8 125/6/8 121/4/2
s 19
f 94/6/3 159/5/3 138/3/4 73/4/4
s 11
f 134/3/4 137/2/7 72/1/7 69/4/4
s 12
f 125/164/8 190/165/8 163/166/9 165/167/3 100/168/3 98/129/9
s 19
f 180/161/8 157/160/9 159/159/3 94/163/3 92/134/9 115/162/8
s 11
f 156/5/3 134/3/4 69/4/4 91/6/3
s 19
f 176/3/2 180/5/8 115/6/8 111/4/2
s 2
f 68/34/13 195/33/12 196/169/12 66/170/13
s 20
f 103/6/14 168/5/14 150/3/4 85/4/4
s 14
f 183/2/1 181/3/2 116/4/2 118/1/1
s 21
f 86/102/15 127/171/16 126/172/17
f 129/173/18 128/174/19 126/172/17 127/171/16 199/175/5
f 101/121/20 128/174/19 129/173/18
s 22
f 66/40/2 196/41/2 65/42/2 126/43/2 128/44/2
s 23
f 136/83/12 137/90/12 134/82/12 156/105/12 155/81/12 170/80/12 169/79/12
f 137/90/12 136/83/12 135/91/12
s 24
f 141/92/12 140/94/12 139/93/12
s 25
f 145/95/12 144/97/12 143/96/12
s 26
f 149/98/12 148/100/12 147/99/12
s 27
f 153/101/12 152/103/12 151/102/12
s 23
f 154/104/12 155/81/12 156/105/12
s 24
f 157/106/12 158/108/12 159/107/12
f 140/94/12 141/92/12 138/115/12 159/107/12 158/108/12 174/120/12 175/119/12 171/118/12 173/117/12 172/116/12
s 25
f 160/109/12 161/111/12 162/110/12
s 26
f 163/112/12 164/114/12 165/113/12
s 27
f 166/121/12 167/123/12 168/122/12
f 152/103/12 153/101/12 150/153/12 168/122/12 167/123/12 189/158/12 190/157/12 186/156/12 188/155/12 187/154/12
s 7
f 131/176/23 133/51/23 170/177/9 155/178/9 154/73/9 174/179/9 158/180/9 157/160/9 179/181/9 161/182/9 160/86/9 184/183/9 164/184/9 163/166/9 189/185/9 167/186/9 166/187/9 193/188/9
f 132/51/46 130/176/42 191/188/35 151/187/35 152/186/35 187/185/35 147/166/35 148/184/35 182/183/35 143/86/35 144/182/35 177/181/35 139/160/35 140/180/35 172/179/35 135/73/35 136/178/35 169/189/35
s 24
f 135/91/12 172/116/12 173/117/12
s 25
f 144/97/12 145/95/12 142/141/12 162/110/12 161/111/12 179/146/12 180/145/12 176/144/12 178/143/12 177/142/12
s 24
f 175/119/12 174/120/12 154/104/12
s 25
f 139/93/12 177/142/12 178/143/12
f 180/145/12 179/146/12 157/106/12
s 26
f 143/96/12 182/148/12 183/149/12
f 165/113/12 164/114/12 184/152/12 185/151/12 181/150/12 183/149/12 182/148/12 148/100/12 149/98/12 146/147/12
f 185/151/12 184/152/12 160/109/12
s 27
f 147/99/12 187/154/12 188/155/12
f 190/157/12 189/158/12 163/112/12
s 7
f 197/169/5 198/33/5 133/34/23 131/170/23
s 28
f 151/102/29 191/172/30 192/171/31
f 194/173/32 200/175/12 192/171/31 191/172/30 193/174/33
f 166/121/34 194/173/32 193/174/33
s 29
f 131/55/2 193/56/2 191/57/2 130/58/2 197/59/2
s 12
f 147/166/35 188/165/1 123/164/1 82/129/35 84/168/7 149/167/7
s 20
f 151/187/36 192/190/37 127/191/37 86/126/36 88/192/6 153/193/6
f 194/190/38 166/187/39 168/193/14 103/192/14 101/126/39 129/191/38
s 2
f 196/169/12 195/33/12 67/66/45 65/194/41
s 7
f 197/169/5 130/194/42 132/66/46 198/33/5
s 20
f 127/67/37 192/68/37 200/69/44 199/70/44
f 194/71/38 129/72/38 199/70/44 200/69/44
s 30
f 309/2/1 307/3/2 242/4/2 244/1/1
f 290/195/9 292/196/3 227/197/3 225/198/9 246/199/8 311/200/8
s 31
f 259/1/1 324/2/1 322/3/2 257/4/2
s 32
f 240/201/5 241/202/5 226/203/5 205/204/5 207/205/5
s 31
f 301/5/3 282/3/4 217/4/4 236/6/3
s 33
f 216/206/7 281/207/7 279/208/35 319/209/1 254/210/1 214/211/35
s 30
f 242/4/2 307/3/2 311/5/8 246/6/8
s 33
f 321/209/8 296/208/9 298/207/3 233/206/3 231/211/9 256/210/8
s 32
f 205/204/5 208/212/5 207/205/5
f 208/212/5 206/213/5 207/205/5
s 34
f 212/214/5 210/215/5 211/216/5
s 35
f 216/217/5 214/218/5 215/219/5
s 36
f 220/220/5 218/221/5 219/222/5
s 37
f 224/223/5 222/224/5 223/225/5
s 32
f 225/226/5 227/227/5 226/203/5
f 227/227/5 205/204/5 226/203/5
s 34
f 228/228/5 230/229/5 229/230/5
s 35
f 231/231/5 233/232/5 232/233/5
s 36
f 234/234/5 236/235/5 235/236/5
s 34
f 209/237/5 212/214/5 211/216/5 243/238/5 244/239/5 242/240/5 246/241/5 245/242/5 229/230/5 230/229/5
s 37
f 237/243/5 239/244/5 238/245/5
s 38
f 202/246/13 264/247/9 237/248/9 238/249/9 260/250/9 234/251/9 235/252/9 255/253/9 231/211/9 232/254/9 250/255/9 228/256/9 229/257/9 245/258/9 225/198/9 226/259/9 241/260/9 204/124/13
f 203/124/41 240/261/35 207/259/35 206/198/35 243/258/35 211/257/35 210/256/35 248/255/35 215/254/35 214/211/35 253/253/35 219/252/35 218/251/35 258/250/35 223/249/35 222/248/35 262/247/35 201/246/41
s 34
f 206/213/5 244/239/5 243/238/5
s 35
f 213/262/5 216/217/5 215/219/5 248/263/5 249/264/5 247/265/5 251/266/5 250/267/5 232/233/5 233/232/5
s 34
f 246/241/5 225/226/5 245/242/5
s 35
f 210/215/5 249/264/5 248/263/5
s 36
f 217/268/5 220/220/5 219/222/5 253/269/5 254/270/5 252/271/5 256/272/5 255/273/5 235/236/5 236/235/5
s 35
f 251/266/5 228/228/5 250/267/5
s 36
f 214/218/5 254/270/5 253/269/5
s 37
f 221/274/5 224/223/5 223/225/5 258/275/5 259/276/5 257/277/5 261/278/5 260/279/5 238/245/5 239/244/5
s 36
f 256/272/5 231/231/5 255/273/5
s 37
f 218/221/5 259/276/5 258/275/5
f 261/278/5 234/234/5 260/279/5
s 39
f 277/280/7 275/281/35 314/282/1 249/283/1 210/256/35 212/284/7
s 40
f 286/3/4 289/2/6 224/1/6 221/4/4
s 39
f 274/3/4 277/2/7 212/1/7 209/4/4
f 249/1/1 314/2/1 312/3/2 247/4/2
s 31
f 217/4/4 282/3/4 285/2/7 220/1/7
s 30
f 208/197/7 273/196/7 271/195/35 309/200/1 244/199/1 206/198/35
s 33
f 317/3/2 321/5/8 256/6/8 252/4/2
f 233/6/3 298/5/3 278/3/4 213/4/4
f 213/4/4 278/3/4 281/2/7 216/1/7
s 31
f 322/3/2 326/5/8 261/6/8 257/4/2
s 39
f 230/6/3 295/5/3 274/3/4 209/4/4
s 30
f 270/3/4 273/2/7 208/1/7 205/4/4
s 31
f 261/285/8 326/286/8 299/287/9 301/288/3 236/289/3 234/251/9
s 39
f 316/282/8 293/281/9 295/280/3 230/284/3 228/256/9 251/283/8
s 30
f 292/5/3 270/3/4 205/4/4 227/6/3
s 39
f 312/3/2 316/5/8 251/6/8 247/4/2
s 38
f 204/170/13 331/169/12 332/290/12 202/291/13
s 40
f 239/6/14 304/5/14 286/3/4 221/4/4
s 33
f 319/2/1 317/3/2 252/4/2 254/1/1
s 41
f 222/224/15 263/292/16 262/293/17
f 265/294/18 264/295/19 262/293/17 263/292/16 335/296/5
f 237/243/20 264/295/19 265/294/18
s 42
f 202/40/2 332/41/2 201/42/2 262/43/2 264/44/2
s 43
f 272/205/12 273/212/12 270/204/12 292/227/12 291/203/12 306/202/12 305/201/12
f 273/212/12 272/205/12 271/213/12
s 44
f 277/214/12 276/216/12 275/215/12
s 45
f 281/217/12 280/219/12 279/218/12
s 46
f 285/220/12 284/222/12 283/221/12
s 47
f 289/223/12 288/225/12 287/224/12
s 43
f 290/226/12 291/203/12 292/227/12
s 44
f 293/228/12 294/230/12 295/229/12
f 276/216/12 277/214/12 274/237/12 295/229/12 294/230/12 310/242/12 311/241/12 307/240/12 309/239/12 308/238/12
s 45
f 296/231/12 297/233/12 298/232/12
s 46
f 299/234/12 300/236/12 301/235/12
s 47
f 302/243/12 303/245/12 304/244/12
f 288/225/12 289/223/12 286/274/12 304/244/12 303/245/12 325/279/12 326/278/12 322/277/12 324/276/12 323/275/12
s 48
f 267/297/23 269/176/23 306/298/9 291/299/9 290/195/9 310/300/9 294/301/9 293/281/9 315/302/9 297/303/9 296/208/9 320/304/9 300/305/9 299/287/9 325/306/9 303/307/9 302/308/9 329/309/9
f 268/176/42 266/297/42 327/309/35 287/308/35 288/307/35 323/306/35 283/287/35 284/305/35 318/304/35 279/208/35 280/303/35 313/302/35 275/281/35 276/301/35 308/300/35 271/195/35 272/299/35 305/310/35
s 44
f 271/213/12 308/238/12 309/239/12
s 45
f 280/219/12 281/217/12 278/262/12 298/232/12 297/233/12 315/267/12 316/266/12 312/265/12 314/264/12 313/263/12
s 44
f 311/241/12 310/242/12 290/226/12
s 45
f 275/215/12 313/263/12 314/264/12
f 316/266/12 315/267/12 293/228/12
s 46
f 279/218/12 318/269/12 319/270/12
f 301/235/12 300/236/12 320/273/12 321/272/12 317/271/12 319/270/12 318/269/12 284/222/12 285/220/12 282/268/12
f 321/272/12 320/273/12 296/231/12
s 47
f 283/221/12 323/275/12 324/276/12
f 326/278/12 325/279/12 299/234/12
s 48
f 333/290/5 334/169/5 269/170/23 267/291/23
s 49
f 287/224/29 327/293/30 328/292/31
f 330/294/32 336/296/12 328/292/31 327/293/30 329/295/33
f 302/243/34 330/294/32 329/295/33
s 50
f 267/55/2 329/56/2 327/57/2 266/58/2 333/59/2
s 31
f 283/287/35 324/286/1 259/285/1 218/251/35 220/289/7 285/288/7
s 40
f 287/308/36 328/311/37 263/312/37 222/248/36 224/313/6 289/314/6
f 330/311/38 302/308/39 304/314/14 239/313/14 237/248/39 265/312/38
s 38
f 332/290/12 331/169/12 203/194/41 201/315/41
s 48
f 333/290/5 266/315/42 268/194/42 334/169/5
s 40
f 263/67/37 328/68/37 336/69/44 335/70/44
f 330/71/38 265/72/38 335/70/44 336/69/44
s 51
f 445/2/1 443/3/2 378/4/2 380/1/1
f 426/316/9 428/317/3 363/318/3 361/319/9 382/320/8 447/321/8
s 52
f 395/1/1 460/2/1 458/3/2 393/4/2
s 53
f 376/322/5 377/323/5 362/324/5 341/325/5 343/326/5
s 52
f 437/5/3 418/3/4 353/4/4 372/6/3
s 54
f 352/327/7 417/328/7 415/329/35 455/330/1 390/331/1 350/332/35
s 51
f 378/4/2 443/3/2 447/5/8 382/6/8
s 54
f 457/330/8 432/329/9 434/328/3 369/327/3 367/332/9 392/331/8
s 53
f 341/325/5 344/333/5 343/326/5
f 344/333/5 342/334/5 343/326/5
s 55
f 348/335/5 346/336/5 347/337/5
s 56
f 352/338/5 350/339/5 351/340/5
s 57
f 356/341/5 354/342/5 355/343/5
s 58
f 360/344/5 358/345/5 359/346/5
s 53
f 361/347/5 363/348/5 362/324/5
f 363/348/5 341/325/5 362/324/5
s 55
f 364/349/5 366/350/5 365/351/5
s 56
f 367/352/5 369/353/5 368/354/5
s 57
f 370/355/5 372/356/5 371/357/5
s 55
f 345/358/5 348/335/5 347/337/5 379/359/5 380/360/5 378/361/5 382/362/5 381/363/5 365/351/5 366/350/5
s 58
f 373/364/5 375/365/5 374/366/5
s 59
f 338/367/13 400/368/9 373/369/9 374/370/9 396/371/9 370/372/9 371/373/9 391/374/9 367/332/9 368/375/9 386/376/9 364/377/9 365/378/9 381/379/9 361/319/9 362/380/9 377/381/9 340/382/13
f 339/382/41 376/381/35 343/380/35 342/319/35 379/379/35 347/378/35 346/377/35 384/376/35 351/375/35 350/332/35 389/374/35 355/373/35 354/372/35 394/371/35 359/370/35 358/369/35 398/368/35 337/367/41
s 55
f 342/334/5 380/360/5 379/359/5
s 56
f 349/383/5 352/338/5 351/340/5 384/384/5 385/385/5 383/386/5 387/387/5 386/388/5 368/354/5 369/353/5
s 55
f 382/362/5 361/347/5 381/363/5
s 56
f 346/336/5 385/385/5 384/384/5
s 57
f 353/389/5 356/341/5 355/343/5 389/390/5 390/391/5 388/392/5 392/393/5 391/394/5 371/357/5 372/356/5
s 56
f 387/387/5 364/349/5 386/388/5
s 57
f 350/339/5 390/391/5 389/390/5
s 58
f 357/395/5 360/344/5 359/346/5 394/396/5 395/397/5 393/398/5 397/399/5 396/400/5 374/366/5 375/365/5
s 57
f 392/393/5 367/352/5 391/394/5
s 58
f 354/342/5 395/397/5 394/396/5
f 397/399/5 370/355/5 396/400/5
s 60
f 413/401/7 411/402/35 450/403/1 385/404/1 346/377/35 348/405/7
s 61
f 422/3/4 425/2/6 360/1/6 357/4/4
s 60
f 410/3/4 413/2/7 348/1/7 345/4/4
f 385/1/1 450/2/1 448/3/2 383/4/2
s 52
f 353/4/4 418/3/4 421/2/7 356/1/7
s 51
f 344/318/7 409/317/7 407/316/35 445/321/1 380/320/1 342/319/35
s 54
f 453/3/2 457/5/8 392/6/8 388/4/2
f 369/6/3 434/5/3 414/3/4 349/4/4
f 349/4/4 414/3/4 417/2/7 352/1/7
s 52
f 458/3/2 462/5/8 397/6/8 393/4/2
s 60
f 366/6/3 431/5/3 410/3/4 345/4/4
s 51
f 406/3/4 409/2/7 344/1/7 341/4/4
s 52
f 397/406/8 462/407/8 435/408/9 437/409/3 372/410/3 370/372/9
s 60
f 452/403/8 429/402/9 431/401/3 366/405/3 364/377/9 387/404/8
s 51
f 428/5/3 406/3/4 341/4/4 363/6/3
s 60
f 448/3/2 452/5/8 387/6/8 383/4/2
s 59
f 340/411/13 467/412/12 468/413/12 338/414/13
s 61
f 375/6/14 440/5/14 422/3/4 357/4/4
s 54
f 455/2/1 453/3/2 388/4/2 390/1/1
s 62
f 358/345/15 399/415/16 398/416/17
f 401/417/18 400/418/19 398/416/17 399/415/16 471/419/5
f 373/364/20 400/418/19 401/417/18
s 63
f 338/40/2 468/41/2 337/42/2 398/43/2 400/44/2
s 64
f 408/326/12 409/333/12 406/325/12 428/348/12 427/324/12 442/323/12 441/322/12
f 409/333/12 408/326/12 407/334/12
s 65
f 413/335/12 412/337/12 411/336/12
s 66
f 417/338/12 416/340/12 415/339/12
s 67
f 421/341/12 420/343/12 419/342/12
s 68
f 425/344/12 424/346/12 423/345/12
s 64
f 426/347/12 427/324/12 428/348/12
s 65
f 429/349/12 430/351/12 431/350/12
f 412/337/12 413/335/12 410/358/12 431/350/12 430/351/12 446/363/12 447/362/12 443/361/12 445/360/12 444/359/12
s 66
f 432/352/12 433/354/12 434/353/12
s 67
f 435/355/12 436/357/12 437/356/12
s 68
f 438/364/12 439/366/12 440/365/12
f 424/346/12 425/344/12 422/395/12 440/365/12 439/366/12 461/400/12 462/399/12 458/398/12 460/397/12 459/396/12
s 69
f 403/420/23 405/421/23 442/422/9 427/423/9 426/316/9 446/424/9 430/425/9 429/402/9 451/426/9 433/427/9 432/329/9 456/428/9 436/429/9 435/408/9 461/430/9 439/431/9 438/432/9 465/433/9
f 404/421/42 402/420/42 463/433/35 423/432/35 424/431/35 459/430/35 419/408/35 420/429/35 454/428/35 415/329/35 416/427/35 449/426/35 411/402/35 412/425/35 444/424/35 407/316/35 408/423/35 441/422/35
s 65
f 407/334/12 444/359/12 445/360/12
s 66
f 416/340/12 417/338/12 414/383/12 434/353/12 433/354/12 451/388/12 452/387/12 448/386/12 450/385/12 449/384/12
s 65
f 447/362/12 446/363/12 426/347/12
s 66
f 411/336/12 449/384/12 450/385/12
f 452/387/12 451/388/12 429/349/12
s 67
f 415/339/12 454/390/12 455/391/12
f 437/356/12 436/357/12 456/394/12 457/393/12 453/392/12 455/391/12 454/390/12 420/343/12 421/341/12 418/389/12
f 457/393/12 456/394/12 432/352/12
s 68
f 419/342/12 459/396/12 460/397/12
f 462/399/12 461/400/12 435/355/12
s 69
f 469/413/5 470/412/5 405/411/23 403/414/23
s 70
f 423/345/29 463/416/30 464/415/31
f 466/417/32 472/419/12 464/415/31 463/416/30 465/418/33
f 438/364/34 466/417/32 465/418/33
s 71
f 403/55/2 465/56/2 463/57/2 402/58/2 469/59/2
s 52
f 419/408/35 460/407/1 395/406/1 354/372/35 356/410/7 421/409/7
s 61
f 423/432/36 464/434/37 399/435/37 358/369/36 360/436/6 425/437/6
f 466/434/38 438/432/39 440/437/14 375/436/14 373/369/39 401/435/38
s 59
f 468/413/12 467/412/12 339/438/41 337/439/41
s 69
f 469/413/5 402/439/42 404/438/42 470/412/5
s 61
f 399/67/37 464/68/37 472/69/44 471/70/44
f 466/71/38 401/72/38 471/70/44 472/69/44
s 2
f 2/139/13 28/440/9 16/62/9 17/441/9 24/442/9 13/30/9 14/443/9 20/444/27 4/445/10
f 1/139/41 3/445/40 19/444/26 7/443/35 6/30/35 22/442/35 11/441/35 10/62/35 26/440/35 104/140/35 67/139/45
s 7
f 48/45/25 32/52/43 30/51/42 132/51/46 169/189/35 55/50/35 39/49/35 40/48/35 51/47/35 35/27/35 36/46/35
f 48/446/25 49/447/21 33/448/24 62/449/28 32/450/43
s 2
f 19/451/26 3/452/40 59/453/11 4/454/10 20/455/27
