# Blender 4.5.4 LTS
# www.blender.org
mtllib Ladder_3.mtl
g Ladder_3_Vert.002
v -78.115349 -5.004010 2.824532
v -77.925873 -5.004010 2.824532
v -78.115349 -6.665991 2.824532
v -77.925873 -6.665991 2.824532
v -78.020615 -6.665990 3.034459
v -78.115349 -6.547276 3.034459
v -78.115349 -6.665990 3.034459
v -78.087601 -6.638242 3.034459
v -78.020615 -6.191138 3.034459
v -78.115349 -6.072425 3.034459
v -78.115349 -6.285876 3.034459
v -78.087601 -6.163390 3.034459
v -78.020615 -5.716287 3.034459
v -78.115349 -5.597574 3.034459
v -78.115349 -5.811025 3.034459
v -78.087601 -5.688539 3.034459
v -78.020615 -5.241436 3.034459
v -78.115349 -5.122723 3.034459
v -78.115349 -5.336174 3.034459
v -78.087601 -5.213687 3.034459
v -77.925873 -6.495555 3.034459
v -77.925873 -6.547276 3.034459
v -77.925873 -6.665990 3.034459
v -77.953621 -6.638242 3.034459
v -77.925873 -6.072425 3.034459
v -77.925873 -6.285876 3.034459
v -77.953621 -6.163390 3.034459
v -77.925873 -5.597574 3.034459
v -77.925873 -5.811025 3.034459
v -77.953621 -5.688539 3.034459
v -77.925873 -5.122723 3.034459
v -77.925873 -5.336174 3.034459
v -77.953621 -5.213687 3.034459
v -78.020615 -6.428564 3.034459
v -78.115349 -6.333826 3.034459
v -78.087601 -6.456312 3.034459
v -77.925873 -6.333826 3.034459
v -77.953621 -6.456312 3.034459
v -78.020615 -5.953712 3.034459
v -78.115349 -5.858974 3.034459
v -78.087601 -5.981461 3.034459
v -77.925873 -5.858974 3.034459
v -77.953621 -5.981461 3.034459
v -78.020615 -5.478861 3.034459
v -78.115349 -5.384123 3.034459
v -78.087601 -5.506609 3.034459
v -77.925873 -5.384123 3.034459
v -77.953621 -5.506609 3.034459
v -78.115349 -5.004010 3.034093
v -78.087601 -5.048618 3.034093
v -77.925873 -5.004010 3.034093
v -77.953621 -5.048618 3.034093
v -78.115349 -5.004010 4.101267
v -77.925873 -5.004010 4.101267
v -78.115349 -6.665991 4.101267
v -77.925873 -6.665991 4.101267
v -78.020615 -6.665990 3.891340
v -78.115349 -6.547276 3.891340
v -78.115349 -6.665990 3.891340
v -78.087601 -6.638242 3.891340
v -78.020615 -6.191138 3.891340
v -78.115349 -6.072425 3.891340
v -78.115349 -6.285876 3.891340
v -78.087601 -6.163390 3.891340
v -78.020615 -5.716287 3.891340
v -78.115349 -5.597574 3.891340
v -78.115349 -5.811025 3.891340
v -78.087601 -5.688539 3.891340
v -78.020615 -5.241436 3.891340
v -78.115349 -5.122723 3.891340
v -78.115349 -5.336174 3.891340
v -78.087601 -5.213687 3.891340
v -77.925873 -6.547276 3.891340
v -77.925873 -6.665990 3.891340
v -77.953621 -6.638242 3.891340
v -77.925873 -6.072425 3.891340
v -77.925873 -6.285876 3.891340
v -77.953621 -6.163390 3.891340
v -77.925873 -5.597574 3.891340
v -77.925873 -5.811025 3.891340
v -77.953621 -5.688539 3.891340
v -77.925873 -5.122723 3.891340
v -77.925873 -5.336174 3.891340
v -77.953621 -5.213687 3.891340
v -78.020615 -6.428564 3.891340
v -78.115349 -6.333826 3.891340
v -78.087601 -6.456312 3.891340
v -77.925873 -6.333826 3.891340
v -77.953621 -6.456312 3.891340
v -78.020615 -5.953712 3.891340
v -78.115349 -5.858974 3.891340
v -78.087601 -5.981461 3.891340
v -77.925873 -5.858974 3.891340
v -77.953621 -5.981461 3.891340
v -78.020615 -5.478861 3.891340
v -78.115349 -5.384123 3.891340
v -78.087601 -5.506609 3.891340
v -77.925873 -5.384123 3.891340
v -77.953621 -5.506609 3.891340
v -78.115349 -5.004010 3.891706
v -78.087601 -5.048618 3.891706
v -77.925873 -5.004010 3.891706
v -77.953621 -5.048618 3.891706
v -78.020615 -6.665991 2.783638
v -78.020615 -5.004010 2.783638
v -78.020615 -5.004010 4.142161
v -78.020615 -6.665991 4.142161
v -78.020897 -5.020733 3.034093
v -78.020897 -5.020733 3.891706
v -78.115349 -2.602005 2.824532
v -77.925873 -2.602005 2.824532
v -78.115349 -5.004010 2.824532
v -77.925873 -5.004010 2.824532
v -78.020615 -4.738836 3.034459
v -78.115349 -4.620123 3.034459
v -78.115349 -4.833575 3.034459
v -78.087601 -4.711088 3.034459
v -78.020615 -4.263985 3.034459
v -78.115349 -4.145272 3.034459
v -78.115349 -4.358723 3.034459
v -78.087601 -4.236237 3.034459
v -78.020615 -3.789134 3.034459
v -78.115349 -3.670420 3.034459
v -78.115349 -3.883872 3.034459
v -78.087601 -3.761385 3.034459
v -78.020615 -3.314281 3.034459
v -78.115349 -3.195569 3.034459
v -78.115349 -3.409020 3.034459
v -78.087601 -3.286534 3.034459
v -78.020615 -2.839431 3.034459
v -78.115349 -2.720717 3.034459
v -78.115349 -2.934169 3.034459
v -78.087601 -2.811682 3.034459
v -77.925873 -4.620123 3.034459
v -77.925873 -4.833575 3.034459
v -77.953621 -4.711088 3.034459
v -77.925873 -4.145272 3.034459
v -77.925873 -4.358723 3.034459
v -77.953621 -4.236237 3.034459
v -77.925873 -3.670420 3.034459
v -77.925873 -3.883872 3.034459
v -77.953621 -3.761385 3.034459
v -77.925873 -3.195569 3.034459
v -77.925873 -3.409020 3.034459
v -77.953621 -3.286534 3.034459
v -77.925873 -2.720717 3.034459
v -77.925873 -2.934169 3.034459
v -77.953621 -2.811682 3.034459
v -78.115349 -5.004010 3.034459
v -77.925873 -5.004010 3.034459
v -78.020615 -4.501410 3.034459
v -78.115349 -4.406672 3.034459
v -78.087601 -4.529159 3.034459
v -77.925873 -4.406672 3.034459
v -77.953621 -4.529159 3.034459
v -78.020615 -4.026559 3.034459
v -78.115349 -3.931821 3.034459
v -78.087601 -4.054307 3.034459
v -77.925873 -3.931821 3.034459
v -77.953621 -4.054307 3.034459
v -78.020615 -3.551708 3.034459
v -78.115349 -3.456969 3.034459
v -78.087601 -3.579455 3.034459
v -77.925873 -3.456969 3.034459
v -77.953621 -3.579455 3.034459
v -78.020615 -3.076856 3.034459
v -78.115349 -2.982118 3.034459
v -78.087601 -3.104604 3.034459
v -77.925873 -2.982118 3.034459
v -77.953621 -3.104604 3.034459
v -78.115349 -2.602005 3.034093
v -78.087601 -2.646614 3.034093
v -77.925873 -2.602005 3.034093
v -77.953621 -2.646614 3.034093
v -78.115349 -2.602005 4.101267
v -77.925873 -2.602005 4.101267
v -78.115349 -5.004010 4.101267
v -77.925873 -5.004010 4.101267
v -78.020615 -4.738836 3.891340
v -78.115349 -4.620123 3.891340
v -78.115349 -4.833575 3.891340
v -78.087601 -4.711088 3.891340
v -78.020615 -4.263985 3.891340
v -78.115349 -4.145272 3.891340
v -78.115349 -4.358723 3.891340
v -78.087601 -4.236237 3.891340
v -78.020615 -3.789134 3.891340
v -78.115349 -3.670420 3.891340
v -78.115349 -3.883872 3.891340
v -78.087601 -3.761385 3.891340
v -78.020615 -3.314281 3.891340
v -78.115349 -3.195569 3.891340
v -78.115349 -3.409020 3.891340
v -78.087601 -3.286534 3.891340
v -78.020615 -2.839431 3.891340
v -78.115349 -2.720717 3.891340
v -78.115349 -2.934169 3.891340
v -78.087601 -2.811682 3.891340
v -77.925873 -4.620123 3.891340
v -77.925873 -4.833575 3.891340
v -77.953621 -4.711088 3.891340
v -77.925873 -4.145272 3.891340
v -77.925873 -4.358723 3.891340
v -77.953621 -4.236237 3.891340
v -77.925873 -3.670420 3.891340
v -77.925873 -3.883872 3.891340
v -77.953621 -3.761385 3.891340
v -77.925873 -3.195569 3.891340
v -77.925873 -3.409020 3.891340
v -77.953621 -3.286534 3.891340
v -77.925873 -2.720717 3.891340
v -77.925873 -2.934169 3.891340
v -77.953621 -2.811682 3.891340
v -78.115349 -5.004010 3.891340
v -77.925873 -5.004010 3.891340
v -78.020615 -4.501410 3.891340
v -78.115349 -4.406672 3.891340
v -78.087601 -4.529159 3.891340
v -77.925873 -4.406672 3.891340
v -77.953621 -4.529159 3.891340
v -78.020615 -4.026559 3.891340
v -78.115349 -3.931821 3.891340
v -78.087601 -4.054307 3.891340
v -77.925873 -3.931821 3.891340
v -77.953621 -4.054307 3.891340
v -78.020615 -3.551708 3.891340
v -78.115349 -3.456969 3.891340
v -78.087601 -3.579455 3.891340
v -77.925873 -3.456969 3.891340
v -77.953621 -3.579455 3.891340
v -78.020615 -3.076856 3.891340
v -78.115349 -2.982118 3.891340
v -78.087601 -3.104604 3.891340
v -77.925873 -2.982118 3.891340
v -77.953621 -3.104604 3.891340
v -78.115349 -2.602005 3.891706
v -78.087601 -2.646614 3.891706
v -77.925873 -2.602005 3.891706
v -77.953621 -2.646614 3.891706
v -78.020615 -5.004010 2.783638
v -78.020615 -2.602005 2.783638
v -78.020615 -2.602005 4.142161
v -78.020615 -5.004010 4.142161
v -78.020897 -2.618728 3.034093
v -78.020897 -2.618728 3.891706
v -78.115349 -0.200000 2.824532
v -77.925873 -0.200000 2.824532
v -78.115349 -2.602005 2.824532
v -77.925873 -2.602005 2.824532
v -78.020615 -2.336831 3.034459
v -78.115349 -2.218118 3.034459
v -78.115349 -2.431569 3.034459
v -78.087601 -2.309083 3.034459
v -78.020615 -1.861980 3.034459
v -78.115349 -1.743267 3.034459
v -78.115349 -1.956718 3.034459
v -78.087601 -1.834231 3.034459
v -78.020615 -1.387128 3.034459
v -78.115349 -1.268415 3.034459
v -78.115349 -1.481866 3.034459
v -78.087601 -1.359380 3.034459
v -78.020615 -0.912277 3.034459
v -78.115349 -0.793564 3.034459
v -78.115349 -1.007015 3.034459
v -78.087601 -0.884528 3.034459
v -78.020615 -0.437425 3.034459
v -78.115349 -0.318713 3.034459
v -78.115349 -0.532163 3.034459
v -78.087601 -0.409677 3.034459
v -77.925873 -2.218118 3.034459
v -77.925873 -2.431569 3.034459
v -77.953621 -2.309083 3.034459
v -77.925873 -1.743267 3.034459
v -77.925873 -1.956718 3.034459
v -77.953621 -1.834231 3.034459
v -77.925873 -1.268415 3.034459
v -77.925873 -1.481866 3.034459
v -77.953621 -1.359380 3.034459
v -77.925873 -0.793564 3.034459
v -77.925873 -1.007015 3.034459
v -77.953621 -0.884528 3.034459
v -77.925873 -0.318713 3.034459
v -77.925873 -0.532163 3.034459
v -77.953621 -0.409677 3.034459
v -78.115349 -2.602005 3.034459
v -77.925873 -2.602005 3.034459
v -78.020615 -2.099405 3.034459
v -78.115349 -2.004667 3.034459
v -78.087601 -2.127154 3.034459
v -77.925873 -2.004667 3.034459
v -77.953621 -2.127154 3.034459
v -78.020615 -1.624554 3.034459
v -78.115349 -1.529816 3.034459
v -78.087601 -1.652302 3.034459
v -77.925873 -1.529816 3.034459
v -77.953621 -1.652302 3.034459
v -78.020615 -1.149702 3.034459
v -78.115349 -1.054964 3.034459
v -78.087601 -1.177451 3.034459
v -77.925873 -1.054964 3.034459
v -77.953621 -1.177451 3.034459
v -78.020615 -0.674851 3.034459
v -78.115349 -0.580112 3.034459
v -78.087601 -0.702599 3.034459
v -77.925873 -0.580112 3.034459
v -77.953621 -0.702599 3.034459
v -78.115349 -0.200000 3.034093
v -78.087601 -0.244608 3.034093
v -77.925873 -0.200000 3.034093
v -77.953621 -0.244608 3.034093
v -78.115349 -0.200000 4.101267
v -77.925873 -0.200000 4.101267
v -78.115349 -2.602005 4.101267
v -77.925873 -2.602005 4.101267
v -78.020615 -2.336831 3.891340
v -78.115349 -2.218118 3.891340
v -78.115349 -2.431569 3.891340
v -78.087601 -2.309083 3.891340
v -78.020615 -1.861980 3.891340
v -78.115349 -1.743267 3.891340
v -78.115349 -1.956718 3.891340
v -78.087601 -1.834231 3.891340
v -78.020615 -1.387128 3.891340
v -78.115349 -1.268415 3.891340
v -78.115349 -1.481866 3.891340
v -78.087601 -1.359380 3.891340
v -78.020615 -0.912277 3.891340
v -78.115349 -0.793564 3.891340
v -78.115349 -1.007015 3.891340
v -78.087601 -0.884528 3.891340
v -78.020615 -0.437425 3.891340
v -78.115349 -0.318713 3.891340
v -78.115349 -0.532163 3.891340
v -78.087601 -0.409677 3.891340
v -77.925873 -2.218118 3.891340
v -77.925873 -2.431569 3.891340
v -77.953621 -2.309083 3.891340
v -77.925873 -1.743267 3.891340
v -77.925873 -1.956718 3.891340
v -77.953621 -1.834231 3.891340
v -77.925873 -1.268415 3.891340
v -77.925873 -1.481866 3.891340
v -77.953621 -1.359380 3.891340
v -77.925873 -0.793564 3.891340
v -77.925873 -1.007015 3.891340
v -77.953621 -0.884528 3.891340
v -77.925873 -0.318713 3.891340
v -77.925873 -0.532163 3.891340
v -77.953621 -0.409677 3.891340
v -78.115349 -2.602005 3.891340
v -77.925873 -2.602005 3.891340
v -78.020615 -2.099405 3.891340
v -78.115349 -2.004667 3.891340
v -78.087601 -2.127154 3.891340
v -77.925873 -2.004667 3.891340
v -77.953621 -2.127154 3.891340
v -78.020615 -1.624554 3.891340
v -78.115349 -1.529816 3.891340
v -78.087601 -1.652302 3.891340
v -77.925873 -1.529816 3.891340
v -77.953621 -1.652302 3.891340
v -78.020615 -1.149702 3.891340
v -78.115349 -1.054964 3.891340
v -78.087601 -1.177451 3.891340
v -77.925873 -1.054964 3.891340
v -77.953621 -1.177451 3.891340
v -78.020615 -0.674851 3.891340
v -78.115349 -0.580112 3.891340
v -78.087601 -0.702599 3.891340
v -77.925873 -0.580112 3.891340
v -77.953621 -0.702599 3.891340
v -78.115349 -0.200000 3.891706
v -78.087601 -0.244608 3.891706
v -77.925873 -0.200000 3.891706
v -77.953621 -0.244608 3.891706
v -78.020615 -2.602005 2.783638
v -78.020615 -0.200000 2.783638
v -78.020615 -0.200000 4.142161
v -78.020615 -2.602005 4.142161
v -78.020897 -0.216723 3.034093
v -78.020897 -0.216723 3.891706
vn -0.8315 0.5556 -0.0000
vn -0.0000 1.0000 -0.0000
vn 0.8315 -0.5556 -0.0000
vn -0.0000 -1.0000 -0.0000
vn -0.8315 -0.5556 -0.0000
vn -1.0000 -0.0000 -0.0000
vn 0.8315 0.5556 -0.0000
vn 1.0000 -0.0000 -0.0000
vn -0.0000 -0.0000 1.0000
vn -0.8315 -0.5555 -0.0000
vn 0.8356 -0.0000 -0.5494
vn -0.0000 -0.0000 -1.0000
vn 0.8315 -0.5555 -0.0000
vn 0.0050 0.0031 1.0000
vn 0.0028 0.0017 1.0000
vn 0.0018 0.0011 1.0000
vn -0.0028 0.0017 1.0000
vn -0.0018 0.0011 1.0000
vn -0.0050 0.0031 1.0000
vn 0.8356 -0.0000 0.5494
vn 0.9338 -0.0000 0.3578
vn 0.0050 0.0031 -1.0000
vn 0.0018 0.0011 -1.0000
vn 0.0028 0.0017 -1.0000
vn -0.0028 0.0017 -1.0000
vn -0.0018 0.0011 -1.0000
vn -0.0050 0.0031 -1.0000
vn -1.0000 0.0001 -0.0000
vn -0.8318 0.5551 -0.0000
vn 0.8310 0.5563 -0.0000
vn 1.0000 0.0001 -0.0000
vn -0.3963 -0.0000 -0.9181
vn -0.3963 -0.0000 0.9181
vn -0.0015 1.0000 -0.0000
vn 0.9338 -0.0000 -0.3578
vn -0.8356 -0.0000 -0.5494
vn -0.8356 -0.0000 0.5494
vt 0.491690 0.552172
vt 0.491690 0.445872
vt 0.500001 0.445872
vt 0.500001 0.552172
vt 0.508311 0.445872
vt 0.508311 0.552172
vt 0.552172 0.260911
vt 0.445872 0.260911
vt 0.445872 0.272196
vt 0.445872 0.283480
vt 0.552172 0.283480
vt 0.552172 0.272196
vt 0.491690 0.202004
vt 0.488248 0.213288
vt 0.488248 0.186809
vt 0.491690 0.260911
vt 0.488248 0.272196
vt 0.488248 0.245716
vt 0.491690 0.319818
vt 0.488248 0.331103
vt 0.488248 0.304623
vt 0.491690 0.378726
vt 0.488248 0.390010
vt 0.488248 0.363531
vt 0.511753 0.213288
vt 0.508311 0.202004
vt 0.511753 0.186809
vt 0.511753 0.272196
vt 0.508311 0.260911
vt 0.511753 0.245716
vt 0.511753 0.331103
vt 0.508311 0.319818
vt 0.511753 0.304623
vt 0.511753 0.390010
vt 0.508311 0.378726
vt 0.511753 0.363531
vt 0.500001 0.257469
vt 0.488248 0.239768
vt 0.491690 0.224573
vt 0.500001 0.228015
vt 0.508311 0.224573
vt 0.511753 0.239768
vt 0.500001 0.316376
vt 0.488248 0.298675
vt 0.491690 0.283480
vt 0.500001 0.286922
vt 0.508311 0.283480
vt 0.511753 0.298675
vt 0.500001 0.375283
vt 0.488248 0.357583
vt 0.491690 0.342388
vt 0.500001 0.345830
vt 0.508311 0.342388
vt 0.511753 0.357583
vt 0.445872 0.202004
vt 0.445872 0.213288
vt 0.445872 0.224573
vt 0.552172 0.224573
vt 0.552172 0.213288
vt 0.552172 0.202004
vt 0.552172 0.342388
vt 0.445872 0.342388
vt 0.445872 0.331103
vt 0.445872 0.319818
vt 0.552172 0.319818
vt 0.552172 0.331103
vt 0.511753 0.106758
vt 0.500001 0.106758
vt 0.500001 0.404737
vt 0.511753 0.404737
vt 0.491690 0.399203
vt 0.488248 0.404737
vt 0.508311 0.399203
vt 0.511753 0.404737
vt 0.499965 0.402663
vt 0.511753 0.578214
vt 0.500001 0.583287
vt 0.488248 0.578214
vt 0.488248 0.552217
vt 0.511753 0.552217
vt 0.115899 0.937500
vt 0.115899 -0.062500
vt 0.242211 -0.062500
vt 0.242211 0.008929
vt 0.242211 0.137361
vt 0.242211 0.166211
vt 0.242211 0.294643
vt 0.242211 0.423075
vt 0.242211 0.451926
vt 0.242211 0.580357
vt 0.242211 0.708789
vt 0.242211 0.737640
vt 0.242211 0.866071
vt 0.241991 0.937500
vt 0.242211 0.937500
vt 0.511753 0.419829
vt 0.511753 0.445826
vt 0.488248 0.445826
vt 0.488248 0.419829
vt 0.500001 0.414756
vt 0.445872 0.390010
vt 0.445826 0.399203
vt 0.552217 0.399203
vt 0.552172 0.390010
vt 0.552172 0.378726
vt 0.445872 0.378726
vt 0.488248 0.106758
vt 0.488248 0.404737
vt 0.491690 0.552217
vt 0.491690 0.445826
vt 0.499965 0.445826
vt 0.499965 0.552217
vt 0.508311 0.445826
vt 0.508311 0.552217
vt 0.445872 0.452360
vt 0.445872 0.441075
vt 0.552172 0.441075
vt 0.552172 0.452360
vt 0.552172 0.463645
vt 0.445872 0.463645
vt 0.488248 0.404737
vt 0.511753 0.404737
vt 0.511753 0.425880
vt 0.500001 0.437633
vt 0.488248 0.425880
vt 0.552172 0.558890
vt 0.445872 0.558890
vt 0.445872 0.570175
vt 0.445872 0.581459
vt 0.552172 0.581459
vt 0.552172 0.570175
vt 0.491690 0.441075
vt 0.488248 0.452360
vt 0.491690 0.499983
vt 0.488248 0.511267
vt 0.488248 0.484788
vt 0.491690 0.558890
vt 0.488248 0.570175
vt 0.488248 0.543695
vt 0.491690 0.617798
vt 0.488248 0.629082
vt 0.488248 0.602603
vt 0.491690 0.676705
vt 0.488248 0.687990
vt 0.488248 0.661510
vt 0.511753 0.452360
vt 0.508311 0.441075
vt 0.511753 0.511267
vt 0.508311 0.499983
vt 0.511753 0.484788
vt 0.511753 0.570175
vt 0.508311 0.558890
vt 0.511753 0.543695
vt 0.511753 0.629082
vt 0.508311 0.617798
vt 0.511753 0.602603
vt 0.500001 0.496541
vt 0.488248 0.478840
vt 0.491690 0.463645
vt 0.500001 0.467087
vt 0.508311 0.463645
vt 0.511753 0.478840
vt 0.511753 0.687990
vt 0.508311 0.676705
vt 0.511753 0.661510
vt 0.578214 0.702716
vt 0.552217 0.702716
vt 0.552172 0.687990
vt 0.552172 0.661510
vt 0.552172 0.655562
vt 0.552172 0.629082
vt 0.552172 0.602603
vt 0.552172 0.596654
vt 0.552172 0.543695
vt 0.552172 0.537747
vt 0.552172 0.511267
vt 0.552172 0.484788
vt 0.552172 0.478840
vt 0.552172 0.425880
vt 0.552172 0.404737
vt 0.578214 0.404737
vt 0.552172 0.404737
vt 0.500001 0.555448
vt 0.488248 0.537747
vt 0.491690 0.522552
vt 0.500001 0.525994
vt 0.508311 0.522552
vt 0.511753 0.537747
vt 0.500001 0.614355
vt 0.488248 0.596654
vt 0.491690 0.581459
vt 0.500001 0.584902
vt 0.508311 0.581459
vt 0.511753 0.596654
vt 0.500001 0.673263
vt 0.488248 0.655562
vt 0.491690 0.640367
vt 0.500001 0.643809
vt 0.508311 0.640367
vt 0.511753 0.655562
vt 0.445872 0.499983
vt 0.445872 0.511267
vt 0.445872 0.522552
vt 0.552172 0.522552
vt 0.552172 0.499983
vt 0.552172 0.640367
vt 0.445872 0.640367
vt 0.445872 0.629082
vt 0.445872 0.617798
vt 0.552172 0.617798
vt 0.500001 0.702716
vt 0.511753 0.702716
vt 0.491690 0.697183
vt 0.488248 0.702716
vt 0.508311 0.697183
vt 0.511753 0.702716
vt 0.499965 0.700642
vt 0.419829 0.702716
vt 0.419829 0.404737
vt 0.445872 0.404737
vt 0.445872 0.425880
vt 0.445872 0.478840
vt 0.445872 0.484788
vt 0.445872 0.537747
vt 0.445872 0.543695
vt 0.445872 0.596654
vt 0.445872 0.602603
vt 0.445872 0.655562
vt 0.445872 0.661510
vt 0.445872 0.687990
vt 0.445826 0.702716
vt 0.445872 0.404737
vt 0.445826 0.697183
vt 0.552217 0.697183
vt 0.552172 0.676705
vt 0.445872 0.676705
vt 0.488248 0.702716
vt 0.445872 0.750339
vt 0.445872 0.739055
vt 0.552172 0.739055
vt 0.552172 0.750339
vt 0.552172 0.761624
vt 0.445872 0.761624
vt 0.488248 0.702717
vt 0.511753 0.702717
vt 0.511753 0.723860
vt 0.500001 0.735613
vt 0.488248 0.723860
vt 0.552172 0.856870
vt 0.445872 0.856870
vt 0.445872 0.868154
vt 0.445872 0.879439
vt 0.552172 0.879439
vt 0.552172 0.868154
vt 0.491690 0.739055
vt 0.488248 0.750339
vt 0.491690 0.797962
vt 0.488248 0.809247
vt 0.488248 0.782767
vt 0.491690 0.856870
vt 0.488248 0.868154
vt 0.488248 0.841675
vt 0.491690 0.915777
vt 0.488248 0.927062
vt 0.488248 0.900582
vt 0.491690 0.974684
vt 0.488248 0.985969
vt 0.488248 0.959489
vt 0.511753 0.750339
vt 0.508311 0.739055
vt 0.511753 0.809247
vt 0.508311 0.797962
vt 0.511753 0.782767
vt 0.511753 0.868154
vt 0.508311 0.856870
vt 0.511753 0.841675
vt 0.511753 0.927062
vt 0.508311 0.915777
vt 0.511753 0.900582
vt 0.500001 0.794520
vt 0.488248 0.776819
vt 0.491690 0.761624
vt 0.500001 0.765066
vt 0.508311 0.761624
vt 0.511753 0.776819
vt 0.511753 0.985969
vt 0.508311 0.974684
vt 0.511753 0.959489
vt 0.578214 1.000696
vt 0.552217 1.000696
vt 0.552172 0.985969
vt 0.552172 0.959489
vt 0.552172 0.953541
vt 0.552172 0.927062
vt 0.552172 0.900582
vt 0.552172 0.894634
vt 0.552172 0.841675
vt 0.552172 0.835726
vt 0.552172 0.809247
vt 0.552172 0.782767
vt 0.552172 0.776819
vt 0.552172 0.723860
vt 0.552172 0.702717
vt 0.578214 0.702717
vt 0.500001 0.853427
vt 0.488248 0.835726
vt 0.491690 0.820531
vt 0.500001 0.823974
vt 0.508311 0.820531
vt 0.511753 0.835726
vt 0.500001 0.912335
vt 0.488248 0.894634
vt 0.491690 0.879439
vt 0.500001 0.882881
vt 0.508311 0.879439
vt 0.511753 0.894634
vt 0.500001 0.971242
vt 0.488248 0.953541
vt 0.491690 0.938346
vt 0.500001 0.941788
vt 0.508311 0.938346
vt 0.511753 0.953541
vt 0.445872 0.797962
vt 0.445872 0.809247
vt 0.445872 0.820531
vt 0.552172 0.820531
vt 0.552172 0.797962
vt 0.552172 0.938346
vt 0.445872 0.938346
vt 0.445872 0.927062
vt 0.445872 0.915777
vt 0.552172 0.915777
vt 0.511753 0.702717
vt 0.500001 0.702717
vt 0.500001 1.000696
vt 0.511753 1.000696
vt 0.491690 0.995162
vt 0.488248 1.000696
vt 0.508311 0.995162
vt 0.511753 1.000696
vt 0.499965 0.998621
vt 0.419829 1.000696
vt 0.419829 0.702717
vt 0.445872 0.702717
vt 0.445872 0.723860
vt 0.445872 0.776819
vt 0.445872 0.782767
vt 0.445872 0.835726
vt 0.445872 0.841675
vt 0.445872 0.894634
vt 0.445872 0.900582
vt 0.445872 0.953541
vt 0.445872 0.959489
vt 0.445872 0.985969
vt 0.445826 1.000696
vt 0.445826 0.995162
vt 0.552217 0.995162
vt 0.552172 0.974684
vt 0.445872 0.974684
vt 0.488248 0.702717
vt 0.488248 1.000696
vt 0.884101 0.937500
vt 0.757789 0.937500
vt 0.758009 0.937500
vt 0.757789 0.866071
vt 0.757789 0.737640
vt 0.757789 0.708789
vt 0.757789 0.580357
vt 0.757789 0.451926
vt 0.757789 0.423075
vt 0.757789 0.294643
vt 0.757789 0.166211
vt 0.757789 0.137361
vt 0.757789 0.008929
vt 0.757789 -0.062500
vt 0.884101 -0.062500
s 1
g Ladder_3_Old_metal_plate
usemtl Old_metal_plate
f 46/1/1 97/2/1 95/3/2 44/4/2
f 81/5/3 65/3/4 13/4/4 30/6/3
s 2
f 12/7/5 64/8/5 62/9/6 92/10/1 41/11/1 10/12/6
f 94/10/7 76/9/8 78/8/3 27/7/3 25/12/8 43/11/7
s 3
f 8/13/9 6/14/9 7/15/9
s 4
f 12/16/9 10/17/9 11/18/9
s 5
f 16/19/9 14/20/9 15/21/9
s 6
f 20/22/9 18/23/9 19/24/9
s 7
f 22/25/9 24/26/9 23/27/9
s 4
f 25/28/9 27/29/9 26/30/9
s 5
f 28/31/9 30/32/9 29/33/9
s 6
f 31/34/9 33/35/9 32/36/9
s 4
f 9/37/9 12/16/9 11/18/9 35/38/9 36/39/9 34/40/9 38/41/9 37/42/9 26/30/9 27/29/9
f 6/14/9 36/39/9 35/38/9
s 5
f 13/43/9 16/19/9 15/21/9 40/44/9 41/45/9 39/46/9 43/47/9 42/48/9 29/33/9 30/32/9
s 4
f 38/41/9 22/25/9 37/42/9
s 5
f 10/17/9 41/45/9 40/44/9
s 6
f 17/49/9 20/22/9 19/24/9 45/50/9 46/51/9 44/52/9 48/53/9 47/54/9 32/36/9 33/35/9
s 5
f 43/47/9 25/28/9 42/48/9
s 6
f 14/20/9 46/51/9 45/50/9
f 48/53/9 28/31/9 47/54/9
s 8
f 60/55/5 58/56/6 87/57/1 36/58/1 6/59/6 8/60/5
s 9
f 69/3/4 72/2/10 20/1/10 17/4/4
s 8
f 57/3/4 60/2/5 8/1/5 5/4/4
f 36/1/1 87/2/1 85/3/2 34/4/2
s 1
f 13/4/4 65/3/4 68/2/5 16/1/5
s 2
f 90/3/2 94/5/7 43/6/7 39/4/2
f 27/6/3 78/5/3 61/3/4 9/4/4
f 9/4/4 61/3/4 64/2/5 12/1/5
s 1
f 95/3/2 99/5/7 48/6/7 44/4/2
s 8
f 24/6/3 75/5/3 57/3/4 5/4/4
s 1
f 48/61/7 99/62/7 79/63/8 81/64/3 30/65/3 28/66/8
s 8
f 89/57/7 73/56/8 75/55/3 24/60/3 22/59/8 38/58/7
f 85/3/2 89/5/7 38/6/7 34/4/2
s 10
f 4/67/11 104/68/12 105/69/12 2/70/11
s 9
f 33/6/13 84/5/13 69/3/4 17/4/4
s 2
f 92/2/1 90/3/2 39/4/2 41/1/1
s 11
f 18/23/14 50/71/15 49/72/16
f 52/73/17 51/74/18 49/72/16 50/71/15 108/75/9
f 31/34/19 51/74/18 52/73/17
s 12
f 2/76/2 105/77/2 1/78/2 49/79/2 51/80/2
s 13
f 60/13/12 59/15/12 58/14/12
s 14
f 64/16/12 63/18/12 62/17/12
s 15
f 68/19/12 67/21/12 66/20/12
s 16
f 72/22/12 71/24/12 70/23/12
s 17
f 73/25/12 74/27/12 75/26/12
s 14
f 76/28/12 77/30/12 78/29/12
s 15
f 79/31/12 80/33/12 81/32/12
s 16
f 82/34/12 83/36/12 84/35/12
f 71/24/12 72/22/12 69/49/12 84/35/12 83/36/12 98/54/12 99/53/12 95/52/12 97/51/12 96/50/12
s 18
f 54/81/20 56/82/20 74/83/8 73/84/8 88/85/8 77/86/8 76/87/8 93/88/8 80/89/8 79/90/8 98/91/8 83/92/8 82/93/8 102/94/8 215/95/8 178/81/21
s 14
f 63/18/12 64/16/12 61/37/12 78/29/12 77/30/12 88/42/12 89/41/12 85/40/12 87/39/12 86/38/12
f 58/14/12 86/38/12 87/39/12
f 89/41/12 88/42/12 73/25/12
s 15
f 62/17/12 91/44/12 92/45/12
f 81/32/12 80/33/12 93/48/12 94/47/12 90/46/12 92/45/12 91/44/12 67/21/12 68/19/12 65/43/12
f 94/47/12 93/48/12 76/28/12
s 16
f 66/20/12 96/50/12 97/51/12
f 99/53/12 98/54/12 79/31/12
s 18
f 106/69/9 107/68/9 56/67/20 54/70/20
s 19
f 70/23/22 100/72/23 101/71/24
f 103/73/25 109/75/12 101/71/24 100/72/23 102/74/26
f 82/34/27 103/73/25 102/74/26
s 20
f 54/96/2 102/97/2 100/98/2 53/99/2 106/100/2
s 1
f 66/63/6 97/62/1 46/61/1 14/66/6 16/65/5 68/64/5
s 9
f 70/101/28 101/102/29 50/103/29 18/104/28 20/105/10 72/106/10
f 103/102/30 82/101/31 84/106/13 33/105/13 31/104/31 52/103/30
s 10
f 105/69/12 104/68/12 3/107/32 1/108/32
s 18
f 106/69/9 53/108/33 55/107/33 107/68/9
s 9
f 50/109/29 101/110/29 109/111/34 108/112/34
f 103/113/30 52/114/30 108/112/34 109/111/34
s 21
f 218/2/1 216/3/2 151/4/2 153/1/1
f 199/115/8 201/116/3 136/117/3 134/118/8 155/119/7 220/120/7
s 22
f 168/1/1 233/2/1 231/3/2 166/4/2
s 23
f 149/121/9 150/122/9 135/123/9 114/124/9 116/125/9
s 22
f 210/5/3 191/3/4 126/4/4 145/6/3
s 24
f 125/126/5 190/127/5 188/128/6 228/129/1 163/130/1 123/131/6
s 21
f 151/4/2 216/3/2 220/5/7 155/6/7
s 24
f 230/129/7 205/128/8 207/127/3 142/126/3 140/131/8 165/130/7
s 23
f 114/124/9 117/132/9 116/125/9
f 117/132/9 115/133/9 116/125/9
s 25
f 121/134/9 119/135/9 120/136/9
s 26
f 125/137/9 123/138/9 124/139/9
s 27
f 129/140/9 127/141/9 128/142/9
s 28
f 133/143/9 131/144/9 132/145/9
s 23
f 134/146/9 136/147/9 135/123/9
f 136/147/9 114/124/9 135/123/9
s 25
f 137/148/9 139/149/9 138/150/9
s 26
f 140/151/9 142/152/9 141/153/9
s 27
f 143/154/9 145/155/9 144/156/9
s 25
f 118/157/9 121/134/9 120/136/9 152/158/9 153/159/9 151/160/9 155/161/9 154/162/9 138/150/9 139/149/9
s 28
f 146/163/9 148/164/9 147/165/9
s 10
f 111/166/11 173/167/8 146/168/8 147/169/8 169/170/8 143/171/8 144/172/8 164/173/8 140/131/8 141/174/8 159/175/8 137/176/8 138/177/8 154/178/8 134/118/8 135/179/8 150/180/8 113/181/35
f 112/181/36 149/182/6 116/179/6 115/118/6 152/178/6 120/177/6 119/176/6 157/175/6 124/174/6 123/131/6 162/173/6 128/172/6 127/171/6 167/170/6 132/169/6 131/168/6 171/167/6 110/166/36
s 25
f 115/133/9 153/159/9 152/158/9
s 26
f 122/183/9 125/137/9 124/139/9 157/184/9 158/185/9 156/186/9 160/187/9 159/188/9 141/153/9 142/152/9
s 25
f 155/161/9 134/146/9 154/162/9
s 26
f 119/135/9 158/185/9 157/184/9
s 27
f 126/189/9 129/140/9 128/142/9 162/190/9 163/191/9 161/192/9 165/193/9 164/194/9 144/156/9 145/155/9
s 26
f 160/187/9 137/148/9 159/188/9
s 27
f 123/138/9 163/191/9 162/190/9
s 28
f 130/195/9 133/143/9 132/145/9 167/196/9 168/197/9 166/198/9 170/199/9 169/200/9 147/165/9 148/164/9
s 27
f 165/193/9 140/151/9 164/194/9
s 28
f 127/141/9 168/197/9 167/196/9
f 170/199/9 143/154/9 169/200/9
s 29
f 186/201/5 184/202/6 223/203/1 158/204/1 119/176/6 121/205/5
s 30
f 195/3/4 198/2/10 133/1/10 130/4/4
s 29
f 183/3/4 186/2/5 121/1/5 118/4/4
f 158/1/1 223/2/1 221/3/2 156/4/2
s 22
f 126/4/4 191/3/4 194/2/5 129/1/5
s 21
f 117/117/5 182/116/5 180/115/6 218/120/1 153/119/1 115/118/6
s 24
f 226/3/2 230/5/7 165/6/7 161/4/2
f 142/6/3 207/5/3 187/3/4 122/4/4
f 122/4/4 187/3/4 190/2/5 125/1/5
s 22
f 231/3/2 235/5/7 170/6/7 166/4/2
s 29
f 139/6/3 204/5/3 183/3/4 118/4/4
s 21
f 179/3/4 182/2/5 117/1/5 114/4/4
s 22
f 170/206/7 235/207/7 208/208/8 210/209/3 145/210/3 143/171/8
s 29
f 225/203/7 202/202/8 204/201/3 139/205/3 137/176/8 160/204/7
s 21
f 201/5/3 179/3/4 114/4/4 136/6/3
s 29
f 221/3/2 225/5/7 160/6/7 156/4/2
s 10
f 113/70/35 240/69/12 241/211/12 111/212/11
s 30
f 148/6/13 213/5/13 195/3/4 130/4/4
s 24
f 228/2/1 226/3/2 161/4/2 163/1/1
s 31
f 131/144/14 172/213/15 171/214/16
f 174/215/17 173/216/18 171/214/16 172/213/15 244/217/9
f 146/163/19 173/216/18 174/215/17
s 32
f 111/76/2 241/77/2 110/78/2 171/79/2 173/80/2
s 33
f 181/125/12 182/132/12 179/124/12 201/147/12 200/123/12 215/122/12 214/121/12
f 182/132/12 181/125/12 180/133/12
s 34
f 186/134/12 185/136/12 184/135/12
s 35
f 190/137/12 189/139/12 188/138/12
s 36
f 194/140/12 193/142/12 192/141/12
s 37
f 198/143/12 197/145/12 196/144/12
s 33
f 199/146/12 200/123/12 201/147/12
s 34
f 202/148/12 203/150/12 204/149/12
f 185/136/12 186/134/12 183/157/12 204/149/12 203/150/12 219/162/12 220/161/12 216/160/12 218/159/12 217/158/12
s 35
f 205/151/12 206/153/12 207/152/12
s 36
f 208/154/12 209/156/12 210/155/12
s 37
f 211/163/12 212/165/12 213/164/12
f 197/145/12 198/143/12 195/195/12 213/164/12 212/165/12 234/200/12 235/199/12 231/198/12 233/197/12 232/196/12
s 18
f 176/218/20 178/219/21 215/220/8 200/221/8 199/115/8 219/222/8 203/223/8 202/202/8 224/224/8 206/225/8 205/128/8 229/226/8 209/227/8 208/208/8 234/228/8 212/229/8 211/230/8 238/231/8
f 177/219/37 175/218/37 236/231/6 196/230/6 197/229/6 232/228/6 192/208/6 193/227/6 227/226/6 188/128/6 189/225/6 222/224/6 184/202/6 185/223/6 217/222/6 180/115/6 181/221/6 214/232/6
s 34
f 180/133/12 217/158/12 218/159/12
s 35
f 189/139/12 190/137/12 187/183/12 207/152/12 206/153/12 224/188/12 225/187/12 221/186/12 223/185/12 222/184/12
s 34
f 220/161/12 219/162/12 199/146/12
s 35
f 184/135/12 222/184/12 223/185/12
f 225/187/12 224/188/12 202/148/12
s 36
f 188/138/12 227/190/12 228/191/12
f 210/155/12 209/156/12 229/194/12 230/193/12 226/192/12 228/191/12 227/190/12 193/142/12 194/140/12 191/189/12
f 230/193/12 229/194/12 205/151/12
s 37
f 192/141/12 232/196/12 233/197/12
f 235/199/12 234/200/12 208/154/12
s 18
f 242/211/9 243/69/9 178/70/21 176/212/20
s 38
f 196/144/22 236/214/23 237/213/24
f 239/215/25 245/217/12 237/213/24 236/214/23 238/216/26
f 211/163/27 239/215/25 238/216/26
s 39
f 176/96/2 238/97/2 236/98/2 175/99/2 242/100/2
s 22
f 192/208/6 233/207/1 168/206/1 127/171/6 129/210/5 194/209/5
s 30
f 196/230/28 237/233/29 172/234/29 131/168/28 133/235/10 198/236/10
f 239/233/30 211/230/31 213/236/13 148/235/13 146/168/31 174/234/30
s 10
f 241/211/12 240/69/12 112/108/36 110/237/36
s 18
f 242/211/9 175/237/37 177/108/37 243/69/9
s 30
f 172/109/29 237/110/29 245/111/34 244/112/34
f 239/113/30 174/114/30 244/112/34 245/111/34
s 40
f 354/2/1 352/3/2 287/4/2 289/1/1
f 335/238/8 337/239/3 272/240/3 270/241/8 291/242/7 356/243/7
s 41
f 304/1/1 369/2/1 367/3/2 302/4/2
s 42
f 285/244/9 286/245/9 271/246/9 250/247/9 252/248/9
s 41
f 346/5/3 327/3/4 262/4/4 281/6/3
s 43
f 261/249/5 326/250/5 324/251/6 364/252/1 299/253/1 259/254/6
s 40
f 287/4/2 352/3/2 356/5/7 291/6/7
s 43
f 366/252/7 341/251/8 343/250/3 278/249/3 276/254/8 301/253/7
s 42
f 250/247/9 253/255/9 252/248/9
f 253/255/9 251/256/9 252/248/9
s 44
f 257/257/9 255/258/9 256/259/9
s 45
f 261/260/9 259/261/9 260/262/9
s 46
f 265/263/9 263/264/9 264/265/9
s 47
f 269/266/9 267/267/9 268/268/9
s 42
f 270/269/9 272/270/9 271/246/9
f 272/270/9 250/247/9 271/246/9
s 44
f 273/271/9 275/272/9 274/273/9
s 45
f 276/274/9 278/275/9 277/276/9
s 46
f 279/277/9 281/278/9 280/279/9
s 44
f 254/280/9 257/257/9 256/259/9 288/281/9 289/282/9 287/283/9 291/284/9 290/285/9 274/273/9 275/272/9
s 47
f 282/286/9 284/287/9 283/288/9
s 48
f 247/289/11 309/290/8 282/291/8 283/292/8 305/293/8 279/294/8 280/295/8 300/296/8 276/254/8 277/297/8 295/298/8 273/299/8 274/300/8 290/301/8 270/241/8 271/302/8 286/303/8 249/304/11
f 248/304/36 285/303/6 252/302/6 251/241/6 288/301/6 256/300/6 255/299/6 293/298/6 260/297/6 259/254/6 298/296/6 264/295/6 263/294/6 303/293/6 268/292/6 267/291/6 307/290/6 246/289/36
s 44
f 251/256/9 289/282/9 288/281/9
s 45
f 258/305/9 261/260/9 260/262/9 293/306/9 294/307/9 292/308/9 296/309/9 295/310/9 277/276/9 278/275/9
s 44
f 291/284/9 270/269/9 290/285/9
s 45
f 255/258/9 294/307/9 293/306/9
s 46
f 262/311/9 265/263/9 264/265/9 298/312/9 299/313/9 297/314/9 301/315/9 300/316/9 280/279/9 281/278/9
s 45
f 296/309/9 273/271/9 295/310/9
s 46
f 259/261/9 299/313/9 298/312/9
s 47
f 266/317/9 269/266/9 268/268/9 303/318/9 304/319/9 302/320/9 306/321/9 305/322/9 283/288/9 284/287/9
s 46
f 301/315/9 276/274/9 300/316/9
s 47
f 263/264/9 304/319/9 303/318/9
f 306/321/9 279/277/9 305/322/9
s 49
f 322/323/5 320/324/6 359/325/1 294/326/1 255/299/6 257/327/5
s 50
f 331/3/4 334/2/10 269/1/10 266/4/4
s 49
f 319/3/4 322/2/5 257/1/5 254/4/4
f 294/1/1 359/2/1 357/3/2 292/4/2
s 41
f 262/4/4 327/3/4 330/2/5 265/1/5
s 40
f 253/240/5 318/239/5 316/238/6 354/243/1 289/242/1 251/241/6
s 43
f 362/3/2 366/5/7 301/6/7 297/4/2
f 278/6/3 343/5/3 323/3/4 258/4/4
f 258/4/4 323/3/4 326/2/5 261/1/5
s 41
f 367/3/2 371/5/7 306/6/7 302/4/2
s 49
f 275/6/3 340/5/3 319/3/4 254/4/4
s 40
f 315/3/4 318/2/5 253/1/5 250/4/4
s 41
f 306/328/7 371/329/7 344/330/8 346/331/3 281/332/3 279/294/8
s 49
f 361/325/7 338/324/8 340/323/3 275/327/3 273/299/8 296/326/7
s 40
f 337/5/3 315/3/4 250/4/4 272/6/3
s 49
f 357/3/2 361/5/7 296/6/7 292/4/2
s 48
f 249/333/11 376/334/12 377/335/12 247/336/11
s 50
f 284/6/13 349/5/13 331/3/4 266/4/4
s 43
f 364/2/1 362/3/2 297/4/2 299/1/1
s 51
f 267/267/14 308/337/15 307/338/16
f 310/339/17 309/340/18 307/338/16 308/337/15 380/341/9
f 282/286/19 309/340/18 310/339/17
s 52
f 247/76/2 377/77/2 246/78/2 307/79/2 309/80/2
s 53
f 317/248/12 318/255/12 315/247/12 337/270/12 336/246/12 351/245/12 350/244/12
f 318/255/12 317/248/12 316/256/12
s 54
f 322/257/12 321/259/12 320/258/12
s 55
f 326/260/12 325/262/12 324/261/12
s 56
f 330/263/12 329/265/12 328/264/12
s 57
f 334/266/12 333/268/12 332/267/12
s 53
f 335/269/12 336/246/12 337/270/12
s 54
f 338/271/12 339/273/12 340/272/12
f 321/259/12 322/257/12 319/280/12 340/272/12 339/273/12 355/285/12 356/284/12 352/283/12 354/282/12 353/281/12
s 55
f 341/274/12 342/276/12 343/275/12
s 56
f 344/277/12 345/279/12 346/278/12
s 57
f 347/286/12 348/288/12 349/287/12
f 333/268/12 334/266/12 331/317/12 349/287/12 348/288/12 370/322/12 371/321/12 367/320/12 369/319/12 368/318/12
s 58
f 312/342/20 314/343/20 351/344/8 336/345/8 335/238/8 355/346/8 339/347/8 338/324/8 360/348/8 342/349/8 341/251/8 365/350/8 345/351/8 344/330/8 370/352/8 348/353/8 347/354/8 374/355/8
f 313/343/37 311/342/37 372/355/6 332/354/6 333/353/6 368/352/6 328/330/6 329/351/6 363/350/6 324/251/6 325/349/6 358/348/6 320/324/6 321/347/6 353/346/6 316/238/6 317/345/6 350/344/6
s 54
f 316/256/12 353/281/12 354/282/12
s 55
f 325/262/12 326/260/12 323/305/12 343/275/12 342/276/12 360/310/12 361/309/12 357/308/12 359/307/12 358/306/12
s 54
f 356/284/12 355/285/12 335/269/12
s 55
f 320/258/12 358/306/12 359/307/12
f 361/309/12 360/310/12 338/271/12
s 56
f 324/261/12 363/312/12 364/313/12
f 346/278/12 345/279/12 365/316/12 366/315/12 362/314/12 364/313/12 363/312/12 329/265/12 330/263/12 327/311/12
f 366/315/12 365/316/12 341/274/12
s 57
f 328/264/12 368/318/12 369/319/12
f 371/321/12 370/322/12 344/277/12
s 58
f 378/335/9 379/334/9 314/333/20 312/336/20
s 59
f 332/267/22 372/338/23 373/337/24
f 375/339/25 381/341/12 373/337/24 372/338/23 374/340/26
f 347/286/27 375/339/25 374/340/26
s 60
f 312/96/2 374/97/2 372/98/2 311/99/2 378/100/2
s 41
f 328/330/6 369/329/1 304/328/1 263/294/6 265/332/5 330/331/5
s 50
f 332/354/28 373/356/29 308/357/29 267/291/28 269/358/10 334/359/10
f 375/356/30 347/354/31 349/359/13 284/358/13 282/291/31 310/357/30
s 48
f 377/335/12 376/334/12 248/360/36 246/361/36
s 58
f 378/335/9 311/361/37 313/360/37 379/334/9
s 50
f 308/109/29 373/110/29 381/111/34 380/112/34
f 375/113/30 310/114/30 380/112/34 381/111/34
s 10
f 2/362/11 113/362/35 150/363/8 51/364/8 31/365/8 32/366/8 47/367/8 28/368/8 29/369/8 42/370/8 25/371/8 26/372/8 37/373/8 22/374/8 23/375/8 4/376/11
l 3 7
l 21 23
l 55 59
