# Blender 4.5.4 LTS
# www.blender.org
mtllib Lamp.mtl
g Lamp_Vert.001
v -65.107536 1.289895 12.584136
v -65.107536 1.289895 12.311038
v -65.107536 1.544249 12.481335
v -65.107536 1.498733 12.538619
v -65.107536 1.407701 12.584136
v -65.107536 1.544249 12.413839
v -65.107536 1.498733 12.356555
v -65.107536 1.407701 12.311038
v -65.051544 1.417121 12.481904
v -65.051483 1.417121 12.413839
v -65.051544 1.289895 12.481904
v -65.051544 1.289895 12.413839
v -65.164368 1.289895 12.624331
v -65.164368 1.289895 12.270843
v -65.164368 1.407701 12.270843
v -65.164368 1.407701 12.624331
v -65.164368 1.527988 12.574182
v -65.164368 1.527988 12.320992
v -65.164368 1.576590 12.481335
v -65.164368 1.576590 12.413839
v -65.181816 1.576590 12.231943
v -65.181816 1.576590 12.663231
v -65.179153 1.289895 12.672811
v -65.179169 1.289895 12.222363
v -65.208145 1.599625 12.239444
v -65.208145 1.599625 12.655730
v -65.208145 1.289895 12.209160
v -65.208145 1.576590 12.222411
v -65.208145 1.576590 12.672763
v -65.208145 1.289895 12.686014
v -65.141426 1.285065 12.613770
v -65.141426 1.285065 12.281404
v -65.141426 1.407029 12.281404
v -65.141426 1.407029 12.613770
v -65.141426 1.519335 12.563786
v -65.141426 1.519335 12.331388
v -65.141426 1.568363 12.412648
v -65.141426 1.568363 12.482526
v -65.107536 1.035541 12.481335
v -65.107536 1.081057 12.538619
v -65.107536 1.172090 12.584136
v -65.107536 1.035541 12.413839
v -65.107536 1.081057 12.356555
v -65.107536 1.172090 12.311038
v -65.051544 1.162670 12.481904
v -65.051483 1.162670 12.413839
v -65.164368 1.172090 12.270843
v -65.164368 1.172090 12.624331
v -65.164368 1.051802 12.574182
v -65.164368 1.051802 12.320992
v -65.164368 1.003200 12.481335
v -65.164368 1.003200 12.413839
v -65.181816 1.003200 12.231943
v -65.181816 1.003200 12.663231
v -65.208145 0.980165 12.239444
v -65.208145 0.980165 12.655730
v -65.208145 1.003200 12.222411
v -65.208145 1.003200 12.672763
v -65.141426 1.294725 12.613770
v -65.141426 1.294725 12.281404
v -65.141426 1.172761 12.281404
v -65.141426 1.172761 12.613770
v -65.141426 1.060455 12.563786
v -65.141426 1.060455 12.331388
v -65.141426 1.011427 12.412648
v -65.141426 1.011427 12.482526
vn 0.7760 -0.0000 0.6307
vn 0.9687 -0.0000 0.2481
vn 0.9562 0.1831 0.2282
vn 0.7651 0.1444 0.6276
vn 0.9691 -0.0000 -0.2467
vn 0.9566 0.1829 -0.2267
vn 0.7766 -0.0000 -0.6299
vn 0.7657 0.1443 -0.6269
vn 0.7539 0.4286 -0.4979
vn 0.7591 0.6194 -0.2002
vn 0.7590 0.6195 0.2003
vn 0.7535 0.4290 0.4982
vn 0.4874 0.8412 0.2342
vn 0.4874 0.8412 -0.2342
vn 0.3704 0.9042 -0.2127
vn 0.3704 0.9042 0.2127
vn 0.3864 0.8045 0.4511
vn 0.5325 0.5626 0.6324
vn 0.5494 0.1694 0.8182
vn 0.5473 -0.0000 0.8369
vn 0.5473 -0.0000 -0.8369
vn 0.5494 0.1694 -0.8182
vn 0.5325 0.5626 -0.6324
vn 0.4395 0.1732 -0.8814
vn 0.4471 0.3537 -0.8216
vn 0.3864 0.8045 -0.4511
vn 0.9840 0.1299 0.1219
vn 0.9817 0.0925 0.1666
vn 0.9556 0.0231 0.2937
vn 0.9466 -0.0000 0.3225
vn 0.9793 0.1795 0.0940
vn 0.9793 0.1795 -0.0940
vn 0.9840 0.1299 -0.1219
vn 0.9817 0.0925 -0.1666
vn 0.9556 0.0231 -0.2938
vn 0.9465 -0.0000 -0.3226
vn 0.5327 0.8463 -0.0000
vn 0.2795 0.5708 -0.7720
vn 0.3802 -0.0000 -0.9249
vn 0.3799 0.0386 -0.9242
vn 0.2795 0.5708 0.7720
vn 0.3802 -0.0000 0.9249
vn 0.3799 0.0386 0.9242
vn 0.4182 -0.0000 -0.9084
vn 0.4182 -0.0000 0.9084
vn 0.4395 0.1732 0.8814
vn 0.4471 0.3537 0.8216
vn 1.0000 -0.0000 -0.0000
vn 0.7651 -0.1444 0.6276
vn 0.9562 -0.1831 0.2282
vn 0.9566 -0.1829 -0.2267
vn 0.7657 -0.1443 -0.6269
vn 0.7539 -0.4286 -0.4979
vn 0.7591 -0.6194 -0.2002
vn 0.7590 -0.6195 0.2003
vn 0.7535 -0.4290 0.4982
vn 0.4874 -0.8412 0.2342
vn 0.3704 -0.9042 0.2127
vn 0.3704 -0.9042 -0.2127
vn 0.4874 -0.8412 -0.2342
vn 0.5325 -0.5626 0.6324
vn 0.3864 -0.8045 0.4511
vn 0.5494 -0.1694 0.8182
vn 0.5494 -0.1694 -0.8182
vn 0.5325 -0.5626 -0.6324
vn 0.4471 -0.3537 -0.8216
vn 0.4395 -0.1732 -0.8814
vn 0.3864 -0.8045 -0.4511
vn 0.9840 -0.1299 0.1219
vn 0.9556 -0.0231 0.2937
vn 0.9817 -0.0925 0.1666
vn 0.9793 -0.1795 0.0940
vn 0.9793 -0.1795 -0.0940
vn 0.9817 -0.0925 -0.1666
vn 0.9840 -0.1299 -0.1219
vn 0.9556 -0.0231 -0.2938
vn 0.5327 -0.8463 -0.0000
vn 0.2795 -0.5708 -0.7720
vn 0.3799 -0.0386 -0.9242
vn 0.2795 -0.5708 0.7720
vn 0.3799 -0.0386 0.9242
vn 0.4395 -0.1732 0.8814
vn 0.4471 -0.3537 0.8216
vt 1.488652 1.348899
vt 0.709329 1.329582
vt 0.709329 0.475586
vt 1.488652 0.558135
vt 0.696998 1.347728
vt 0.292255 1.379092
vt 0.304768 0.528289
vt 0.709329 0.496866
vt -0.501764 1.368320
vt -0.490346 0.580458
vt -0.210864 -0.049324
vt 0.134188 -0.380126
vt 0.535543 -0.411227
vt 1.246832 -0.080652
vt 0.942486 -0.421085
vt 0.096061 0.362005
vt 0.096061 0.637995
vt 0.000000 0.633290
vt 0.000000 0.366710
vt 0.076627 0.000000
vt 0.173359 0.041059
vt 1.789024 0.554690
vt 1.523468 -0.229615
vt 1.789024 1.373370
vt -0.789024 1.379092
vt -0.777203 0.563417
vt 0.460968 0.024876
vt 0.416737 0.499164
vt 0.317163 0.505297
vt 0.358783 -0.000000
vt 0.173359 0.958941
vt 0.076627 1.000000
vt 0.148569 0.793527
vt 0.242843 1.000000
vt -0.000000 0.909808
vt 0.395124 0.699494
vt 0.322956 0.668911
vt 0.327464 0.409938
vt 0.403927 0.061926
vt 0.208598 0.578248
vt 0.208598 0.421752
vt 0.148569 0.206473
vt 0.242843 0.000000
vt -0.000000 0.090192
vt 0.542511 0.697779
vt 0.533731 0.061925
vt 0.610213 0.409925
vt 0.614734 0.668894
vt 0.322956 0.017391
vt 0.322956 0.982609
vt 0.482049 0.000000
vt 0.468829 0.062576
vt 0.468829 0.700395
vt 0.455607 -0.000000
vt 0.468829 0.062574
vt 0.468829 0.702104
vt -0.469094 -0.210696
vt 0.018866 -0.576030
vt 0.359886 0.960996
vt 0.460968 0.970950
vt 0.274441 0.960996
vt 0.173359 0.970950
vt 0.217590 0.499164
vt 0.317164 0.505297
vt 0.173359 0.024876
vt 0.275544 -0.000000
vt 1.091745 -0.608229
vt 0.434389 -0.608229
vt 0.248906 1.566559
vt -0.441912 1.204943
vt -0.815049 0.309958
vt -0.815049 -0.566559
vt 1.815049 -0.566559
vt 1.815049 0.309958
vt 1.441912 1.204943
vt 0.751094 1.566559
s 2
g Lamp_Metal_plates_old
usemtl Metal_plates_old
f 17/33/27 22/34/28 16/35/29
f 23/36/30 13/37/30 16/38/29 22/39/28
f 19/40/31 22/34/28 17/33/27
s 3
f 20/41/32 18/42/33 21/43/34
f 18/42/33 15/44/35 21/43/34
f 24/45/36 21/46/34 15/47/35 14/48/36
s 4
f 22/34/37 19/40/37 20/41/37 21/43/37 25/49/37 26/50/37
s 5
f 25/51/38 21/46/38 28/52/38
s 6
f 27/53/39 28/52/40 21/46/40 24/45/39
s 7
f 26/54/41 29/55/41 22/39/41
s 8
f 23/36/42 22/39/43 29/55/43 30/56/42
s 2
f 49/33/69 48/35/70 54/34/71
f 23/36/30 54/39/71 48/38/70 13/37/30
f 51/40/72 49/33/69 54/34/71
s 3
f 52/41/73 53/43/74 50/42/75
f 50/42/75 53/43/74 47/44/76
f 24/45/36 14/48/36 47/47/76 53/46/74
s 10
f 54/34/77 56/50/77 55/49/77 53/43/77 52/41/77 51/40/77
s 11
f 55/51/78 57/52/78 53/46/78
s 6
f 27/53/39 24/45/39 53/46/79 57/52/79
s 12
f 56/54/80 54/39/80 58/55/80
s 8
f 23/36/42 30/56/42 58/55/81 54/39/81
s 1
g Lamp_Old_metal_plate
usemtl Old_metal_plate
f 38/16/13 37/17/14 20/18/15 19/19/16
f 38/16/13 19/19/16 17/20/17 35/21/18
f 36/27/23 33/28/22 15/29/24 18/30/25
f 37/17/14 36/31/23 18/32/26 20/18/15
f 14/59/44 15/29/24 33/28/22 32/60/21
f 13/61/45 31/62/20 34/63/19 16/64/46
f 16/64/46 34/63/19 35/65/18 17/66/47
s 9
f 19/69/48 17/70/48 16/71/48 13/72/48 14/73/48 15/74/48 18/75/48 20/76/48
s 1
f 66/16/57 51/19/58 52/18/59 65/17/60
f 66/16/57 63/21/61 49/20/62 51/19/58
f 64/27/65 50/30/66 47/29/67 61/28/64
f 65/17/60 52/18/59 50/32/68 64/31/65
f 14/59/44 60/60/21 61/28/64 47/29/67
f 13/61/45 48/64/82 62/63/63 59/62/20
f 48/64/82 49/66/83 63/65/61 62/63/63
s 13
f 51/69/48 52/76/48 50/75/48 47/74/48 14/73/48 13/72/48 48/71/48 49/70/48
s 1
g Lamp_Dirty_glass
usemtl Dirty_glass
f 1/1/1 11/2/2 9/3/3 5/4/4
f 11/5/2 12/6/5 10/7/6 9/8/3
f 2/9/7 8/10/8 10/7/6 12/6/5
f 8/10/8 7/11/9 10/7/6
f 7/11/9 6/12/10 10/7/6
f 6/12/10 3/13/11 9/8/3 10/7/6
f 4/14/12 9/3/3 3/15/11
f 5/4/4 9/3/3 4/14/12
f 34/22/19 5/4/4 4/14/12 35/23/18
f 31/24/20 1/1/1 5/4/4 34/22/19
f 32/25/21 33/26/22 8/10/8 2/9/7
f 6/12/10 7/11/9 36/57/23 37/58/14
f 7/11/9 8/10/8 33/26/22 36/57/23
f 3/15/11 38/67/13 35/23/18 4/14/12
f 3/13/11 6/12/10 37/58/14 38/68/13
f 1/1/1 41/4/49 45/3/50 11/2/2
f 11/5/2 45/8/50 46/7/51 12/6/5
f 2/9/7 12/6/5 46/7/51 44/10/52
f 44/10/52 46/7/51 43/11/53
f 43/11/53 46/7/51 42/12/54
f 42/12/54 46/7/51 45/8/50 39/13/55
f 40/14/56 39/15/55 45/3/50
f 41/4/49 40/14/56 45/3/50
f 62/22/63 63/23/61 40/14/56 41/4/49
f 59/24/20 62/22/63 41/4/49 1/1/1
f 60/25/21 2/9/7 44/10/52 61/26/64
f 42/12/54 65/58/60 64/57/65 43/11/53
f 43/11/53 64/57/65 61/26/64 44/10/52
f 39/15/55 40/14/56 63/23/61 66/67/57
f 39/13/55 66/68/57 65/58/60 42/12/54
