# Blender 4.5.4 LTS
# www.blender.org
mtllib pips_2.mtl
g Pipe_2_Vert.003
v -63.178436 -0.200000 -41.812294
v -63.178436 -0.200000 -39.912292
v -63.178436 0.400000 -43.560982
v -63.178436 1.200000 -44.157486
v -63.178436 3.450000 -44.136509
v -63.178436 4.350000 -43.560982
v -63.178436 5.000000 -42.412292
v -63.178436 5.000000 -39.912292
v -63.178436 0.400000 -42.212292
v -60.668827 -0.200000 -41.812294
v -60.668827 -0.200000 -39.912292
v -60.668827 0.400000 -43.560982
v -60.668827 1.200000 -44.157490
v -60.668827 3.450000 -44.136513
v -60.668827 4.350000 -43.560982
v -60.668827 5.000000 -42.412292
v -60.668827 5.000000 -39.912292
v -60.668827 0.400000 -42.212292
v -63.178436 -0.200000 -38.012291
v -63.178436 0.400000 -36.263603
v -63.178436 1.200000 -35.667099
v -63.188923 3.450000 -35.677586
v -63.178436 4.350000 -36.263603
v -63.178436 5.000000 -37.412292
v -63.178436 0.400000 -37.612293
v -60.668827 -0.200000 -38.012295
v -60.668827 0.400000 -36.263603
v -60.668827 1.200000 -35.667099
v -60.668827 3.450000 -35.688076
v -60.668827 4.350000 -36.263603
v -60.668827 5.000000 -37.412292
v -60.668827 0.400000 -37.612293
v -69.323631 -0.200000 -33.157486
v -67.423630 -0.200000 -33.157486
v -71.072319 0.400000 -33.157486
v -71.668823 1.200000 -33.157486
v -71.647850 3.450000 -33.157486
v -71.072319 4.350000 -33.157486
v -69.923630 5.000000 -33.157486
v -67.423630 5.000000 -33.157486
v -69.723633 0.400000 -33.157486
v -69.323631 -0.200000 -35.667095
v -67.423630 -0.200000 -35.667095
v -71.072319 0.400000 -35.667095
v -71.668823 1.200000 -35.667095
v -71.647850 3.450000 -35.667095
v -71.072319 4.350000 -35.667095
v -69.923630 5.000000 -35.667095
v -67.423630 5.000000 -35.667095
v -69.723633 0.400000 -35.667095
v -65.523628 -0.200000 -33.157486
v -63.774940 0.400000 -33.157486
v -63.178436 1.200000 -33.157486
v -63.199413 3.450000 -33.157486
v -63.774940 4.350000 -33.157486
v -64.923630 5.000000 -33.157486
v -65.123634 0.400000 -33.157486
v -65.523628 -0.200000 -35.667099
v -63.774940 0.400000 -35.667099
v -63.774940 4.350000 -35.667099
v -64.923630 5.000000 -35.667099
v -65.123634 0.400000 -35.667099
v -63.476688 0.400000 -35.965351
v -64.651031 0.400000 -37.139694
v -64.851036 -0.200000 -37.339695
v -65.801033 -0.200000 -38.289696
v -67.251038 -0.200000 -39.739693
v -67.451035 0.400000 -39.939693
v -68.125381 0.400000 -40.614040
v -67.551033 5.000000 -40.039696
v -68.125381 4.350000 -40.614040
v -68.413139 3.450000 -40.901802
v -68.423630 1.200000 -40.912292
v -66.301033 5.000000 -38.789696
v -65.614738 5.000000 -41.475994
v -65.901909 4.350000 -42.337513
v -66.045792 3.450000 -42.769157
v -66.051033 1.200000 -42.784889
v -65.901909 0.400000 -42.337513
v -65.564735 0.400000 -41.325993
v -68.987335 5.000000 -38.103394
v -69.848846 4.350000 -38.390568
v -70.296227 1.200000 -38.539696
v -69.848846 0.400000 -38.390568
v -68.837334 0.400000 -38.053394
v -70.280495 3.450000 -38.534451
v -68.537331 -0.200000 -37.953396
v -65.464737 -0.200000 -41.025993
v -65.239738 5.000000 -39.850994
v -67.362335 5.000000 -37.728397
v -64.351036 5.000000 -36.839695
vn 0.1942 0.5729 0.7963
vn -0.0000 0.5978 0.8017
vn 0.1646 0.5782 0.7992
vn -0.0000 1.0000 -0.0000
vn 0.1556 0.5317 0.8325
vn -0.0000 0.5547 0.8321
vn 0.1378 0.5351 0.8335
vn 0.1564 -0.6925 0.7042
vn -0.0000 -0.7259 0.6878
vn -0.0000 -0.8703 0.4925
vn 0.1170 -0.8555 0.5044
vn -0.0000 -0.0093 1.0000
vn -0.0000 -1.0000 -0.0000
vn 0.1731 -0.5192 0.8369
vn -0.0000 -0.5387 0.8425
vn -0.0000 0.5978 -0.8017
vn -0.1424 0.5200 -0.8422
vn -0.1611 0.5146 -0.8422
vn -0.0000 0.5547 -0.8321
vn -0.1257 -0.8070 -0.5771
vn -0.1009 -0.8659 -0.4900
vn -0.0000 -0.8703 -0.4925
vn -0.0009 -0.7274 -0.6863
vn -0.0021 -0.0070 -1.0000
vn -0.0018 -0.5422 -0.8402
vn 0.8017 0.5978 -0.0000
vn 0.7963 0.5729 0.1942
vn 0.7992 0.5782 0.1646
vn 0.8321 0.5547 -0.0000
vn 0.8325 0.5317 0.1556
vn 0.8335 0.5351 0.1378
vn 0.6878 -0.7259 -0.0000
vn 0.7042 -0.6925 0.1564
vn 0.5044 -0.8555 0.1170
vn 0.4925 -0.8703 -0.0000
vn 1.0000 -0.0093 -0.0000
vn 0.8425 -0.5387 -0.0000
vn 0.8369 -0.5192 0.1731
vn -0.8017 0.5978 -0.0000
vn -0.8321 0.5547 -0.0000
vn -0.8422 0.5146 -0.1611
vn -0.8422 0.5200 -0.1424
vn -0.6863 -0.7274 -0.0009
vn -0.4925 -0.8703 -0.0000
vn -0.4900 -0.8659 -0.1009
vn -0.5771 -0.8070 -0.1257
vn -1.0000 -0.0070 -0.0021
vn -0.8402 -0.5422 -0.0018
vn -0.3543 -0.8654 -0.3543
vn -0.6255 0.4664 -0.6255
vn -0.3027 0.4661 -0.8313
vn -0.8313 0.4661 -0.3027
vn 0.7763 0.4704 0.4196
vn 0.7806 0.4736 0.4080
vn 0.7317 0.5050 0.4579
vn 0.7371 0.5093 0.4443
vn 0.9024 -0.0079 0.4308
vn 0.7636 -0.4524 0.4606
vn 0.6559 -0.6434 0.3947
vn 0.5005 -0.8119 0.3006
vn 0.3006 -0.8119 0.5005
vn 0.3947 -0.6434 0.6559
vn 0.4327 -0.7909 0.4327
vn 0.5574 -0.6153 0.5574
vn 0.6409 -0.4224 0.6409
vn 0.7850 -0.0067 0.6194
vn 0.6213 0.4774 0.6213
vn 0.6350 0.4400 0.6350
vn 0.4196 0.4704 0.7763
vn 0.4080 0.4736 0.7806
vn 0.4579 0.5050 0.7317
vn 0.4443 0.5093 0.7371
vn 0.6194 -0.0067 0.7850
vn 0.4606 -0.4524 0.7636
vn 0.4308 -0.0079 0.9024
vn -0.6443 -0.4120 -0.6443
vt 1.341138 -0.466659
vt 2.130646 -0.466659
vt 2.130646 -0.214984
vt 1.341138 -0.214984
vt -1.424057 1.648540
vt -0.474058 1.648540
vt -0.474058 2.903345
vt -1.424058 2.903345
vt 1.648540 0.339286
vt 2.903345 0.339286
vt 2.903345 0.639286
vt 1.648540 0.639286
vt -0.566791 1.555206
vt -1.356300 1.555206
vt -1.356300 1.916577
vt -0.566791 1.916577
vt 2.130646 0.492852
vt 1.341138 0.492852
vt -1.624058 1.648540
vt -1.624058 2.903345
vt -2.298403 2.903345
vt -2.298403 1.648540
vt 0.004696 1.340215
vt -0.784797 1.345099
vt -0.779931 2.131569
vt 0.009562 2.126685
vt 2.130646 0.775987
vt 1.341138 0.775987
vt 0.475942 1.648540
vt 0.475942 2.903345
vt 1.367549 1.916577
vt 1.367549 1.555206
vt 0.578041 1.555206
vt 0.578041 1.916577
vt 1.337838 0.492852
vt 0.675942 1.648540
vt 1.350288 1.648540
vt 1.350287 2.903345
vt 0.675942 2.903345
vt 0.793621 2.129134
vt 0.793621 1.342649
vt 0.004113 1.342649
vt 0.004113 2.129134
vt 2.903345 -1.424057
vt 2.903345 -0.474057
vt 1.648540 -0.474057
vt 1.648540 -1.424057
vt 2.130646 -1.142231
vt 1.341138 -1.142231
vt 1.341138 -0.780860
vt 2.130646 -0.780860
vt 2.903345 -1.624057
vt 1.648540 -1.624057
vt 1.648540 -2.298403
vt 2.903345 -2.298403
vt 1.341138 0.005625
vt 2.130646 0.005625
vt 2.903345 0.475942
vt 1.648540 0.475943
vt 2.130646 1.153481
vt 2.130646 0.792110
vt 1.341138 0.792110
vt 1.341138 1.153481
vt 2.903345 0.675942
vt 2.903345 1.350288
vt 1.648540 1.350288
vt 1.648540 0.675943
vt 0.718069 1.114477
vt 0.925343 1.410495
vt 1.123569 1.050448
vt 0.968885 -0.059753
vt 0.561551 0.613030
vt 1.126262 0.932389
vt 1.153481 -0.466659
vt 1.247309 -0.466659
vt 0.912241 0.912241
vt 1.499414 1.499414
vt 0.812241 0.339286
vt 0.912241 0.639286
vt 0.812241 0.339286
vt 0.337241 0.337241
vt 0.812241 0.812241
vt -1.030908 0.505391
vt -0.387759 -0.387759
vt 0.505391 -1.030908
vt 0.505391 0.339286
vt 0.455391 0.639286
vt 0.455391 -1.180908
vt 0.286804 -1.686667
vt 0.484350 -0.466659
vt 0.437436 -0.214984
vt 0.439086 0.492852
vt 0.484350 0.775987
vt 1.439604 -0.930457
vt 0.500426 -0.943716
vt 0.467763 -0.659900
vt 1.286882 -0.602943
vt 0.784691 -0.900947
vt 0.481053 -0.175438
vt 1.301793 -0.151255
vt 1.390332 -0.668381
vt -0.029025 0.370152
vt 0.436773 0.292817
vt 0.638214 -0.191621
vt -0.120111 -0.178467
vt 0.243524 0.132606
vt -0.514868 0.141064
vt -0.299706 0.619566
vt 0.168107 0.683598
vt -0.044713 0.530195
vt -0.690651 0.590618
vt -0.745011 1.112446
vt 0.051782 1.310738
vt -1.342636 0.792915
vt -1.189914 1.120429
vt -0.370795 1.063472
vt -0.403458 0.779656
vt -0.013093 0.352972
vt 0.031278 0.101326
vt -0.852700 0.058399
vt -0.771249 0.332230
vt -0.247397 -0.474345
vt -0.203025 -0.222699
vt 0.555131 -0.243440
vt 0.636582 -0.517272
vt -0.305669 0.492852
vt -0.215141 0.775987
vt -0.308969 -0.214984
vt -0.215141 -0.466659
vt -0.487759 -0.487759
vt -0.824931 -0.824931
vt -0.387759 0.339286
vt -0.487759 0.639286
vt -0.387759 0.339286
vt 0.455391 0.639286
vt -0.487759 0.639286
vt -1.180908 0.455391
vt -1.686667 0.286804
vt 0.484350 -0.466659
vt 0.437436 -0.214984
vt -0.305669 0.492852
vt 0.484350 0.775987
vt -0.039296 0.883386
vt 0.138470 1.649518
vt 0.596753 0.755600
vt 0.470742 0.140240
vt 0.657018 0.987567
vt 1.064843 1.034569
vt 0.931904 0.038858
vt 0.273506 0.408513
vt 0.429127 1.400932
vt 0.806762 1.239928
vt 0.744462 0.374606
vt 1.005918 0.866551
vt 1.204144 1.226598
vt 1.411418 0.930580
vt 1.013334 1.272792
vt 1.277711 1.295922
vt 1.179426 0.896838
vt 1.311880 0.479283
vt 1.364295 0.757543
vt 1.179489 0.790129
s 2
g Pipe_2_White_Old_Concrete
usemtl White_Old_Concrete
f 1/5/4 2/6/4 11/7/4 10/8/4
s 3
f 1/9/5 10/10/6 18/11/6 9/12/7
s 6
f 9/19/4 18/20/4 12/21/4 3/22/4
s 2
f 19/29/4 26/30/4 11/7/4 2/6/4
s 9
f 19/9/17 25/12/18 32/11/19 26/10/19
s 12
f 25/36/4 20/37/4 27/38/4 32/39/4
s 2
f 33/44/4 34/45/4 43/46/4 42/47/4
s 3
f 33/10/29 42/9/30 50/12/31 41/11/29
s 6
f 41/52/4 50/53/4 44/54/4 35/55/4
s 2
f 51/58/4 58/59/4 43/46/4 34/45/4
s 15
f 51/10/40 57/11/40 62/12/41 58/9/42
s 12
f 57/64/4 52/65/4 59/66/4 62/67/4
f 25/36/4 64/76/4 63/77/4 20/37/4
f 62/67/4 59/66/4 63/77/4 64/76/4
s 9
f 19/9/17 65/78/51 64/79/51 25/12/18
s 15
f 58/9/42 62/12/41 64/79/52 65/80/52
s 2
f 2/6/4 66/81/4 65/82/4 19/29/4
f 43/46/4 58/59/4 65/82/4 66/81/4
f 1/5/4 88/83/4 67/84/4 66/81/4 2/6/4
f 42/47/4 43/46/4 66/81/4 67/84/4 87/85/4
s 3
f 42/9/30 87/86/53 85/87/54 50/12/31
s 6
f 50/53/4 85/88/4 84/89/4 44/54/4
f 68/130/4 69/131/4 84/89/4 85/88/4
s 3
f 67/132/68 68/133/68 85/87/54 87/86/53
f 67/134/68 88/86/69 80/135/70 68/136/68
s 6
f 68/130/4 80/137/4 79/138/4 69/131/4
f 9/19/4 3/22/4 79/138/4 80/137/4
s 3
f 1/9/5 9/12/7 80/135/70 88/86/69
s 1
g Pipe_2_Old_Brick
usemtl Old_Brick
f 3/1/1 12/2/2 13/3/2 4/4/3
s 4
f 6/13/8 15/14/9 16/15/10 7/16/11
s 5
f 4/4/12 13/3/12 14/17/12 5/18/12
s 7
f 7/23/13 16/24/13 17/25/13 8/26/13
s 4
f 5/18/14 14/17/15 15/27/9 6/28/8
s 8
f 20/1/16 21/4/16 28/3/16 27/2/16
s 10
f 23/31/20 24/32/21 31/33/22 30/34/23
s 11
f 21/4/24 22/35/24 29/17/24 28/3/24
s 7
f 24/40/13 8/41/13 17/42/13 31/43/13
s 10
f 22/35/25 23/28/20 30/27/23 29/17/25
s 1
f 35/2/26 44/1/27 45/4/28 36/3/26
s 4
f 38/48/32 47/49/33 48/50/34 39/51/35
s 13
f 36/3/36 45/4/36 46/18/36 37/17/36
s 7
f 39/51/13 48/50/13 49/56/13 40/57/13
s 4
f 37/17/37 46/18/38 47/28/33 38/27/32
s 14
f 52/2/39 53/3/39 21/4/39 59/1/39
s 10
f 55/60/43 56/61/44 61/62/45 60/63/46
s 16
f 53/3/47 54/17/47 22/35/47 21/4/47
s 7
f 56/61/13 40/57/13 49/56/13 61/62/13
s 10
f 54/17/48 55/27/43 60/28/46 22/35/48
f 24/68/21 23/69/20 91/70/49
s 7
f 61/71/13 49/72/13 90/73/13
s 17
f 21/4/50 20/74/50 63/75/50 59/1/50
s 1
f 44/1/27 84/90/55 83/91/56 45/4/28
s 18
f 46/18/57 45/4/57 83/91/57 86/92/57
s 4
f 46/18/38 86/92/58 82/93/59 47/28/33
f 47/94/33 82/95/59 81/96/60 48/97/34
s 7
f 49/98/13 48/99/13 81/100/13 90/101/13
f 74/102/13 90/103/13 81/104/13 70/105/13
f 70/106/13 75/107/13 89/108/13 74/109/13
f 8/110/13 89/111/13 75/112/13 7/113/13
s 4
f 6/114/8 7/115/11 75/116/61 76/117/62
f 70/118/63 71/119/64 76/120/62 75/121/61
f 71/122/64 70/123/63 81/124/60 82/125/59
f 72/126/65 71/127/64 82/93/59 86/92/58
s 19
f 72/126/66 86/92/66 83/91/66 73/128/66
s 1
f 69/129/67 73/128/67 83/91/56 84/90/55
f 69/129/67 79/139/71 78/140/72 73/128/67
s 20
f 72/141/73 73/128/73 78/140/73 77/92/73
s 4
f 71/127/64 72/141/65 77/92/74 76/142/62
f 5/18/14 6/28/8 76/142/62 77/92/74
s 21
f 4/4/75 5/18/75 77/92/75 78/140/75
s 1
f 3/1/1 4/4/3 78/140/72 79/139/71
s 7
f 8/143/13 24/144/13 89/145/13
f 74/146/13 91/147/13 61/148/13 90/149/13
f 89/150/13 24/151/13 91/152/13 74/153/13
s 10
f 91/154/49 60/155/46 61/156/45
f 23/157/20 60/158/46 91/159/49
s 22
f 22/160/76 60/161/76 23/162/76
