# Blender 4.5.4 LTS
# www.blender.org
mtllib pips_4.mtl
g Pipe_4_Vert.013
v -60.668823 -0.200000 -7.690263
v -60.668823 -0.200000 -9.590263
v -60.668823 0.400000 -5.941573
v -60.668823 1.200000 -5.345068
v -60.668823 3.450000 -5.366046
v -60.668823 4.350000 -5.941573
v -60.668823 5.000000 -7.090263
v -60.668823 0.400000 -7.290263
v -71.668823 -0.200000 -7.690264
v -71.668823 -0.200000 -9.590264
v -71.668823 0.400000 -5.941574
v -71.668823 1.200000 -5.345069
v -71.668823 3.450000 -5.366047
v -71.668823 4.350000 -5.941574
v -71.668823 5.000000 -7.090264
v -71.668823 0.400000 -7.290264
v -60.668823 -0.200000 -11.490263
v -60.668823 0.400000 -13.238954
v -60.668823 1.200000 -13.835459
v -60.668823 3.450000 -13.814481
v -60.668823 4.350000 -13.238954
v -60.668823 5.000000 -12.090263
v -60.668823 0.400000 -11.890264
v -71.668823 -0.200000 -11.490264
v -71.668823 0.400000 -13.238955
v -71.668823 1.200000 -13.835460
v -71.668823 3.450000 -13.814482
v -71.668823 4.350000 -13.238955
v -71.668823 5.000000 -12.090264
v -71.668823 0.400000 -11.890265
v -64.335487 5.000000 -7.090263
v -68.002159 5.000000 -7.090264
v -64.335487 5.000000 -12.090263
v -68.002159 5.000000 -12.090263
v -64.468826 5.000000 -11.256930
v -67.868820 5.000000 -11.256930
v -64.468826 5.000000 -7.923597
v -67.868820 5.000000 -7.923597
v -64.468826 5.000000 -9.590263
v -67.868820 5.000000 -9.590263
v -66.168823 5.000000 -11.256930
v -66.168823 5.000000 -7.923597
v -67.641068 5.000000 -10.440263
v -67.018822 5.000000 -11.062506
v -64.696579 5.000000 -10.440263
v -65.318825 5.000000 -11.062506
v -64.696579 5.000000 -8.740263
v -65.318825 5.000000 -8.118019
v -67.641068 5.000000 -8.740263
v -67.018822 5.000000 -8.118019
v -65.318825 5.000000 -7.923597
v -64.468826 5.000000 -8.756930
v -65.318825 5.000000 -11.256930
v -64.468826 5.000000 -10.423597
v -67.018822 5.000000 -11.256930
v -67.868820 5.000000 -10.423597
v -67.868820 5.000000 -8.756930
v -67.018822 5.000000 -7.923597
v -66.168823 4.623183 -10.948932
v -66.168823 9.137699 -10.948932
v -65.470016 4.623183 -10.789091
v -65.470016 9.137699 -10.789091
v -64.965775 4.623183 -10.284844
v -64.965775 9.137699 -10.284844
v -64.779655 4.623183 -9.590262
v -64.779655 9.137699 -9.590262
v -64.965775 4.623183 -8.895680
v -64.965775 9.137699 -8.895680
v -65.470016 4.623183 -8.391435
v -65.470016 9.137699 -8.391435
v -66.168823 4.623183 -8.231595
v -66.168823 9.137699 -8.231595
v -66.867630 4.623183 -8.391435
v -66.867630 9.137699 -8.391435
v -67.371872 4.623183 -8.895680
v -67.371872 9.137699 -8.895680
v -67.557991 4.623183 -9.590262
v -67.557991 9.137699 -9.590262
v -67.371872 4.623183 -10.284844
v -67.371872 9.137699 -10.284844
v -66.867630 4.623183 -10.789091
v -66.867630 9.137699 -10.789091
v -65.318825 9.137699 -11.062506
v -66.168823 9.137699 -11.256929
v -64.696579 9.137699 -10.440263
v -64.468826 9.137699 -9.590262
v -64.696579 9.137699 -8.740262
v -65.318825 9.137699 -8.118019
v -66.168823 9.137699 -7.923597
v -67.018822 9.137699 -8.118019
v -67.641068 9.137699 -8.740262
v -67.868820 9.137699 -9.590262
v -67.641068 9.137699 -10.440263
v -67.018822 9.137699 -11.062506
v -65.250481 8.092972 -11.180882
v -66.168823 8.092972 -11.390940
v -64.578201 8.092972 -10.508608
v -64.332130 8.092972 -9.590262
v -64.578201 8.092972 -8.671917
v -65.250481 8.092972 -7.999642
v -66.168823 8.092972 -7.789587
v -67.087166 8.092972 -7.999642
v -67.759445 8.092972 -8.671917
v -68.005516 8.092972 -9.590262
v -67.759445 8.092972 -10.508608
v -67.087166 8.092972 -11.180882
vn -0.0000 0.5978 -0.8017
vn -0.0000 1.0000 -0.0000
vn -0.0000 0.5547 -0.8321
vn -0.0000 -0.7259 -0.6878
vn -0.0000 -0.9670 -0.2546
vn -0.0000 -0.0093 -1.0000
vn -0.0000 -0.5387 -0.8425
vn -0.0000 0.5978 0.8017
vn -0.0000 0.5547 0.8321
vn -0.0000 -0.7259 0.6878
vn -0.0000 -0.9670 0.2546
vn -0.0000 -0.0093 1.0000
vn -0.0000 -0.5387 0.8425
vn -0.0000 -1.0000 -0.0000
vn 0.3725 -0.6383 -0.6737
vn -0.0000 -0.6329 -0.7743
vn 0.6681 -0.6363 -0.3857
vn 0.7714 -0.6363 -0.0000
vn 0.6681 -0.6363 0.3857
vn 0.3725 -0.6383 0.6737
vn -0.0000 -0.6329 0.7743
vn -0.3725 -0.6383 0.6737
vn -0.6681 -0.6363 0.3857
vn -0.7714 -0.6363 -0.0000
vn -0.6681 -0.6363 -0.3857
vn -0.3725 -0.6383 -0.6737
vn -0.2230 -0.0000 -0.9748
vn -0.0000 -0.0000 -1.0000
vn 0.2230 -0.0000 -0.9748
vn 0.7071 -0.0000 -0.7071
vn 0.9659 -0.0000 -0.2588
vn 0.9659 -0.0000 0.2588
vn 0.8660 -0.0000 0.5000
vn 0.7071 -0.0000 0.7071
vn 0.2230 -0.0000 0.9748
vn -0.0000 -0.0000 1.0000
vn -0.2230 -0.0000 0.9748
vn -0.7071 -0.0000 0.7071
vn -0.8660 -0.0000 0.5000
vn -0.9659 -0.0000 0.2588
vn -0.9659 -0.0000 -0.2588
vn -0.8660 -0.0000 -0.5000
vn -0.7071 -0.0000 -0.7071
vn 0.9915 0.1297 -0.0000
vn 0.8587 0.1297 0.4958
vn -0.8587 0.1297 -0.4958
vn -0.7015 0.1254 -0.7015
vn 0.7015 0.1254 -0.7015
vn 0.8587 0.1297 -0.4958
vn -0.7015 0.1254 0.7015
vn -0.8587 0.1297 0.4958
vn 0.7015 0.1254 0.7015
vn -0.2213 0.1241 -0.9673
vn -0.0000 0.1272 -0.9919
vn -0.9915 0.1297 -0.0000
vn 0.2213 0.1241 0.9673
vn -0.0000 0.1272 0.9919
vn 0.2213 0.1241 -0.9673
vn -0.2213 0.1241 0.9673
vt -0.918939 -0.535794
vt 1.918939 -0.535794
vt 1.918939 -0.329403
vt -0.918939 -0.329403
vt -1.399999 -5.000001
vt 0.500001 -5.000001
vt 0.500001 5.999999
vt -1.399999 5.999999
vt -5.000001 -5.665639
vt 5.999999 -5.665639
vt 5.999999 -5.065639
vt -5.000001 -5.065639
vt 1.125792 0.351825
vt -1.712085 0.351825
vt -1.712085 0.648175
vt -0.766126 0.648175
vt 0.179833 0.648175
vt 1.125792 0.648175
vt 1.918939 0.251072
vt -0.918939 0.251072
vt -1.799999 -5.000001
vt -1.799999 5.999999
vt -3.148690 5.999999
vt -3.148690 -5.000001
vt 1.918939 0.483262
vt -0.918939 0.483262
vt 2.400001 -5.000001
vt 2.400001 5.999999
vt 1.892398 1.507235
vt 1.892398 1.210885
vt 0.946439 1.210885
vt 0.000480 1.210885
vt -0.945479 1.210886
vt -0.945479 1.507235
vt 2.800001 -5.000001
vt 4.148691 -5.000001
vt 4.148691 5.999999
vt 2.800001 5.999999
vt 0.912040 0.995895
vt 0.692750 0.995895
vt 0.473459 0.995895
vt 0.254169 0.995895
vt 0.034878 0.995895
vt 0.946439 -0.079059
vt 0.000480 -0.079059
vt 0.034878 0.135932
vt 0.254169 0.135932
vt 0.473459 0.135932
vt 0.692750 0.135932
vt 0.912040 0.135932
vt 1.892398 -0.079059
vt 0.912040 0.350923
vt 0.912040 0.565913
vt 0.912040 0.780904
vt -0.945480 -0.079058
vt 0.034878 0.780904
vt 0.034878 0.565913
vt 0.034878 0.350923
vt 0.692750 0.186091
vt 0.853281 0.346623
vt 0.853281 0.785204
vt 0.692750 0.945735
vt 0.254169 0.945735
vt 0.093637 0.785204
vt 0.093637 0.346623
vt 0.254169 0.186091
vt -0.198807 -0.842456
vt 0.499999 -0.842456
vt 0.499999 -0.465639
vt -0.350000 -0.465639
vt 1.858669 0.499999
vt 1.698828 -0.198807
vt 1.972243 -0.350001
vt 2.166667 0.499999
vt 1.194582 -0.703053
vt 1.972243 -0.350000
vt 1.350000 -0.972244
vt 1.350000 -0.972244
vt 0.500000 -0.842456
vt 1.194582 -0.842456
vt 1.350000 -0.465639
vt 0.500000 -0.465639
vt 0.500000 -0.889165
vt 0.500000 -1.200001
vt -0.194582 -0.842456
vt -0.350000 -0.465639
vt -0.194582 -0.703053
vt -0.350000 -0.972244
vt -0.698828 -0.198807
vt -0.350000 -0.972244
vt -0.972244 -0.350001
vt -0.972243 -0.350001
vt -0.350001 -0.465639
vt -0.858668 0.499999
vt -1.166666 0.499999
vt 1.198805 -0.842456
vt 1.349998 -0.465639
vt -0.698828 1.198805
vt -0.972244 1.349999
vt -0.194583 1.703051
vt -0.972244 1.349998
vt -0.350000 1.972242
vt -0.350001 1.972242
vt 0.500000 -0.842456
vt -0.194583 -0.842456
vt -0.350000 -0.465639
vt 0.500000 -0.465639
vt 0.500000 1.889163
vt 0.499999 2.199999
vt 1.194582 -0.842456
vt 1.194582 1.703051
vt 1.350000 1.972242
vt 1.698828 1.198805
vt 1.350000 1.972242
vt 1.972242 1.349999
vt 1.972243 1.349999
vt 1.349999 -0.465639
vt 0.499999 3.672060
vt -0.198807 3.672060
vt 1.198805 3.672060
vt 1.703051 -0.842456
vt 1.703051 3.672060
vt 0.500000 3.672060
vt -0.194583 3.672060
vt 1.194582 3.672060
vt 1.698828 -0.842456
vt 1.698828 3.672060
vt 1.698828 -0.842456
vt 1.194582 3.672060
vt 1.698828 3.672060
vt 0.500000 3.672060
vt -0.194582 3.672060
vt -0.698828 -0.842456
vt -0.698828 3.672060
vt 0.500000 0.642202
vt 0.268605 0.642202
vt 0.250000 0.357797
vt 0.500000 0.357797
vt 0.731394 0.642202
vt 0.900787 0.642202
vt 0.933012 0.357797
vt 0.750000 0.357797
vt 0.268606 0.642202
vt 0.099213 0.642202
vt 0.066987 0.357797
vt 0.250000 0.357797
vt 0.731394 0.642202
vt 0.900787 0.642202
vt 0.933013 0.357797
vt 0.750000 0.357797
vt 0.099213 0.642202
vt 0.066987 0.357797
vt 0.731395 0.642202
vt 0.500000 0.642202
vt 0.500000 0.357797
vt 0.750000 0.357797
vt 0.731394 0.642202
vt 0.750000 0.357797
vt 0.268605 0.642202
vt 0.500000 0.642202
vt 0.500000 0.357797
vt 0.250000 0.357797
vt 0.268605 0.642202
vt 0.250000 0.357797
s 11
g Pipe_4_Metal_plates_old
usemtl Metal_plates_old
f 61/67/15 59/68/16 41/69/16 46/70/15
s 12
f 60/71/2 62/72/2 83/73/2 84/74/2
s 11
f 63/75/17 61/72/15 46/76/15 45/77/17
s 12
f 62/72/2 64/75/2 85/78/2 83/73/2
s 11
f 65/79/18 63/80/17 45/81/17 39/82/18
s 12
f 64/75/2 66/83/2 86/84/2 85/78/2
s 11
f 67/85/19 65/79/18 39/82/18 47/86/19
s 12
f 66/83/2 68/87/2 87/88/2 86/84/2
s 11
f 69/89/20 67/87/19 47/90/19 48/91/20
s 12
f 68/87/2 70/89/2 88/92/2 87/88/2
s 11
f 71/68/21 69/67/20 48/93/20 42/69/21
s 12
f 70/89/2 72/94/2 89/95/2 88/92/2
s 11
f 73/96/22 71/68/21 42/69/21 50/97/22
s 12
f 72/94/2 74/98/2 90/99/2 89/95/2
s 11
f 75/100/23 73/98/22 50/101/22 49/102/23
s 12
f 74/98/2 76/100/2 91/103/2 90/99/2
s 11
f 77/104/24 75/105/23 49/106/23 40/107/24
s 12
f 76/100/2 78/108/2 92/109/2 91/103/2
s 11
f 79/110/25 77/104/24 40/107/24 43/81/25
s 12
f 78/108/2 80/111/2 93/112/2 92/109/2
s 11
f 81/113/26 79/111/25 43/114/25 44/115/26
s 12
f 80/111/2 82/113/2 94/116/2 93/112/2
s 11
f 59/68/16 81/96/26 44/117/26 41/69/16
s 12
f 82/113/2 60/71/2 84/74/2 94/116/2
s 13
f 69/67/27 71/68/28 72/118/28 70/119/27
f 71/68/28 73/96/29 74/120/29 72/118/28
s 14
f 73/96/30 75/121/30 76/122/30 74/120/30
s 15
f 75/105/31 77/104/31 78/123/31 76/124/31
s 16
f 77/104/32 79/110/33 80/125/33 78/123/32
f 79/110/33 81/126/34 82/127/34 80/125/33
s 17
f 81/96/35 59/68/36 60/118/36 82/120/35
f 59/68/36 61/67/37 62/119/37 60/118/36
s 18
f 61/128/38 63/80/39 64/129/39 62/130/38
f 63/80/39 65/79/40 66/131/40 64/129/39
s 19
f 65/79/41 67/85/42 68/132/42 66/131/41
f 67/85/42 69/133/43 70/134/43 68/132/42
s 20
f 86/135/44 87/136/45 99/137/45 98/138/44
s 21
f 93/139/46 94/140/47 106/141/47 105/142/46
s 20
f 83/143/48 85/144/49 97/145/49 95/146/48
s 21
f 90/147/50 91/148/51 103/149/51 102/150/50
s 20
f 87/136/45 88/151/52 100/152/52 99/137/45
s 22
f 94/153/53 84/154/54 96/155/54 106/156/53
s 20
f 85/157/49 86/135/44 98/138/44 97/158/49
s 21
f 91/159/51 92/160/55 104/161/55 103/162/51
s 23
f 88/163/56 89/154/57 101/155/57 100/164/56
s 21
f 92/160/55 93/139/46 105/142/46 104/161/55
s 22
f 84/154/54 83/143/58 95/146/58 96/155/54
s 23
f 89/154/57 90/147/59 102/150/59 101/155/57
s 1
g Pipe_4_Old_Brick
usemtl Old_Brick
f 3/1/1 11/2/1 12/3/1 4/4/1
s 4
f 6/13/4 14/14/4 15/15/5 32/16/5 31/17/5 7/18/5
s 5
f 4/4/6 12/3/6 13/19/6 5/20/6
s 4
f 5/20/7 13/19/7 14/25/4 6/26/4
s 7
f 18/1/8 19/4/8 26/3/8 25/2/8
s 4
f 21/29/10 22/30/11 33/31/11 34/32/11 29/33/11 28/34/10
s 9
f 19/4/12 20/20/12 27/19/12 26/3/12
s 4
f 20/20/13 21/26/10 28/25/10 27/19/13
f 33/31/11 35/39/14 53/40/14 41/41/14 55/42/14 36/43/14 34/32/11
f 36/43/14 29/33/11 34/32/11
f 31/44/5 32/45/5 38/46/14 58/47/14 42/48/14 51/49/14 37/50/14
f 22/30/11 35/39/14 33/31/11
f 31/44/5 37/50/14 7/51/5
f 7/51/5 37/50/14 52/52/14 39/53/14 54/54/14 35/39/14 22/30/11
f 32/45/5 15/55/5 38/46/14
f 38/46/14 15/55/5 29/33/11 36/43/14 56/56/14 40/57/14 57/58/14
f 51/49/14 42/48/14 48/59/14
f 37/50/14 51/49/14 48/59/14 47/60/14 52/52/14
f 47/60/14 39/53/14 52/52/14
f 54/54/14 39/53/14 45/61/14
f 35/39/14 54/54/14 45/61/14 46/62/14 53/40/14
f 41/41/14 53/40/14 46/62/14
f 55/42/14 41/41/14 44/63/14
f 44/63/14 43/64/14 56/56/14 36/43/14 55/42/14
f 56/56/14 43/64/14 40/57/14
f 49/65/14 57/58/14 40/57/14
f 38/46/14 57/58/14 49/65/14 50/66/14 58/47/14
f 42/48/14 58/47/14 50/66/14
s 2
g Pipe_4_White_Old_Concrete
usemtl White_Old_Concrete
f 1/5/2 2/6/2 10/7/2 9/8/2
s 3
f 1/9/3 9/10/3 16/11/3 8/12/3
s 6
f 8/21/2 16/22/2 11/23/2 3/24/2
s 2
f 17/27/2 24/28/2 10/7/2 2/6/2
s 8
f 17/9/9 23/12/9 30/11/9 24/10/9
s 10
f 23/35/2 18/36/2 25/37/2 30/38/2
