# Blender 4.5.4 LTS
# www.blender.org
mtllib pips_3.mtl
g Pipe_3_Vert.005
v -65.572319 -0.200000 -48.754807
v -65.572319 5.000000 -48.754807
v -67.472321 -0.200000 -48.754807
v -69.221008 0.400000 -48.754807
v -69.817513 1.200000 -48.754807
v -69.807022 3.450000 -48.765293
v -69.221008 4.350000 -48.754807
v -68.072319 5.000000 -48.754807
v -67.872322 0.400000 -48.754807
v -71.072319 -0.200000 -54.900002
v -71.072319 -0.200000 -53.000000
v -71.072319 0.400000 -56.648689
v -71.072319 1.200000 -57.245193
v -71.072319 3.450000 -57.224216
v -71.072319 4.350000 -56.648689
v -71.072319 5.000000 -55.500000
v -71.072319 5.000000 -53.000000
v -71.072319 0.400000 -55.299999
v -69.817513 -0.200000 -54.900002
v -69.817513 -0.200000 -53.000000
v -69.817513 0.400000 -56.648693
v -69.817513 1.200000 -57.245197
v -69.817513 3.450000 -57.224220
v -69.817513 4.350000 -56.648693
v -69.817513 5.000000 -55.500000
v -69.817513 5.000000 -53.000000
v -69.817513 0.400000 -55.300003
v -71.072319 -0.200000 -51.100002
v -71.072319 0.400000 -49.351311
v -71.072319 1.200000 -48.754807
v -71.072319 3.450000 -48.775784
v -71.072319 4.350000 -49.351311
v -71.072319 5.000000 -50.500000
v -71.072319 0.400000 -50.700001
v -69.817513 -0.200000 -51.100002
v -69.817513 0.400000 -49.351311
v -69.817513 4.350000 -49.351311
v -69.817513 5.000000 -50.500000
v -69.817513 0.400000 -50.700001
v -67.694916 -0.200000 -51.100002
v -68.144913 -0.200000 -50.427402
v -68.344917 0.400000 -50.227406
v -65.572319 -0.200000 -54.900002
v -65.572319 0.400000 -55.300003
v -65.572319 0.400000 -56.648693
v -65.572319 1.200000 -57.245197
v -65.572319 3.450000 -57.245197
v -65.572319 4.350000 -56.648693
v -65.572319 5.000000 -55.500000
v -65.572319 5.000000 -53.000000
v -63.672318 -0.200000 -48.754807
v -61.923630 0.400000 -48.754807
v -61.327126 1.200000 -48.754807
v -61.337612 3.450000 -48.765297
v -61.923630 4.350000 -48.754807
v -63.072319 5.000000 -48.754807
v -63.272320 0.400000 -48.754807
v -60.072319 -0.200000 -54.900002
v -60.072319 -0.200000 -53.000004
v -60.072319 0.400000 -56.648693
v -60.072319 1.200000 -57.245197
v -60.072319 3.450000 -57.224220
v -60.072319 4.350000 -56.648693
v -60.072319 5.000000 -55.500004
v -60.072319 5.000000 -53.000004
v -60.072319 0.400000 -55.300003
v -61.327126 -0.200000 -54.900002
v -61.327126 -0.200000 -53.000004
v -61.327126 0.400000 -56.648693
v -61.327126 1.200000 -57.245197
v -61.327126 3.450000 -57.224220
v -61.327126 4.350000 -56.648693
v -61.327126 5.000000 -55.500004
v -61.327126 5.000000 -53.000004
v -61.327126 0.400000 -55.300003
v -60.072319 -0.200000 -51.100002
v -60.072319 0.400000 -49.351311
v -60.072319 1.200000 -48.754807
v -60.072319 3.450000 -48.775784
v -60.072319 4.350000 -49.351311
v -60.072319 5.000000 -50.500004
v -60.072319 0.400000 -50.700001
v -61.327126 -0.200000 -51.100002
v -61.327126 0.400000 -49.351311
v -61.327126 4.350000 -49.351311
v -61.327126 5.000000 -50.500004
v -61.327126 0.400000 -50.700005
v -63.449722 -0.200000 -51.100002
v -62.999722 -0.200000 -50.427406
v -62.799721 0.400000 -50.227406
vn -0.0000 0.5978 0.8017
vn -0.0000 1.0000 -0.0000
vn -0.0000 0.5547 0.8320
vn -0.0000 -0.7259 0.6878
vn 0.0005 -0.7274 0.6863
vn -0.0000 -0.9670 0.2546
vn -0.0000 -0.0093 1.0000
vn 0.0012 -0.0070 1.0000
vn -0.0000 -1.0000 -0.0000
vn -0.0000 -0.5387 0.8425
vn 0.0010 -0.5422 0.8402
vn -0.0000 0.5978 -0.8017
vn -0.0000 0.5547 -0.8321
vn 0.1611 0.5146 -0.8422
vn 0.1424 0.5200 -0.8422
vn 0.0018 -0.7273 -0.6863
vn -0.0000 -0.9670 -0.2546
vn 0.0654 -0.9793 -0.1916
vn 0.2845 -0.7257 -0.6264
vn 0.0042 -0.0070 -1.0000
vn 0.0035 -0.5422 -0.8402
vn 0.6255 0.4664 -0.6255
vn 0.8313 0.4661 -0.3027
vn 0.3027 0.4661 -0.8313
vn -0.0000 -0.0047 1.0000
vn -0.0000 -0.5457 0.8380
vn -0.0000 -0.7288 0.6848
vn 0.5243 -0.6709 -0.5243
vn 0.6443 -0.4120 -0.6443
vn 0.4418 -0.7808 -0.4418
vn -0.0005 -0.7274 0.6863
vn -0.0012 -0.0070 1.0000
vn -0.0010 -0.5422 0.8402
vn -0.1424 0.5200 -0.8422
vn -0.1611 0.5146 -0.8422
vn -0.0018 -0.7273 -0.6863
vn -0.2845 -0.7257 -0.6264
vn -0.0654 -0.9793 -0.1916
vn -0.0042 -0.0070 -1.0000
vn -0.0035 -0.5422 -0.8402
vn -0.6255 0.4664 -0.6255
vn -0.8313 0.4661 -0.3027
vn -0.3027 0.4661 -0.8313
vn -0.5244 -0.6709 -0.5243
vn -0.6443 -0.4120 -0.6443
vn -0.4418 -0.7808 -0.4418
vt 2.812911 -0.970932
vt 2.283076 -0.970932
vt 2.283076 -0.633137
vt 2.812911 -0.633137
vt 2.512211 -0.348753
vt 2.512211 0.342524
vt 2.055674 0.342523
vt 2.055674 -0.348753
vt 2.512211 0.551443
vt 2.055674 0.551443
vt 2.055674 0.769741
vt 2.512211 0.769741
vt 2.812911 -1.127528
vt 2.283076 -1.127529
vt 2.283076 -0.642501
vt 2.812911 -0.642501
vt 2.283076 0.316913
vt 2.812911 0.316913
vt 2.512211 -0.494285
vt 2.055674 -0.494285
vt 2.055674 -0.984978
vt 2.512211 -0.984978
vt 2.283076 0.413110
vt 2.812911 0.413110
vt 2.283076 0.696932
vt 2.812911 0.696932
vt 2.283076 -0.633137
vt 2.512211 1.033800
vt 2.055674 1.033800
vt 2.812911 1.953748
vt 2.812911 1.468720
vt 2.283076 1.468720
vt 2.283076 1.953748
vt 2.278647 0.316913
vt 2.512211 1.179332
vt 2.512211 1.670025
vt 2.055674 1.670025
vt 2.055674 1.179332
vt 2.382302 -0.633137
vt 2.382302 -0.970932
vt 2.130431 -0.970932
vt 1.283410 1.033800
vt 1.447134 1.278511
vt 0.511147 1.887051
vt 1.202423 1.887051
vt 1.838649 1.887051
vt 1.347955 1.887051
vt 1.519900 1.351276
vt 1.706592 0.769741
vt 1.706592 0.551443
vt 1.098051 0.551443
vt 1.170817 0.769741
vt 1.519900 0.769741
vt 1.447134 0.551443
vt 0.511147 -0.348753
vt 0.511147 0.551443
vt 0.511147 0.769741
vt 0.511147 -0.494285
vt 0.511147 -0.984978
vt 0.490568 -0.970932
vt 0.490568 -0.633137
vt 0.490568 0.316913
vt 0.490568 0.696932
vt 0.490568 -1.127528
vt 0.490568 -0.642501
vt 0.490568 0.413110
vt 0.490568 2.205618
vt 1.546178 2.205618
vt 2.382302 0.696932
vt 2.377873 0.316913
vt 2.130431 0.696932
vt 2.031206 2.205618
vt -1.831775 -0.970932
vt -1.831775 -0.633137
vt -1.301940 -0.633137
vt -1.301940 -0.970932
vt -1.489917 -0.348753
vt -1.033380 -0.348753
vt -1.033380 0.342523
vt -1.489917 0.342524
vt -1.489917 0.551443
vt -1.489917 0.769741
vt -1.033380 0.769741
vt -1.033380 0.551443
vt -1.831775 -1.127528
vt -1.831775 -0.642501
vt -1.301940 -0.642501
vt -1.301940 -1.127529
vt -1.831775 0.316913
vt -1.301940 0.316913
vt -1.489917 -0.494285
vt -1.489917 -0.984978
vt -1.033380 -0.984978
vt -1.033380 -0.494285
vt -1.831775 0.413110
vt -1.301940 0.413110
vt -1.831775 0.696932
vt -1.301940 0.696932
vt -1.301940 -0.633137
vt -1.489917 1.033800
vt -1.033380 1.033800
vt -1.831775 1.953748
vt -1.301940 1.953748
vt -1.301940 1.468720
vt -1.831775 1.468720
vt -1.297511 0.316913
vt -1.489917 1.179332
vt -1.033380 1.179332
vt -1.033380 1.670025
vt -1.489917 1.670025
vt 1.706592 1.060805
vt 1.489566 0.769741
vt -0.261117 1.033800
vt -0.424840 1.278511
vt -0.180129 1.887051
vt -0.816355 1.887051
vt -0.497606 1.351276
vt -0.325661 1.887051
vt -0.424840 0.551443
vt -0.497606 0.769741
vt -0.565042 2.205618
vt -1.050070 2.205618
s 1
g Pipe_3_Old_Brick
usemtl Old_Brick
f 12/1/1 21/2/1 22/3/1 13/4/1
s 4
f 15/13/4 24/14/5 25/15/6 16/16/6
s 5
f 13/4/7 22/3/8 23/17/8 14/18/7
s 4
f 16/16/6 25/15/6 26/23/9 17/24/9
f 14/18/10 23/17/11 24/25/5 15/26/4
s 7
f 29/1/12 30/4/12 5/27/12 36/2/12
s 4
f 32/30/16 33/31/17 38/32/18 37/33/19
s 9
f 30/4/20 31/18/20 6/34/20 5/27/20
s 4
f 33/31/17 17/24/9 26/23/9 38/32/18
f 31/18/21 32/26/16 37/25/19 6/34/21
s 11
f 5/39/22 4/40/22 36/41/22
s 1
f 22/3/1 21/2/1 45/60/1 46/61/1
s 5
f 23/17/8 22/3/8 46/61/25 47/62/25
s 4
f 24/25/5 23/17/11 47/62/26 48/63/27
f 25/15/6 24/14/5 48/64/27 49/65/6
f 25/15/6 49/65/6 50/66/9 26/23/9
f 50/66/9 2/67/9 26/23/9
f 2/67/9 8/68/9 38/32/18 26/23/9
f 7/69/28 6/70/29 37/71/19
f 8/68/30 7/72/28 37/33/19 38/32/18
s 1
f 60/73/1 61/74/1 70/75/1 69/76/1
s 4
f 63/85/4 64/86/6 73/87/6 72/88/31
s 5
f 61/74/7 62/89/7 71/90/32 70/75/32
s 4
f 64/86/6 65/95/9 74/96/9 73/87/6
f 62/89/10 63/97/4 72/98/31 71/90/33
s 13
f 77/73/12 84/76/12 53/99/12 78/74/12
s 4
f 80/102/36 85/103/37 86/104/38 81/105/17
s 15
f 78/74/39 53/99/39 54/106/39 79/89/39
s 4
f 81/105/17 86/104/38 74/96/9 65/95/9
f 79/89/40 54/106/40 85/98/37 80/97/36
s 1
f 70/75/1 46/61/1 45/60/1 69/76/1
s 5
f 71/90/32 47/62/25 46/61/25 70/75/32
s 4
f 72/98/31 48/63/27 47/62/26 71/90/33
f 73/87/6 49/65/6 48/64/27 72/88/31
f 73/87/6 74/96/9 50/66/9 49/65/6
f 50/66/9 74/96/9 2/67/9
f 2/67/9 74/96/9 86/104/38 56/121/9
f 55/69/44 85/71/37 54/70/45
f 56/121/46 86/104/38 85/103/37 55/122/44
s 2
g Pipe_3_White_Old_Concrete
usemtl White_Old_Concrete
f 10/5/2 11/6/2 20/7/2 19/8/2
s 3
f 10/9/3 19/10/3 27/11/3 18/12/3
s 6
f 18/19/2 27/20/2 21/21/2 12/22/2
s 2
f 28/28/2 35/29/2 20/7/2 11/6/2
s 8
f 28/9/13 34/12/13 39/11/14 35/10/15
s 10
f 34/35/2 29/36/2 36/37/2 39/38/2
s 2
f 40/42/2 35/29/2 41/43/2
f 20/7/2 35/29/2 40/42/2
f 1/44/2 40/42/2 41/43/2 3/45/2
s 10
f 4/46/2 9/47/2 42/48/2 39/38/2 36/37/2
s 12
f 9/49/23 3/50/23 41/51/23 42/52/23
s 8
f 39/11/14 42/53/24 41/54/24 35/10/15
s 2
f 40/42/2 1/44/2 43/55/2
f 19/8/2 20/7/2 40/42/2 43/55/2
s 3
f 27/11/3 19/10/3 43/56/3 44/57/3
s 6
f 21/21/2 27/20/2 44/58/2 45/59/2
s 2
f 58/77/2 67/78/2 68/79/2 59/80/2
s 3
f 58/81/3 66/82/3 75/83/3 67/84/3
s 6
f 66/91/2 60/92/2 69/93/2 75/94/2
s 2
f 76/100/2 59/80/2 68/79/2 83/101/2
s 14
f 76/81/13 83/84/34 87/83/35 82/82/13
s 16
f 82/107/2 87/108/2 84/109/2 77/110/2
s 17
f 53/111/41 84/112/41 52/49/41
s 2
f 88/113/2 89/114/2 83/101/2
f 68/79/2 88/113/2 83/101/2
f 1/44/2 51/115/2 89/114/2 88/113/2
s 16
f 52/116/2 84/109/2 87/108/2 90/117/2 57/118/2
s 18
f 57/49/42 90/52/42 89/51/42 51/50/42
s 14
f 87/83/35 83/84/34 89/119/43 90/120/43
s 2
f 88/113/2 43/55/2 1/44/2
f 67/78/2 43/55/2 88/113/2 68/79/2
s 3
f 75/83/3 44/57/3 43/56/3 67/84/3
s 6
f 69/93/2 45/59/2 44/58/2 75/94/2
