# Blender 4.5.4 LTS
# www.blender.org
mtllib Rap_Pipe_1.mtl
g Rat_Pipe_1_Vert.012
v -65.208183 -0.528691 13.291629
v -65.208260 -0.162584 13.606527
v -65.208229 -0.190510 13.471334
v -65.208336 -0.528691 13.921426
v -65.208199 -0.338541 13.336855
v -65.208290 -0.190510 13.741720
v -65.208321 -0.338541 13.876200
v -65.208183 -0.902095 13.291629
v -65.208336 -0.902095 13.921426
v -65.208168 -0.528691 13.204105
v -65.208260 -0.022704 13.606527
v -65.208214 -0.080065 13.405316
v -65.208351 -0.528691 14.008949
v -65.208168 -0.327365 13.204105
v -65.208305 -0.080065 13.807738
v -65.208351 -0.327365 14.008949
v -65.208168 -0.902095 13.204105
v -65.208351 -0.902095 14.008949
v -65.316208 -0.540583 13.235112
v -65.316292 -0.108799 13.606502
v -65.316254 -0.141734 13.447057
v -65.316383 -0.540583 13.977891
v -65.316216 -0.316321 13.288451
v -65.316330 -0.141734 13.765947
v -65.316368 -0.316321 13.924552
v -65.316208 -0.902095 13.235112
v -65.316383 -0.902095 13.977891
v -65.316185 -0.540583 13.131887
v -65.316292 0.056176 13.606502
v -65.316238 -0.011476 13.369195
v -65.316406 -0.540583 14.081116
v -65.316185 -0.303141 13.131887
v -65.316353 -0.011476 13.843809
v -65.316406 -0.303141 14.081116
v -65.316185 -0.902095 13.131887
v -65.316406 -0.902095 14.081116
v -65.952934 -0.540583 13.131738
v -65.953049 0.056176 13.606352
v -65.952988 -0.011476 13.369045
v -65.953156 -0.540583 14.080966
v -65.952934 -0.303141 13.131738
v -65.953102 -0.011476 13.843659
v -65.953156 -0.303141 14.080966
v -65.952934 -0.902095 13.131738
v -65.953156 -0.902095 14.080966
vn 0.4059 -0.1183 0.9062
vn 0.5669 -0.8238 0.0001
vn 0.5671 -0.7141 0.4105
vn 0.4063 -0.1183 -0.9060
vn 0.4911 -0.4132 0.7669
vn 0.5673 -0.7141 -0.4102
vn 0.4915 -0.4132 -0.7666
vn 0.3204 -0.4599 0.8282
vn 0.3207 -0.4599 -0.8280
vn 0.8579 -0.0000 -0.5138
vn 0.8670 0.4983 0.0002
vn 0.8506 0.4384 -0.2902
vn 0.8577 -0.0000 0.5142
vn 0.8133 0.1990 -0.5468
vn 0.8505 0.4384 0.2906
vn 0.8130 0.1990 0.5472
vn 0.6851 -0.6019 -0.4103
vn 0.6849 -0.6019 0.4106
vn 0.3398 -0.0971 0.9355
vn 0.4926 -0.8702 0.0001
vn 0.4351 -0.7656 0.4738
vn 0.3403 -0.0971 -0.9353
vn 0.3560 -0.4055 0.8419
vn 0.4354 -0.7656 -0.4736
vn 0.3564 -0.4055 -0.8418
vn 0.2333 -0.7627 0.6032
vn 0.2336 -0.7627 -0.6031
vn 0.2744 -0.0000 -0.9616
vn 0.2987 0.9544 0.0001
vn 0.2859 0.7851 -0.5494
vn 0.2740 -0.0000 0.9617
vn 0.2641 0.2938 -0.9186
vn 0.2857 0.7851 0.5495
vn 0.2637 0.2938 0.9188
vn 0.2681 -0.2144 -0.9393
vn 0.2676 -0.2144 0.9394
vn 0.0002 -0.0000 -1.0000
vn -0.0000 1.0000 -0.0000
vn 0.0001 0.8227 -0.5684
vn -0.0002 -0.0000 1.0000
vn 0.0002 0.3116 -0.9502
vn -0.0001 0.8227 0.5684
vn -0.0002 0.3116 0.9502
vt 0.784096 0.566235
vt 0.923946 0.575003
vt 0.923946 0.417044
vt 0.831741 0.417044
vt 0.215903 0.566235
vt 0.076054 0.575003
vt 0.288027 0.769034
vt 0.357576 0.682379
vt 0.168259 0.124072
vt 0.076054 0.124072
vt 0.076054 0.417044
vt 0.168259 0.417044
vt 0.500000 0.704290
vt 0.500000 0.814039
vt 0.711973 0.769034
vt 0.642424 0.682379
vt 0.923946 0.124072
vt 0.831741 0.124072
vt 0.542382 0.566235
vt 0.542382 0.417044
vt 0.457618 0.407713
vt 0.457618 0.583668
vt 0.542382 0.575003
vt 0.457618 0.594010
vt 0.500000 0.542382
vt 0.642424 0.542382
vt 0.667974 0.457618
vt 0.500000 0.457618
vt 0.711973 0.542382
vt 0.500000 0.542382
vt 0.750000 0.457618
vt 0.784096 0.542382
vt 0.835062 0.457618
vt 0.750000 0.822848
vt 1.000000 0.594010
vt 0.542382 0.124072
vt 0.457618 0.124072
vt 0.076054 0.542382
vt 0.168259 0.542382
vt 0.108746 0.457618
vt 0.000000 0.457618
vt 0.542382 0.124072
vt 0.457618 0.124072
vt 0.457618 0.124072
vt 0.357576 0.542382
vt 0.332026 0.457618
vt 0.288027 0.542382
vt 0.250000 0.457618
vt 0.215903 0.542382
vt 0.164938 0.457618
vt 0.000000 0.594010
vt 0.250000 0.822848
vt 0.831741 0.542382
vt 0.923946 0.542382
vt 1.000000 0.457618
vt 0.891254 0.457618
vt 0.000000 0.000000
vt 0.625204 0.625000
vt 0.625204 0.375000
vt 1.124796 0.375000
vt 1.124796 0.625000
vt 0.749796 0.407713
vt 0.749796 0.594010
vt 0.250204 0.594010
vt 0.250204 0.407713
vt 0.374796 0.375000
vt 0.374796 0.625000
vt -0.124796 0.625000
vt -0.124796 0.375000
vt 0.749796 0.124072
vt 0.250204 0.124072
vt 0.726710 0.228890
vt 0.748818 0.477911
vt 0.251182 0.522089
vt 0.229075 0.273069
vt 0.770925 0.726931
vt 0.273290 0.771110
vt 0.749796 0.124073
vt 0.250204 0.124073
s 1
g Rat_Pipe_1_Old_Brick
usemtl Old_Brick
f 7/1/7 16/2/16 13/3/13 4/4/4
f 5/5/5 14/6/14 12/7/12 3/8/3
f 8/9/8 17/10/17 10/11/10 1/12/1
f 2/13/2 11/14/11 15/15/15 6/16/6
f 1/12/1 10/11/10 14/6/14 5/5/5
f 3/8/3 12/7/12 11/14/11 2/13/2
f 4/4/4 13/3/13 18/17/18 9/18/9
f 6/16/6 15/15/15 16/2/16 7/1/7
f 7/19/7 4/20/4 22/21/22 25/22/25
f 13/20/13 16/23/16 34/24/34 31/21/31
f 2/25/2 6/26/6 24/27/24 20/28/20
f 15/29/15 11/30/11 29/28/29 33/31/33
f 6/26/6 7/32/7 25/33/25 24/27/24
f 16/2/16 15/15/15 33/34/33 34/35/34
f 8/36/8 1/20/1 19/21/19 26/37/26
f 17/38/17 8/39/8 26/40/26 35/41/35
f 10/20/10 17/42/17 35/43/35 28/21/28
f 4/20/4 9/36/9 27/44/27 22/21/22
f 3/45/3 2/25/2 20/28/20 21/46/21
f 18/36/18 13/20/13 31/21/31 36/44/36
f 11/30/11 12/47/12 30/48/30 29/28/29
f 5/49/5 3/45/3 21/46/21 23/50/23
f 12/7/12 14/6/14 32/51/32 30/52/30
f 9/53/9 18/54/18 36/55/36 27/56/27
f 1/20/1 5/19/5 23/22/23 19/21/19
f 14/23/14 10/20/10 28/21/28 32/24/32
f 34/58/34 33/59/33 42/60/42 43/61/43
f 31/62/31 34/63/34 43/64/43 40/65/40
f 30/66/30 32/67/32 41/68/41 39/69/39
f 28/62/28 35/70/35 44/71/37 37/65/37
f 33/72/33 29/73/29 38/74/38 42/75/42
f 32/63/32 28/62/28 37/65/37 41/64/41
f 29/73/29 30/76/30 39/77/39 38/74/38
f 36/78/36 31/62/31 40/65/40 45/79/40
g Rat_Pipe_1_Dark
usemtl Dark
f 21/57/21 20/57/20 24/57/24 25/57/25 22/57/22 27/57/27 26/57/26 19/57/19 23/57/23
