# Blender 4.5.4 LTS
# www.blender.org
mtllib Rap_Pipe_2.mtl
g Rat_Pipe_2_Vert.010
v -65.208145 -0.528691 12.118858
v -65.208145 -0.162584 12.433757
v -65.208145 -0.190510 12.298564
v -65.208145 -0.528691 12.748655
v -65.208145 -0.338541 12.164084
v -65.208145 -0.190510 12.568950
v -65.208145 -0.338541 12.703429
v -65.208145 -0.902095 12.118858
v -65.208145 -0.902095 12.748655
v -65.208145 -0.528691 12.031335
v -65.208145 -0.022704 12.433757
v -65.208145 -0.080065 12.232546
v -65.208145 -0.528691 12.836179
v -65.208145 -0.327365 12.031335
v -65.208145 -0.080065 12.634968
v -65.208145 -0.327365 12.836179
v -65.208145 -0.902095 12.031335
v -65.208145 -0.902095 12.836179
v -65.316177 -0.540583 12.062367
v -65.316177 -0.108799 12.433757
v -65.316177 -0.141735 12.274311
v -65.316177 -0.540583 12.805146
v -65.316177 -0.316321 12.115706
v -65.316177 -0.141735 12.593203
v -65.316177 -0.316321 12.751807
v -65.316177 -0.902095 12.062367
v -65.316177 -0.902095 12.805146
v -65.316177 -0.540583 11.959143
v -65.316177 0.056175 12.433757
v -65.316177 -0.011476 12.196450
v -65.316177 -0.540583 12.908371
v -65.316177 -0.303141 11.959143
v -65.316177 -0.011476 12.671063
v -65.316177 -0.303141 12.908371
v -65.316177 -0.902095 11.959143
v -65.316177 -0.902095 12.908371
vn 0.4061 -0.1183 0.9061
vn 0.5669 -0.8238 -0.0000
vn 0.5672 -0.7141 0.4103
vn 0.4061 -0.1183 -0.9061
vn 0.4913 -0.4132 0.7667
vn 0.5672 -0.7141 -0.4103
vn 0.4913 -0.4132 -0.7667
vn 0.3206 -0.4599 0.8281
vn 0.3206 -0.4599 -0.8281
vn 0.8578 -0.0000 -0.5140
vn 0.8670 0.4983 -0.0000
vn 0.8505 0.4384 -0.2904
vn 0.8578 -0.0000 0.5140
vn 0.8131 0.1990 -0.5470
vn 0.8505 0.4384 0.2904
vn 0.8131 0.1990 0.5470
vn 0.6850 -0.6019 -0.4105
vn 0.6850 -0.6019 0.4105
vn 0.3400 -0.0971 0.9354
vn 0.4926 -0.8702 -0.0000
vn 0.4352 -0.7656 0.4737
vn 0.3400 -0.0971 -0.9354
vn 0.3562 -0.4055 0.8418
vn 0.4352 -0.7656 -0.4737
vn 0.3562 -0.4055 -0.8418
vn 0.2335 -0.7627 0.6031
vn 0.2335 -0.7627 -0.6031
vn 0.5556 -0.0000 -0.8314
vn 0.5897 0.8076 -0.0000
vn 0.5794 0.6638 -0.4728
vn 0.5556 -0.0000 0.8314
vn 0.5760 0.2400 -0.7814
vn 0.5794 0.6638 0.4728
vn 0.5760 0.2400 0.7814
vn 0.5077 -0.4063 -0.7597
vn 0.5077 -0.4063 0.7597
vt 0.784096 0.566235
vt 0.923946 0.575003
vt 0.923946 0.417044
vt 0.831741 0.417044
vt 0.215903 0.566235
vt 0.076054 0.575003
vt 0.288027 0.769034
vt 0.357576 0.682379
vt 0.168259 0.124072
vt 0.076054 0.124072
vt 0.076054 0.417044
vt 0.168259 0.417044
vt 0.500000 0.704290
vt 0.500000 0.814039
vt 0.711973 0.769034
vt 0.642424 0.682379
vt 0.923946 0.124072
vt 0.831741 0.124072
vt 0.542382 0.566235
vt 0.542382 0.417044
vt 0.457618 0.407713
vt 0.457618 0.583668
vt 0.542382 0.575003
vt 0.457618 0.594010
vt 0.500000 0.542382
vt 0.642424 0.542382
vt 0.667974 0.457618
vt 0.500000 0.457618
vt 0.711973 0.542382
vt 0.500000 0.542382
vt 0.750000 0.457618
vt 0.784096 0.542382
vt 0.835062 0.457618
vt 0.750000 0.822848
vt 1.000000 0.594010
vt 0.542382 0.124072
vt 0.457618 0.124072
vt 0.076054 0.542382
vt 0.168259 0.542382
vt 0.108746 0.457618
vt 0.000000 0.457618
vt 0.542382 0.124072
vt 0.457618 0.124072
vt 0.457618 0.124072
vt 0.357576 0.542382
vt 0.332026 0.457618
vt 0.288027 0.542382
vt 0.250000 0.457618
vt 0.215903 0.542382
vt 0.164938 0.457618
vt 0.000000 0.594010
vt 0.250000 0.822848
vt 0.831741 0.542382
vt 0.923946 0.542382
vt 1.000000 0.457618
vt 0.891254 0.457618
vt 0.000000 0.000000
s 1
g Rat_Pipe_2_Old_Brick
usemtl Old_Brick
f 7/1/7 16/2/16 13/3/13 4/4/4
f 5/5/5 14/6/14 12/7/12 3/8/3
f 8/9/8 17/10/17 10/11/10 1/12/1
f 2/13/2 11/14/11 15/15/15 6/16/6
f 1/12/1 10/11/10 14/6/14 5/5/5
f 3/8/3 12/7/12 11/14/11 2/13/2
f 4/4/4 13/3/13 18/17/18 9/18/9
f 6/16/6 15/15/15 16/2/16 7/1/7
f 7/19/7 4/20/4 22/21/22 25/22/25
f 13/20/13 16/23/16 34/24/34 31/21/31
f 2/25/2 6/26/6 24/27/24 20/28/20
f 15/29/15 11/30/11 29/28/29 33/31/33
f 6/26/6 7/32/7 25/33/25 24/27/24
f 16/2/16 15/15/15 33/34/33 34/35/34
f 8/36/8 1/20/1 19/21/19 26/37/26
f 17/38/17 8/39/8 26/40/26 35/41/35
f 10/20/10 17/42/17 35/43/35 28/21/28
f 4/20/4 9/36/9 27/44/27 22/21/22
f 3/45/3 2/25/2 20/28/20 21/46/21
f 18/36/18 13/20/13 31/21/31 36/44/36
f 11/30/11 12/47/12 30/48/30 29/28/29
f 5/49/5 3/45/3 21/46/21 23/50/23
f 12/7/12 14/6/14 32/51/32 30/52/30
f 9/53/9 18/54/18 36/55/36 27/56/27
f 1/20/1 5/19/5 23/22/23 19/21/19
f 14/23/14 10/20/10 28/21/28 32/24/32
g Rat_Pipe_2_Dark
usemtl Dark
f 21/57/21 20/57/20 24/57/24 25/57/25 22/57/22 27/57/27 26/57/26 19/57/19 23/57/23
