# Blender 4.5.4 LTS
# www.blender.org
mtllib Vent_2.mtl
g Vent_2_Vert.008
v -65.094673 -0.949232 16.280521
v -65.095001 -0.949232 16.387011
v -65.094673 0.933852 16.280521
v -65.095001 0.933852 16.387011
v -65.094673 -0.769820 16.694416
v -65.095001 -0.769820 16.800905
v -65.094673 0.778639 16.694416
v -65.095001 0.742801 16.800905
v -65.094673 -0.949232 15.945278
v -65.095001 -0.949232 15.838789
v -65.094673 0.933852 15.945278
v -65.095001 0.933852 15.838789
v -65.094673 -0.769820 15.531384
v -65.095001 -0.769820 15.424895
v -65.094673 0.778639 15.531384
v -65.095001 0.742801 15.424895
v -65.695335 1.000000 16.112900
v -65.695335 0.866025 16.612900
v -65.695335 0.500000 16.978926
v -65.695335 0.000000 17.112900
v -65.695335 -0.500000 16.978926
v -65.695335 -0.866025 16.612900
v -65.695335 -1.000000 16.112900
v -65.695335 -0.866025 15.612900
v -65.695335 -0.500000 15.246875
v -65.695335 0.000000 15.112900
v -65.695335 0.500000 15.246875
v -65.695335 0.866025 15.612900
v -65.876602 1.186902 16.112900
v -65.876602 1.027888 16.706350
v -65.876602 0.593451 17.140787
v -65.876602 0.000000 17.299803
v -65.876602 -0.593451 17.140787
v -65.876602 -1.027888 16.706350
v -65.876602 -1.186902 16.112900
v -65.876602 -1.027888 15.519448
v -65.876602 -0.593451 15.085012
v -65.876602 0.000000 14.925998
v -65.876602 0.593451 15.085012
v -65.876602 1.027888 15.519448
v -65.430840 1.000000 16.112900
v -65.430840 0.866025 16.612900
v -65.430840 0.500000 16.978926
v -65.430840 0.000000 17.112900
v -65.430840 -0.500000 16.978926
v -65.430840 -0.866025 16.612900
v -65.430840 -1.000000 16.112900
v -65.430840 -0.866025 15.612900
v -65.430840 -0.500000 15.246875
v -65.430840 0.000000 15.112900
v -65.430840 0.500000 15.246875
v -65.430840 0.866025 15.612900
v -64.994026 0.949232 16.112900
v -64.994026 0.822059 16.587517
v -64.994026 0.474616 16.934959
v -64.994026 0.000000 17.062132
v -64.994026 -0.474616 16.934959
v -64.994026 -0.822059 16.587517
v -64.994026 -0.949232 16.112900
v -64.994026 -0.822059 15.638284
v -64.994026 -0.474616 15.290840
v -64.994026 0.000000 15.163668
v -64.994026 0.474616 15.290840
v -64.994026 0.822059 15.638284
v -64.994026 0.952586 16.662876
v -64.994026 1.099952 16.112900
v -64.994026 0.549976 17.065487
v -64.994026 0.000000 17.212852
v -64.994026 -0.549976 17.065487
v -64.994026 -0.952586 16.662876
v -64.994026 -1.099952 16.112900
v -64.994026 -0.952586 15.562923
v -64.994026 -0.549976 15.160314
v -64.994026 0.000000 15.012948
v -64.994026 0.549976 15.160314
v -64.994026 0.952586 15.562923
v -65.776451 0.978783 16.112900
v -65.776451 0.847651 16.602291
v -65.776451 0.489391 16.960550
v -65.776451 0.000000 17.091682
v -65.776451 -0.489391 16.960550
v -65.776451 -0.847651 16.602291
v -65.776451 -0.978783 16.112900
v -65.776451 -0.847651 15.623508
v -65.776451 -0.489391 15.265249
v -65.776451 0.000000 15.134117
v -65.776451 0.489391 15.265249
v -65.776451 0.847651 15.623508
vn 1.0000 -0.0000 0.0031
vn 1.0000 -0.0000 -0.0031
vn 0.7179 -0.6029 0.3481
vn 0.7179 -0.3481 0.6029
vn 0.7179 0.6962 -0.0000
vn 0.7179 0.6029 -0.3481
vn 0.7179 0.3481 0.6029
vn 0.7179 0.6029 0.3481
vn 0.7179 -0.0000 -0.6962
vn 0.7179 -0.3481 -0.6029
vn 0.7179 -0.6962 -0.0000
vn 0.7179 -0.0000 0.6962
vn 0.7179 0.3481 -0.6029
vn 0.7179 -0.6029 -0.3481
vn -0.0000 -0.5000 0.8660
vn -0.0000 -0.8660 0.5000
vn -0.1144 -0.8603 0.4967
vn -0.1144 -0.4967 0.8603
vn -0.0000 0.8660 -0.5000
vn -0.0000 0.9659 -0.2588
vn -0.1144 0.9934 -0.0000
vn -0.1144 0.8603 -0.4967
vn -0.0000 0.8660 0.5000
vn -0.0000 0.5000 0.8660
vn -0.1144 0.4967 0.8603
vn -0.1144 0.8603 0.4967
vn -0.0000 -0.5000 -0.8660
vn -0.0000 -0.2588 -0.9659
vn -0.1144 -0.0000 -0.9934
vn -0.1144 -0.4967 -0.8603
vn -0.0000 -0.9659 0.2588
vn -0.1144 -0.9934 -0.0000
vn -0.0000 0.2588 0.9659
vn -0.1144 -0.0000 0.9934
vn -0.0000 0.2588 -0.9659
vn -0.0000 0.5000 -0.8660
vn -0.1144 0.4967 -0.8603
vn -0.0000 -0.9659 -0.2588
vn -0.0000 -0.8660 -0.5000
vn -0.1144 -0.8603 -0.4967
vn -0.0000 -0.2588 0.9659
vn -0.0000 0.9659 0.2588
vn -0.2231 -0.0000 0.9748
vn -0.2231 0.4874 0.8442
vn -0.2231 0.4874 -0.8442
vn -0.2231 -0.0000 -0.9748
vn -0.2231 -0.8442 -0.4874
vn -0.2231 -0.9748 -0.0000
vn -0.2231 -0.4874 0.8442
vn -0.2231 0.8442 -0.4874
vn -0.2231 0.8442 0.4874
vn -0.2231 0.9748 -0.0000
vn -0.2231 -0.4874 -0.8442
vn -0.2231 -0.8442 0.4874
vn 1.0000 -0.0000 -0.0000
vn -0.0377 -0.4996 0.8654
vn -0.0377 -0.8654 0.4996
vn -0.0377 -0.9993 -0.0000
vn -0.0377 -0.8654 -0.4996
vn -0.0377 0.8654 0.4996
vn -0.0377 0.4996 0.8654
vn -0.0377 0.4996 -0.8654
vn -0.0377 0.8654 -0.4996
vn -0.0377 -0.4996 -0.8654
vn -0.0377 -0.0000 0.9993
vn -0.0377 0.9993 -0.0000
vn -0.0377 -0.0000 -0.9993
vt 0.638173 -0.000834
vt 0.638173 0.999166
vt 0.581623 0.999166
vt 0.581623 -0.000834
vt 0.418377 0.094442
vt 0.418377 0.916741
vt 0.361827 0.897710
vt 0.361827 0.094442
vt 0.289368 0.135174
vt 0.135174 0.289368
vt 0.066987 0.250000
vt 0.250000 0.066987
vt 0.500000 0.921265
vt 0.710632 0.864826
vt 0.750000 0.933013
vt 0.500000 1.000000
vt 0.135174 0.710632
vt 0.289368 0.864826
vt 0.250000 0.933013
vt 0.066987 0.750000
vt 0.921265 0.500000
vt 0.864826 0.289368
vt 0.933013 0.250000
vt 1.000000 0.500000
vt 0.500000 0.078735
vt 0.500000 0.000000
vt 0.078735 0.500000
vt 0.000000 0.500000
vt 0.864826 0.710632
vt 0.933013 0.750000
vt 0.710632 0.135174
vt 0.750000 0.066987
vt 0.135174 0.370593
vt 0.289368 0.370593
vt 0.289368 0.482017
vt 0.135174 0.482017
vt 0.710632 0.370593
vt 0.500000 0.370593
vt 0.500000 0.482017
vt 0.710632 0.482017
vt 0.864826 0.370593
vt 0.864826 0.482017
vt 0.500000 0.666031
vt 0.731685 0.666031
vt 0.268315 0.666031
vt 0.901291 0.666031
vt 0.098709 0.666031
vt 0.300061 0.846305
vt 0.500000 0.899878
vt 0.500000 0.963371
vt 0.268315 0.901291
vt 0.153695 0.699939
vt 0.098709 0.731685
vt 0.100122 0.500000
vt 0.036629 0.500000
vt 0.153695 0.300061
vt 0.098709 0.268315
vt 0.300061 0.153695
vt 0.268315 0.098709
vt 0.500000 0.100122
vt 0.500000 0.036629
vt 0.699939 0.153695
vt 0.731685 0.098709
vt 0.846305 0.300061
vt 0.901291 0.268315
vt 0.899878 0.500000
vt 0.963371 0.500000
vt 0.846305 0.699939
vt 0.901291 0.731685
vt 0.699939 0.846305
vt 0.731685 0.901291
vt 0.699939 0.666031
vt 0.846305 0.666031
vt 0.857085 0.336423
vt 0.706163 0.336423
vt 0.300061 0.666031
vt 0.293837 0.336423
vt 0.500000 0.336423
vt 0.857085 0.336423
vt 0.153695 0.666031
vt 0.142915 0.336423
vt 0.293837 0.336423
vt 0.000000 0.000000
s 1
g Vent_2_Old_metal_plate
usemtl Old_metal_plate
f 1/1/1 3/2/1 4/3/1 2/4/1
s 2
f 5/5/1 7/6/1 8/7/1 6/8/1
s 3
f 9/1/2 10/4/2 12/3/2 11/2/2
s 4
f 13/5/2 14/8/2 16/7/2 15/6/2
s 5
g Vent_2_Metal_plates_old
usemtl Metal_plates_old
f 22/9/3 21/10/4 33/11/4 34/12/3
f 17/13/5 28/14/6 40/15/6 29/16/5
f 19/17/7 18/18/8 30/19/8 31/20/7
f 26/21/9 25/22/10 37/23/10 38/24/9
f 23/25/11 22/9/3 34/12/3 35/26/11
f 20/27/12 19/17/7 31/20/7 32/28/12
f 27/29/13 26/21/9 38/24/9 39/30/13
f 24/31/14 23/25/11 35/26/11 36/32/14
f 21/10/4 20/27/12 32/28/12 33/11/4
f 28/14/6 27/29/13 39/30/13 40/15/6
f 18/18/8 17/13/5 29/16/5 30/19/8
f 25/22/10 24/31/14 36/32/14 37/23/10
s 6
f 21/33/15 22/34/16 46/35/17 45/36/18
f 28/37/19 17/38/20 41/39/21 52/40/22
f 18/34/23 19/33/24 43/36/25 42/35/26
f 25/34/27 26/38/28 50/39/29 49/35/30
f 22/34/16 23/38/31 47/39/32 46/35/17
f 19/37/24 20/38/33 44/39/34 43/40/25
f 26/38/35 27/37/36 51/40/37 50/39/29
f 23/38/38 24/37/39 48/40/40 47/39/32
f 20/38/41 21/34/15 45/35/18 44/39/34
f 27/41/36 28/37/19 52/40/22 51/42/37
f 17/38/42 18/34/23 42/35/26 41/39/21
f 24/37/39 25/41/27 49/42/30 48/40/40
f 43/40/25 44/39/34 68/43/43 67/44/44
f 50/39/29 51/40/37 75/44/45 74/43/46
f 47/39/32 48/40/40 72/44/47 71/43/48
f 44/39/34 45/35/18 69/45/49 68/43/43
f 51/40/37 52/42/22 76/46/50 75/44/45
f 41/39/21 42/35/26 65/45/51 66/43/52
f 48/40/40 49/42/30 73/46/53 72/44/47
f 45/36/18 46/35/17 70/45/54 69/47/49
f 52/40/22 41/39/21 66/43/52 76/44/50
f 42/42/26 43/40/25 67/44/44 65/46/51
f 49/35/30 50/39/29 74/43/46 73/45/53
f 46/35/17 47/39/32 71/43/48 70/45/54
s 7
f 54/48/55 53/49/55 66/50/55 65/51/55
f 55/52/55 54/48/55 65/51/55 67/53/55
f 56/54/55 55/52/55 67/53/55 68/55/55
f 57/56/55 56/54/55 68/55/55 69/57/55
f 58/58/55 57/56/55 69/57/55 70/59/55
f 59/60/55 58/58/55 70/59/55 71/61/55
f 60/62/55 59/60/55 71/61/55 72/63/55
f 61/64/55 60/62/55 72/63/55 73/65/55
f 62/66/55 61/64/55 73/65/55 74/67/55
f 63/68/55 62/66/55 74/67/55 75/69/55
f 64/70/55 63/68/55 75/69/55 76/71/55
f 53/49/55 64/70/55 76/71/55 66/50/55
s 8
f 63/72/56 64/73/57 88/74/57 87/75/56
f 53/43/58 54/76/59 78/77/59 77/78/58
f 60/72/60 61/73/61 85/79/61 84/75/60
f 57/80/62 58/76/63 82/77/63 81/81/62
f 64/72/57 53/43/58 77/78/58 88/75/57
f 54/73/59 55/72/64 79/75/64 78/74/59
f 61/76/61 62/43/65 86/78/65 85/82/61
f 58/76/63 59/43/66 83/78/66 82/77/63
f 55/72/64 56/43/67 80/78/67 79/75/64
f 62/43/65 63/72/56 87/75/56 86/78/65
f 59/43/66 60/72/60 84/75/60 83/78/66
f 56/43/67 57/76/62 81/82/62 80/78/67
s 9
g Vent_2_Dark
usemtl Dark
f 78/83/55 79/83/55 80/83/55 81/83/55 82/83/55 83/83/55 84/83/55 85/83/55 86/83/55 87/83/55 88/83/55 77/83/55
