# Blender 4.5.4 LTS
# www.blender.org
mtllib Vent_1.mtl
g Vent_1_Vert.006
v -65.469276 -0.949232 19.031675
v -65.469604 -0.949232 19.138165
v -65.469276 0.933852 19.031675
v -65.469604 0.933852 19.138165
v -65.469276 -0.769820 19.445570
v -65.469604 -0.769820 19.552059
v -65.469276 0.778639 19.445570
v -65.469604 0.742801 19.552059
v -65.469276 -0.949232 18.696432
v -65.469604 -0.949232 18.589943
v -65.469276 0.933852 18.696432
v -65.469604 0.933852 18.589943
v -65.469276 -0.769820 18.282537
v -65.469604 -0.769820 18.176048
v -65.469276 0.778639 18.282537
v -65.469604 0.742801 18.176048
v -66.151054 0.978783 18.864054
v -66.151054 0.847651 19.353445
v -66.151054 0.489391 19.711704
v -66.151054 0.000000 19.842836
v -66.151054 -0.489391 19.711704
v -66.151054 -0.847651 19.353445
v -66.151054 -0.978783 18.864054
v -66.151054 -0.847651 18.374662
v -66.151054 -0.489391 18.016403
v -66.151054 0.000000 17.885271
v -66.151054 0.489391 18.016403
v -66.151054 0.847651 18.374662
v -65.805443 1.000000 18.864054
v -65.805443 0.866025 19.364054
v -65.805443 0.500000 19.730080
v -65.805443 0.000000 19.864054
v -65.805443 -0.500000 19.730080
v -65.805443 -0.866025 19.364054
v -65.805443 -1.000000 18.864054
v -65.805443 -0.866025 18.364054
v -65.805443 -0.500000 17.998028
v -65.805443 0.000000 17.864054
v -65.805443 0.500000 17.998028
v -65.805443 0.866025 18.364054
v -65.368629 0.949232 18.864054
v -65.368629 0.822059 19.338671
v -65.368629 0.474616 19.686113
v -65.368629 0.000000 19.813286
v -65.368629 -0.474616 19.686113
v -65.368629 -0.822059 19.338671
v -65.368629 -0.949232 18.864054
v -65.368629 -0.822059 18.389437
v -65.368629 -0.474616 18.041994
v -65.368629 0.000000 17.914822
v -65.368629 0.474616 18.041994
v -65.368629 0.822059 18.389437
v -65.368629 0.952586 19.414030
v -65.368629 1.099952 18.864054
v -65.368629 0.549976 19.816641
v -65.368629 0.000000 19.964006
v -65.368629 -0.549976 19.816641
v -65.368629 -0.952586 19.414030
v -65.368629 -1.099952 18.864054
v -65.368629 -0.952586 18.314077
v -65.368629 -0.549976 17.911467
v -65.368629 0.000000 17.764101
v -65.368629 0.549976 17.911467
v -65.368629 0.952586 18.314077
vn 1.0000 -0.0000 0.0031
vn 1.0000 -0.0000 -0.0031
vn -0.0613 -0.4991 0.8644
vn -0.0613 -0.8644 0.4991
vn -0.1446 -0.8569 0.4947
vn -0.1446 -0.4947 0.8569
vn -0.0613 0.8644 -0.4991
vn -0.0613 0.9981 -0.0000
vn -0.1446 0.9895 -0.0000
vn -0.1446 0.8569 -0.4947
vn -0.0613 0.8644 0.4991
vn -0.0613 0.4991 0.8644
vn -0.1446 0.4947 0.8569
vn -0.1446 0.8569 0.4947
vn -0.0613 -0.4991 -0.8644
vn -0.0613 -0.0000 -0.9981
vn -0.1446 -0.0000 -0.9895
vn -0.1446 -0.4947 -0.8569
vn -0.0613 -0.9981 -0.0000
vn -0.1446 -0.9895 -0.0000
vn -0.0613 -0.0000 0.9981
vn -0.1446 -0.0000 0.9895
vn -0.0613 0.4991 -0.8644
vn -0.1446 0.4947 -0.8569
vn -0.0613 -0.8644 -0.4991
vn -0.1446 -0.8569 -0.4947
vn -0.2231 -0.0000 0.9748
vn -0.2231 0.4874 0.8442
vn -0.2231 0.4874 -0.8442
vn -0.2231 -0.0000 -0.9748
vn -0.2231 -0.8442 -0.4874
vn -0.2231 -0.9748 -0.0000
vn -0.2231 -0.4874 0.8442
vn -0.2231 0.8442 -0.4874
vn -0.2231 0.8442 0.4874
vn -0.2231 0.9748 -0.0000
vn -0.2231 -0.4874 -0.8442
vn -0.2231 -0.8442 0.4874
vn 1.0000 -0.0000 -0.0000
vn -0.0377 -0.4996 0.8654
vn -0.0377 -0.8654 0.4996
vn -0.0377 -0.9993 -0.0000
vn -0.0377 -0.8654 -0.4996
vn -0.0377 0.8654 0.4996
vn -0.0377 0.4996 0.8654
vn -0.0377 0.4996 -0.8654
vn -0.0377 0.8654 -0.4996
vn -0.0377 -0.4996 -0.8654
vn -0.0377 -0.0000 0.9993
vn -0.0377 0.9993 -0.0000
vn -0.0377 -0.0000 -0.9993
vt 0.638173 -0.000834
vt 0.638173 0.999166
vt 0.581623 0.999166
vt 0.581623 -0.000834
vt 0.418377 0.094442
vt 0.418377 0.916741
vt 0.361827 0.897710
vt 0.361827 0.094442
vt 0.135174 0.370593
vt 0.289368 0.370593
vt 0.289368 0.482017
vt 0.135174 0.482017
vt 0.710632 0.370593
vt 0.500000 0.370593
vt 0.500000 0.482017
vt 0.710632 0.482017
vt 0.864826 0.370593
vt 0.864826 0.482017
vt 0.500000 0.666031
vt 0.731685 0.666031
vt 0.268315 0.666031
vt 0.901291 0.666031
vt 0.098709 0.666031
vt 0.300061 0.846305
vt 0.500000 0.899878
vt 0.500000 0.963371
vt 0.268315 0.901291
vt 0.153695 0.699939
vt 0.098709 0.731685
vt 0.100122 0.500000
vt 0.036629 0.500000
vt 0.153695 0.300061
vt 0.098709 0.268315
vt 0.300061 0.153695
vt 0.268315 0.098709
vt 0.500000 0.100122
vt 0.500000 0.036629
vt 0.699939 0.153695
vt 0.731685 0.098709
vt 0.846305 0.300061
vt 0.901291 0.268315
vt 0.899878 0.500000
vt 0.963371 0.500000
vt 0.846305 0.699939
vt 0.901291 0.731685
vt 0.699939 0.846305
vt 0.731685 0.901291
vt 0.699939 0.666031
vt 0.846305 0.666031
vt 0.857085 0.336423
vt 0.706163 0.336423
vt 0.300061 0.666031
vt 0.293837 0.336423
vt 0.500000 0.336423
vt 0.857085 0.336423
vt 0.153695 0.666031
vt 0.142915 0.336423
vt 0.293837 0.336423
s 1
g Vent_1_Old_metal_plate
usemtl Old_metal_plate
f 1/1/1 3/2/1 4/3/1 2/4/1
s 2
f 5/5/1 7/6/1 8/7/1 6/8/1
s 3
f 9/1/2 10/4/2 12/3/2 11/2/2
s 4
f 13/5/2 14/8/2 16/7/2 15/6/2
s 5
g Vent_1_Metal_plates_old
usemtl Metal_plates_old
f 21/9/3 22/10/4 34/11/5 33/12/6
f 28/13/7 17/14/8 29/15/9 40/16/10
f 18/10/11 19/9/12 31/12/13 30/11/14
f 25/10/15 26/14/16 38/15/17 37/11/18
f 22/10/4 23/14/19 35/15/20 34/11/5
f 19/13/12 20/14/21 32/15/22 31/16/13
f 26/14/16 27/13/23 39/16/24 38/15/17
f 23/14/19 24/13/25 36/16/26 35/15/20
f 20/14/21 21/10/3 33/11/6 32/15/22
f 27/17/23 28/13/7 40/16/10 39/18/24
f 17/14/8 18/10/11 30/11/14 29/15/9
f 24/13/25 25/17/15 37/18/18 36/16/26
f 31/16/13 32/15/22 56/19/27 55/20/28
f 38/15/17 39/16/24 63/20/29 62/19/30
f 35/15/20 36/16/26 60/20/31 59/19/32
f 32/15/22 33/11/6 57/21/33 56/19/27
f 39/16/24 40/18/10 64/22/34 63/20/29
f 29/15/9 30/11/14 53/21/35 54/19/36
f 36/16/26 37/18/18 61/22/37 60/20/31
f 33/12/6 34/11/5 58/21/38 57/23/33
f 40/16/10 29/15/9 54/19/36 64/20/34
f 30/18/14 31/16/13 55/20/28 53/22/35
f 37/11/18 38/15/17 62/19/30 61/21/37
f 34/11/5 35/15/20 59/19/32 58/21/38
s 6
f 42/24/39 41/25/39 54/26/39 53/27/39
f 43/28/39 42/24/39 53/27/39 55/29/39
f 44/30/39 43/28/39 55/29/39 56/31/39
f 45/32/39 44/30/39 56/31/39 57/33/39
f 46/34/39 45/32/39 57/33/39 58/35/39
f 47/36/39 46/34/39 58/35/39 59/37/39
f 48/38/39 47/36/39 59/37/39 60/39/39
f 49/40/39 48/38/39 60/39/39 61/41/39
f 50/42/39 49/40/39 61/41/39 62/43/39
f 51/44/39 50/42/39 62/43/39 63/45/39
f 52/46/39 51/44/39 63/45/39 64/47/39
f 41/25/39 52/46/39 64/47/39 54/26/39
s 7
f 51/48/40 52/49/41 28/50/41 27/51/40
f 41/19/42 42/52/43 18/53/43 17/54/42
f 48/48/44 49/49/45 25/55/45 24/51/44
f 45/56/46 46/52/47 22/53/47 21/57/46
f 52/48/41 41/19/42 17/54/42 28/51/41
f 42/49/43 43/48/48 19/51/48 18/50/43
f 49/52/45 50/19/49 26/54/49 25/58/45
f 46/52/47 47/19/50 23/54/50 22/53/47
f 43/48/48 44/19/51 20/54/51 19/51/48
f 50/19/49 51/48/40 27/51/40 26/54/49
f 47/19/50 48/48/44 24/51/44 23/54/50
f 44/19/51 45/52/46 21/58/46 20/54/51
